<svg xmlns="http://www.w3.org/2000/svg" width="170" height="25" viewBox="0 0 170 25" fill="none">
<g clip-path="url(#clip0)">
<path d="M38.2731 7.23907H42.0584V7.49159C42.8154 7.15489 43.6566 6.98654 44.5819 6.98654C46.3483 6.98654 47.8624 7.65994 49.0401 8.83839C50.2177 7.74412 51.7318 6.98654 53.4983 6.98654C56.9471 6.98654 59.807 9.76432 59.807 13.2997V19.1078H56.0218V13.2997C56.0218 11.8687 54.8441 10.7744 53.4983 10.7744C52.0683 10.7744 50.9748 11.8687 50.9748 13.2997V19.1078H47.1054V13.2997C47.1054 11.8687 45.9278 10.7744 44.5819 10.7744C43.236 10.7744 42.0584 11.8687 42.0584 13.2997V19.1078H38.2731V7.23907Z" fill="black"/>
<path d="M70.6581 19.0236C69.8169 19.3603 68.9757 19.6128 68.0505 19.6128C64.6017 19.6128 61.7417 16.835 61.7417 13.2997C61.7417 9.84849 64.5176 6.98654 68.0505 6.98654C68.9757 6.98654 69.8169 7.15489 70.6581 7.49159V7.32324H74.4433V19.1078L70.6581 19.0236ZM65.527 13.2997C65.527 14.7306 66.7046 15.8249 68.0505 15.8249C69.4804 15.8249 70.574 14.7306 70.574 13.2997C70.574 11.8687 69.3963 10.7744 68.0505 10.7744C66.7046 10.7744 65.527 11.8687 65.527 13.2997Z" fill="black"/>
<path d="M76.2098 2.86195C76.2098 1.26263 77.4715 0 79.1539 0C80.7521 0 82.0138 1.26263 82.0138 2.86195C82.0138 4.46128 80.7521 5.72391 79.1539 5.72391C77.5556 5.72391 76.2098 4.46128 76.2098 2.86195ZM81.0044 19.0236H77.2192V7.23906H81.0044V19.0236Z" fill="black"/>
<path d="M88.0702 19.0236H84.285V2.86194H88.0702V19.0236Z" fill="black"/>
<path d="M98.8372 19.0236C98.0802 19.3603 97.239 19.5286 96.3137 19.5286C92.8649 19.5286 90.0049 16.7509 90.0049 13.2155C90.0049 9.76432 92.8649 6.90237 96.3137 6.90237C97.239 6.90237 98.0802 7.15489 98.8372 7.40742V2.94614H102.622V19.1078L98.8372 19.0236ZM93.7902 13.2155C93.7902 14.6465 94.8837 15.7408 96.3137 15.7408C97.7437 15.7408 98.8372 14.6465 98.8372 13.2155C98.8372 11.7845 97.7437 10.6902 96.3137 10.6902C94.8837 10.6902 93.7902 11.7845 93.7902 13.2155Z" fill="black"/>
<path d="M105.062 7.23904H108.847V7.40739C109.604 7.07069 110.445 6.90234 111.371 6.90234C112.969 6.90234 114.483 7.49157 115.661 8.58585L113.053 11.3636C112.548 10.9427 111.959 10.6902 111.287 10.6902C109.857 10.6902 108.763 11.7845 108.763 13.2155V19.0236H104.978V7.23904H105.062Z" fill="black"/>
<path d="M121.381 6.81818C124.829 6.81818 127.689 9.68013 127.689 13.1313C127.689 16.5825 124.913 19.4444 121.381 19.4444C117.932 19.4444 115.072 16.6667 115.072 13.1313C115.072 9.59595 117.932 6.81818 121.381 6.81818ZM121.381 10.6061C119.951 10.6061 118.857 11.7003 118.857 13.1313C118.857 14.5623 119.951 15.6566 121.381 15.6566C122.811 15.6566 123.904 14.4781 123.904 13.1313C123.904 11.7845 122.811 10.6061 121.381 10.6061Z" fill="black"/>
<path d="M129.372 7.0707H133.157V7.32323C133.914 6.98653 134.755 6.81818 135.68 6.81818C139.129 6.81818 141.989 9.68013 141.989 13.1313C141.989 16.5825 139.213 19.4444 135.68 19.4444C134.755 19.4444 133.914 19.2761 133.157 18.9394V23.4848H129.372V7.0707ZM133.073 13.0471C133.073 14.4781 134.25 15.5724 135.596 15.5724C136.942 15.5724 138.12 14.3939 138.12 13.0471C138.12 11.7003 136.942 10.5219 135.596 10.5219C134.25 10.5219 133.073 11.7003 133.073 13.0471Z" fill="black"/>
<path d="M143.587 7.0707H147.373V7.32323C148.13 6.98653 148.971 6.81818 149.896 6.81818C153.345 6.81818 156.205 9.68013 156.205 13.1313C156.205 16.5825 153.429 19.4444 149.896 19.4444C148.971 19.4444 148.13 19.2761 147.373 18.9394V23.4848H143.587V7.0707ZM147.288 13.0471C147.288 14.4781 148.466 15.5724 149.812 15.5724C151.158 15.5724 152.335 14.3939 152.335 13.0471C152.335 11.7003 151.158 10.5219 149.812 10.5219C148.466 10.5219 147.288 11.7003 147.288 13.0471Z" fill="black"/>
<path d="M166.215 19.0236C165.458 19.3603 164.616 19.5286 163.607 19.5286C160.158 19.5286 157.298 16.7508 157.298 13.2155C157.298 9.7643 160.074 6.90234 163.607 6.90234C164.532 6.90234 165.374 7.15487 166.215 7.40739V7.32322H170V19.1077L166.215 19.0236ZM161.084 13.2996C161.084 14.7306 162.261 15.8249 163.607 15.8249C165.037 15.8249 166.131 14.7306 166.131 13.2996C166.131 11.8687 164.953 10.7744 163.607 10.7744C162.261 10.7744 161.084 11.8687 161.084 13.2996Z" fill="black"/>
<path d="M14.9728 18.3502C14.8887 18.0976 14.7205 17.9293 14.4681 17.8451L10.3464 16.2458C10.094 16.1616 9.84169 16.1616 9.58934 16.33C9.33699 16.4983 9.25287 16.7508 9.25287 17.0034V24.1582C9.25287 24.4949 9.50522 24.8316 9.84169 24.9158C9.9258 24.9158 10.0099 24.9158 10.094 24.9158C10.3464 24.9158 10.5987 24.8316 10.767 24.5791L14.8887 19.0236C15.0569 18.8552 15.0569 18.6027 14.9728 18.3502Z" fill="#1B8FDD"/>
<path d="M25.235 0.589234C24.9827 0.420884 24.6462 0.420884 24.3939 0.505059L0.420584 13.0471C0.168234 13.2155 0 13.5522 0 13.8889C0 14.2256 0.25235 14.4781 0.504701 14.5623L21.5339 21.7172C21.618 21.7172 21.7021 21.8014 21.7862 21.8014C21.9545 21.8014 22.0386 21.8014 22.2068 21.7172C22.3751 21.633 22.5433 21.3805 22.5433 21.128L25.4874 1.43098C25.5715 1.09428 25.4874 0.757584 25.235 0.589234Z" fill="#4EB9F4"/>
<path d="M8.49581 18.3502L22.2068 4.29294L6.30878 17.6768L8.49581 18.3502Z" fill="#2B3254"/>
</g>
<defs>
<clipPath id="clip0">
<rect width="170" height="25" fill="white"/>
</clipPath>
</defs>
</svg>