<svg width="1440" height="790" fill="none" xmlns="http://www.w3.org/2000/svg"><path fill="#2B3254" d="M0 0h1440v790H0z"/><mask id="a" style="mask-type:alpha" maskUnits="userSpaceOnUse" x="0" y="1" width="1440" height="789"><path fill="#2B3254" d="M0 1.004h1440V790H0z"/></mask><g mask="url(#a)"><path d="M644 240.915C605.918 118.589 729 1.004 729 1.004h711v660.508c15.98 46.756 0 107.408 0 107.408V661.512c-38.33-112.134-303.7 128.413-365-68.761-22-70.769 17.2-86.637-23.5-198.253-41-112.427-357.5 7.027-407.5-153.583z" fill="url(#b)"/><ellipse cx="120" cy="670.546" rx="316" ry="317.205" fill="url(#c)"/><ellipse cx="1286.5" cy="332.764" rx="175.5" ry="176.169" fill="url(#d)" fill-opacity=".5"/><path d="M206 85.324C246.229 21.08 362 4.818 374 0H-4v276.048s63 31.118 129 0 40.771-126.48 81-190.724z" fill="url(#e)" fill-opacity=".5"/></g><defs><linearGradient id="b" x1="1038.34" y1="1.004" x2="1038.34" y2="768.921" gradientUnits="userSpaceOnUse"><stop stop-color="#2B3254"/><stop offset="1" stop-color="#414A76" stop-opacity=".7"/></linearGradient><linearGradient id="c" x1="120" y1="353.342" x2="120" y2="987.751" gradientUnits="userSpaceOnUse"><stop stop-color="#2B3254"/><stop offset="1" stop-color="#414A76"/></linearGradient><linearGradient id="d" x1="1286.5" y1="156.595" x2="1286.5" y2="508.933" gradientUnits="userSpaceOnUse"><stop stop-color="#2B3254"/><stop offset="1" stop-color="#414A76"/></linearGradient><linearGradient id="e" x1="232" y1="-78.297" x2="35.907" y2="247.283" gradientUnits="userSpaceOnUse"><stop stop-color="#2B3254"/><stop offset="1" stop-color="#414A76"/></linearGradient></defs></svg>