<svg xmlns="http://www.w3.org/2000/svg" width="550" height="460" fill="none"><path fill="url(#a)" d="M396.28 86.651c8.056 8.474-5.009-9.285 0 0-56.831-93.172-216.662-97.89-288.038-43.843C41.526 102.206-3.372 187.513.199 270.955 4.074 361.654 28.94 433.418 111.29 453.204c38.279 9.163 74.773-1.135 106.65-20.272 25.171-15.124 58.311-13.704 82.35 4.014 9.101 6.69 19.205 12.366 30.44 16.38 25.476 9.082 48.121 6.649 57.919 5.473 76.515-9.041 162.044-110.079 161.347-180.425-.828-80.765-53.207-164.314-153.716-191.723Z"/><path fill="#4EB9F4" d="M302.038 5a5 5 0 0 1 5-5h226.594a5 5 0 0 1 5 5v19.916H302.038V5Z"/><path fill="#fff" d="M387.151 8.054c.735 0 1.347.245 1.837.735.498.49.747 1.1.747 1.827 0 .72-.249 1.33-.747 1.828-.49.49-1.102.735-1.837.735h-1.593v2.674h-1.281v-7.8h2.874Zm0 3.922c.378 0 .69-.127.935-.38.245-.26.368-.586.368-.98 0-.393-.123-.717-.368-.97a1.23 1.23 0 0 0-.935-.39h-1.593v2.72h1.593ZM393.006 15.998c-.817 0-1.511-.282-2.083-.847-.572-.564-.858-1.259-.858-2.083 0-.825.286-1.52.858-2.084.572-.565 1.266-.847 2.083-.847.824 0 1.518.282 2.082.847.572.565.858 1.26.858 2.084 0 .824-.286 1.519-.858 2.083-.564.565-1.258.847-2.082.847Zm-1.237-1.671c.334.334.747.501 1.237.501.49 0 .902-.167 1.236-.501.334-.335.501-.754.501-1.26 0-.505-.167-.924-.501-1.258a1.679 1.679 0 0 0-1.236-.502c-.49 0-.903.167-1.237.502-.334.334-.501.754-.501 1.259 0 .505.167.925.501 1.259ZM400.185 10.137c.765 0 1.419.286 1.961.858.542.565.813 1.256.813 2.073 0 .824-.271 1.519-.813 2.083-.542.565-1.196.847-1.961.847-.846 0-1.496-.312-1.949-.936v3.02h-1.203v-7.8h1.203v.802c.453-.631 1.103-.947 1.949-.947Zm-1.448 4.212c.335.334.754.502 1.259.502.505 0 .924-.168 1.259-.502.334-.342.501-.769.501-1.281 0-.513-.167-.936-.501-1.27-.335-.342-.754-.513-1.259-.513-.505 0-.924.17-1.259.512-.334.335-.501.758-.501 1.27 0 .513.167.94.501 1.282ZM407.802 10.282h1.203v5.571h-1.203v-.713c-.364.572-.939.858-1.726.858-.639 0-1.155-.204-1.548-.613-.394-.408-.591-.97-.591-1.682v-3.421h1.203v3.298c0 .416.112.736.334.959.223.222.527.334.914.334.423 0 .764-.13 1.024-.39.26-.268.39-.673.39-1.215v-2.986ZM413.563 10.137c.765 0 1.418.286 1.96.858.542.565.813 1.256.813 2.073 0 .824-.271 1.519-.813 2.083-.542.565-1.195.847-1.96.847-.846 0-1.496-.312-1.949-.936v3.02h-1.203v-7.8h1.203v.802c.453-.631 1.103-.947 1.949-.947Zm-1.448 4.212c.335.334.754.502 1.259.502.505 0 .924-.168 1.258-.502.335-.342.502-.769.502-1.281 0-.513-.167-.936-.502-1.27-.334-.342-.753-.513-1.258-.513s-.924.17-1.259.512c-.334.335-.501.758-.501 1.27 0 .513.167.94.501 1.282ZM421.937 15.853l-2.205-7.8h1.348l1.637 6.095 1.771-6.094h1.18l1.76 6.095 1.637-6.095h1.348l-2.205 7.8h-1.482l-1.648-5.694-1.659 5.693h-1.482ZM432.256 9.223a.73.73 0 0 1-.535.223.765.765 0 0 1-.545-1.303.723.723 0 0 1 .545-.234c.216 0 .398.078.546.234a.728.728 0 0 1 .223.535c0 .208-.078.39-.234.545Zm-1.136 6.63v-5.571h1.203v5.571h-1.203ZM438.13 8.054h1.203v7.8h-1.203v-.803c-.453.631-1.103.947-1.949.947-.765 0-1.418-.282-1.96-.847-.542-.572-.813-1.266-.813-2.083 0-.825.271-1.52.813-2.084.542-.565 1.195-.847 1.96-.847.846 0 1.496.312 1.949.936v-3.02Zm-3.018 6.295c.334.334.753.502 1.258.502s.925-.168 1.259-.502c.334-.342.501-.769.501-1.281 0-.513-.167-.936-.501-1.27-.334-.342-.754-.513-1.259-.513-.505 0-.924.17-1.258.512-.335.335-.502.758-.502 1.27 0 .513.167.94.502 1.282ZM445.167 10.282h1.181v5.315c0 .847-.279 1.497-.835 1.95-.557.453-1.233.68-2.027.68-1.285 0-2.165-.45-2.64-1.349l1.036-.601c.289.572.831.858 1.626.858.52 0 .924-.138 1.214-.413.297-.267.445-.642.445-1.125v-.68c-.453.647-1.099.97-1.938.97a2.672 2.672 0 0 1-1.993-.836 2.838 2.838 0 0 1-.813-2.04c0-.794.271-1.47.813-2.027a2.655 2.655 0 0 1 1.993-.847c.839 0 1.485.323 1.938.97v-.825Zm-3.04 3.978c.341.334.765.501 1.269.501.505 0 .925-.167 1.259-.501.342-.334.512-.75.512-1.248s-.17-.914-.512-1.248c-.334-.334-.754-.501-1.259-.501-.504 0-.928.167-1.269.501-.334.334-.501.75-.501 1.248s.167.914.501 1.248ZM448.697 13.58c.089.424.293.75.612.98.319.224.709.335 1.17.335.638 0 1.117-.23 1.436-.69l.992.579c-.55.81-1.363 1.214-2.44 1.214-.905 0-1.637-.275-2.194-.824-.557-.557-.835-1.26-.835-2.106 0-.832.275-1.527.824-2.084.55-.565 1.255-.847 2.116-.847.817 0 1.485.286 2.005.858.527.572.791 1.267.791 2.084 0 .126-.015.293-.045.501h-4.432Zm-.012-.98h3.275c-.082-.454-.271-.795-.568-1.025a1.598 1.598 0 0 0-1.025-.346c-.445 0-.817.123-1.114.368-.297.245-.486.58-.568 1.003ZM457.166 11.44h-1.382v2.675c0 .23.052.397.156.502.104.096.257.152.457.167.208.007.464.003.769-.011v1.08c-.921.112-1.582.034-1.983-.234-.401-.275-.601-.776-.601-1.504v-2.674h-1.025v-1.159h1.025V9.079l1.202-.357v1.56h1.382v1.159Z"/><path fill="#fff" stroke="#DDE3E8" d="M302.463 25.219h235.669v286.788a4.5 4.5 0 0 1-4.5 4.5H306.963a4.5 4.5 0 0 1-4.5-4.5V25.219Z"/><path fill="#F1F1F1" d="M326.645 239.471h82.059v56.593h-82.059zM326.645 172.02h82.059v56.593h-82.059zM326.645 301.283h82.059v14.926h-82.059zM432.325 239.471h82.059v56.593h-82.059zM432.325 172.02h82.059v56.593h-82.059zM432.325 301.283h82.059v14.926h-82.059zM326.632 24.718h188.102v140.36H326.632z"/><rect width="236.669" height="292.288" x="301.963" y="24.719" fill="#AAADC0" fill-opacity=".2" rx="5"/><path fill="#fff" d="M336.822 93h168.083v118.238H336.822z"/><path fill="#F6F6FF" stroke="#DBDBDB" stroke-width=".413" d="M344.443 102.437h153.369v5.967H344.443z"/><path fill="#F26B86" d="M344.457 102.154h77.546v6.535h-77.546z"/><path fill="#F6F6FF" d="M343.875 133.895h154.144v39.32H343.875zM343.713 186.69h154.306v15.162H343.713z"/><path fill="#0ED2AF" d="M398.823 176.352h44.776v6.892h-44.776z"/><path fill="#109CF1" d="M343.872 115.511h154.144v12.255H343.872z"/><path fill="#C1C1C1" d="M424.996 137.758h58.938v2.381h-58.938zM424.996 141.927h60.724v2.381h-60.724zM424.996 146.096h58.938v2.381h-58.938zM424.996 150.266h54.175v2.381h-54.175zM424.996 154.435h58.343v2.381h-58.343zM424.996 158.604h51.794v2.381h-51.794zM384.354 189.446h70.953v2.067h-70.953zM396.064 192.892h47.532v2.067h-47.532zM409.152 196.338h21.355v2.067h-21.355z" opacity=".5"/><path fill="#fff" d="M410.53 178.419h21.355v2.757H410.53z" opacity=".5"/><path fill="#AAADC0" d="M355.42 139.136h51.665v27.567H355.42z" opacity=".5"/><path fill="#fff" d="M360.243 103.988h44.776v2.757h-44.776v-2.757ZM375.398 119.15h90.241v4.824h-90.241z" opacity=".5"/><path fill="#C1C1C1" d="M424.996 162.773h58.343v2.381h-58.343zM424.996 166.943h30.957v2.381h-30.957z" opacity=".5"/><path fill="#fff" stroke="#DDE3E8" d="M148.713 157.872h-.5v288.15a5.5 5.5 0 0 0 5.5 5.5H380.05a5.5 5.5 0 0 0 5.5-5.5v-288.15H148.713Z"/><path fill="#F1F1F1" d="M173.001 158.57h188.09v63.512h-188.09zM173.075 329.336h187.943v121.871H173.075zM173.001 232.044h87.707v63.512h-87.707zM173.075 302.176h87.707v16.714h-87.707zM272.615 232.044h88.403v63.512h-88.403zM272.616 302.176h88.403v17.41h-88.403z"/><path fill="#4EB9F4" d="M148.713 138.646a5 5 0 0 1 5-5h226.669a5 5 0 0 1 5 5v19.924H148.713v-19.924Z"/><path fill="#fff" d="M256.156 149.646c-.75 0-1.389-.171-1.916-.513a2.705 2.705 0 0 1-1.092-1.404l1.103-.646c.312.876.958 1.315 1.938 1.315.483 0 .843-.093 1.08-.279a.908.908 0 0 0 .368-.746c0-.32-.13-.561-.39-.725-.26-.17-.72-.356-1.381-.557a9.138 9.138 0 0 1-.902-.312 4.536 4.536 0 0 1-.735-.401 1.707 1.707 0 0 1-.568-.657 2.075 2.075 0 0 1-.19-.914c0-.691.245-1.237.735-1.638.491-.408 1.081-.613 1.771-.613.624 0 1.17.153 1.638.457.467.305.827.724 1.08 1.259l-1.08.624c-.327-.728-.873-1.092-1.638-1.092-.371 0-.668.089-.891.268a.836.836 0 0 0-.334.702c0 .289.112.52.334.69.231.164.643.338 1.237.524.297.097.512.171.646.223.141.045.334.119.579.223a2.3 2.3 0 0 1 .568.312c.126.104.26.234.401.39.148.156.252.334.312.535.059.2.089.427.089.679 0 .706-.257 1.267-.769 1.683-.505.408-1.169.613-1.993.613ZM259.954 149.501v-8.134h1.203v8.134h-1.203ZM263.689 142.871a.725.725 0 0 1-.534.223.765.765 0 0 1-.546-1.304.726.726 0 0 1 .546-.234c.215 0 .397.078.546.234a.732.732 0 0 1 .222.535c0 .208-.078.39-.234.546Zm-1.136 6.63v-5.571h1.203v5.571h-1.203ZM269.563 141.701h1.203v7.8h-1.203v-.802c-.453.631-1.102.947-1.949.947-.765 0-1.418-.283-1.96-.847-.542-.572-.813-1.267-.813-2.084 0-.824.271-1.519.813-2.083.542-.565 1.195-.847 1.96-.847.847 0 1.496.312 1.949.936v-3.02Zm-3.018 6.296c.334.334.754.501 1.259.501.504 0 .924-.167 1.258-.501.334-.342.501-.769.501-1.282 0-.512-.167-.936-.501-1.27-.334-.342-.754-.513-1.258-.513-.505 0-.925.171-1.259.513-.334.334-.501.758-.501 1.27 0 .513.167.94.501 1.282ZM273.115 147.228c.089.423.293.75.612.98.32.223.709.335 1.17.335.638 0 1.117-.231 1.437-.691l.991.579c-.55.81-1.363 1.215-2.439 1.215-.906 0-1.638-.275-2.194-.825-.557-.557-.836-1.259-.836-2.106 0-.832.275-1.526.824-2.083.55-.565 1.255-.847 2.117-.847.816 0 1.485.286 2.004.858.527.572.791 1.266.791 2.083 0 .127-.015.294-.045.502h-4.432Zm-.011-.981h3.274c-.082-.453-.271-.795-.568-1.025a1.599 1.599 0 0 0-1.025-.345c-.445 0-.816.122-1.113.367-.297.246-.487.58-.568 1.003ZM279.853 144.866c.305-.691.876-1.037 1.715-1.037v1.304c-.46-.03-.861.082-1.202.334-.342.245-.513.654-.513 1.226v2.808h-1.203v-5.571h1.203v.936Z"/><path fill="#109CF1" d="M279.742 351h99.378v100.206h-99.378z"/><path fill="#fff" d="M286.175 392.077h86.343v13.236h-86.343zM286.175 408.622h86.343v13.236h-86.343z"/><path fill="#0ED2AF" d="M286.175 431.786h86.343v13.236h-86.343v-13.236Z"/><path fill="#fff" d="M286.38 382.492h52.483v3.67H286.38z" opacity=".5"/><path fill="#86E9D7" d="M303.278 437.429h52.483v2.348h-52.483z"/><path fill="#828282" d="M291.073 413.976h33.998v2.348h-33.998zM291.073 397.473h33.998v2.348h-33.998z" opacity=".5"/><path fill="#fff" d="M286.38 376.07h86.551v3.67H286.38zM286.38 369.648h81.947v3.67H286.38zM286.38 363.226h84.709v3.67H286.38z" opacity=".5"/><path fill="#fff" stroke="#DDE3E8" d="M.5 89.847h235.67v286.99a4.5 4.5 0 0 1-4.5 4.5H5a4.5 4.5 0 0 1-4.5-4.5V89.847Z"/><path fill="#F1F1F1" d="M23.666 89.068h188.639v16.017H23.666zM24.363 114.138h86.315v55.712H24.363zM24.363 179.6h87.011v58.498H24.363zM206.041 180.297h6.265v57.105h-6.265zM206.041 114.138h6.265v55.712h-6.265zM24.363 292.418h187.943v88.443H24.363zM23.666 245.759h188.639v36.91H23.666z"/><path fill="#FFF0C9" d="M119.727 114.835h77.962v122.567h-77.962z"/><path fill="#fff" d="M124.776 171.571h67.736v11.774h-67.736zM124.776 186.289h67.736v11.774h-67.736z"/><path fill="#F7BE2C" d="M124.776 206.894h67.737v11.775h-67.737v-11.775Z"/><path fill="#B1AFB0" d="M138.442 156.08h41.173v2.088h-41.173zM142.124 225.721h33.763v2.088h-33.763z" opacity=".5"/><path fill="#B3B1B1" d="M138.442 127.528h41.173v4.178h-41.173z"/><path fill="#FFDE8A" d="M138.191 211.915h41.173v2.088h-41.173z"/><path fill="#828282" d="M128.618 191.052h26.671v2.088h-26.671zM128.618 176.37h26.671v2.088h-26.671z" opacity=".5"/><path fill="#B1AFB0" d="M124.937 150.368h67.899v2.088h-67.899zM126.776 144.655h64.287v2.088h-64.287zM126.164 138.942h66.454v2.088h-66.454z" opacity=".5"/><path fill="#4EB9F4" d="M0 69.694a5 5 0 0 1 5-5h226.669a5 5 0 0 1 5 5v19.85H0v-19.85Z"/><path fill="#fff" d="M93.848 72.733c.735 0 1.348.245 1.838.735.497.49.746 1.1.746 1.828 0 .72-.249 1.33-.746 1.827-.49.49-1.103.736-1.838.736h-1.593v2.674h-1.28v-7.8h2.873Zm0 3.922c.379 0 .69-.126.936-.379.245-.26.367-.587.367-.98 0-.394-.122-.717-.367-.97a1.23 1.23 0 0 0-.936-.39h-1.593v2.72h1.593ZM101.485 74.962h1.203v5.57h-1.203v-.802c-.453.632-1.103.947-1.95.947-.764 0-1.417-.282-1.96-.846-.541-.572-.812-1.267-.812-2.084 0-.825.27-1.519.813-2.084.542-.564 1.195-.846 1.96-.846.846 0 1.496.312 1.949.936v-.791Zm-3.018 4.066c.334.335.753.502 1.258.502s.925-.167 1.259-.502c.334-.341.501-.768.501-1.28 0-.514-.167-.937-.501-1.271-.334-.342-.754-.513-1.259-.513-.505 0-.924.171-1.258.513-.335.334-.502.757-.502 1.27s.167.94.502 1.281ZM108.522 74.962h1.181v5.314c0 .847-.279 1.497-.835 1.95-.557.454-1.233.68-2.027.68-1.285 0-2.165-.45-2.64-1.348l1.036-.602c.289.572.831.858 1.626.858.52 0 .924-.137 1.214-.412.297-.268.445-.643.445-1.126v-.68c-.453.647-1.099.97-1.938.97a2.672 2.672 0 0 1-1.993-.836 2.838 2.838 0 0 1-.813-2.039c0-.794.271-1.47.813-2.028a2.655 2.655 0 0 1 1.993-.846c.839 0 1.485.323 1.938.969v-.825Zm-3.04 3.977c.341.335.765.502 1.27.502.504 0 .924-.167 1.258-.502.342-.334.512-.75.512-1.248 0-.497-.17-.913-.512-1.248-.334-.334-.754-.501-1.258-.501-.505 0-.929.167-1.27.501-.334.335-.501.75-.501 1.248s.167.914.501 1.248ZM112.052 78.26c.089.423.293.75.612.98.319.223.709.334 1.17.334.638 0 1.117-.23 1.436-.69l.992.579c-.55.81-1.363 1.215-2.44 1.215-.905 0-1.637-.275-2.194-.825-.556-.557-.835-1.26-.835-2.106 0-.832.275-1.526.824-2.084.55-.564 1.255-.846 2.116-.846.817 0 1.485.286 2.005.858.527.572.791 1.266.791 2.083 0 .127-.015.294-.045.502h-4.432Zm-.012-.98h3.275c-.082-.454-.271-.796-.568-1.026a1.598 1.598 0 0 0-1.025-.345c-.445 0-.817.122-1.114.367-.297.245-.486.58-.568 1.003ZM120.45 72.733h1.28v7.8h-1.28v-7.8ZM126.139 74.817c.639 0 1.155.204 1.549.612.393.409.59.97.59 1.683v3.42h-1.203v-3.297c0-.416-.111-.736-.334-.959-.223-.223-.527-.334-.913-.334-.424 0-.765.134-1.025.401-.26.26-.39.661-.39 1.203v2.987h-1.203V74.96h1.203v.714c.364-.572.939-.858 1.726-.858ZM129.573 80.533v-8.134h1.203v8.134h-1.203ZM133.308 73.903a.727.727 0 0 1-.534.223.767.767 0 0 1-.546-.223.77.77 0 0 1 0-1.08.726.726 0 0 1 .546-.235c.215 0 .397.078.546.234a.73.73 0 0 1 .222.535c0 .208-.078.39-.234.546Zm-1.136 6.63V74.96h1.203v5.572h-1.203ZM137.701 74.817c.639 0 1.155.204 1.548.612.394.409.59.97.59 1.683v3.42h-1.202v-3.297c0-.416-.112-.736-.335-.959-.222-.223-.527-.334-.913-.334-.423 0-.765.134-1.024.401-.26.26-.39.661-.39 1.203v2.987h-1.203V74.96h1.203v.714c.364-.572.939-.858 1.726-.858ZM142.081 78.26c.089.423.293.75.613.98.319.223.709.334 1.169.334.639 0 1.118-.23 1.437-.69l.991.579c-.549.81-1.362 1.215-2.439 1.215-.906 0-1.637-.275-2.194-.825-.557-.557-.835-1.26-.835-2.106 0-.832.274-1.526.824-2.084.549-.564 1.255-.846 2.116-.846.817 0 1.485.286 2.005.858.527.572.79 1.266.79 2.083 0 .127-.014.294-.044.502h-4.433Zm-.011-.98h3.274c-.081-.454-.271-.796-.568-1.026a1.595 1.595 0 0 0-1.024-.345c-.446 0-.817.122-1.114.367-.297.245-.486.58-.568 1.003Z"/><defs><linearGradient id="a" x1="272.995" x2="276.125" y1="19.21" y2="474.434" gradientUnits="userSpaceOnUse"><stop stop-color="#EFF1FE"/><stop offset=".533" stop-color="#F5F6FE"/><stop offset="1" stop-color="#fff"/></linearGradient></defs></svg>