<svg xmlns="http://www.w3.org/2000/svg" width="550" height="461" fill="none"><path fill="url(#a)" d="M153.72 78.826c-8.056 8.492 5.009-9.306 0 0 56.831-93.38 216.662-98.107 288.038-43.94 66.716 59.53 111.614 145.025 108.043 228.652-3.875 90.9-28.742 162.824-111.091 182.654-38.279 9.183-74.773-1.138-106.65-20.318-25.171-15.156-58.311-13.734-82.35 4.023-9.101 6.705-19.205 12.394-30.44 16.417-25.476 9.102-48.121 6.664-57.919 5.486C84.836 442.738-.693 341.476.004 270.974.832 190.029 53.211 106.295 153.72 78.826Z"/><path fill="#fff" stroke="#E4E9ED" d="M126.5 20.033a4.5 4.5 0 0 1 4.5-4.5h380.497a4.5 4.5 0 0 1 4.5 4.5v370.843a4.5 4.5 0 0 1-4.5 4.5H131a4.5 4.5 0 0 1-4.5-4.5V20.033Z"/><g filter="url(#b)"><path fill="#0ED2AF" d="M401.027 358.898a3 3 0 0 1 3-3h88.475a3 3 0 0 1 3 3v17.672a3 3 0 0 1-3 2.999h-88.475a3 3 0 0 1-3-3v-17.671Z"/></g><path fill="#fff" d="M419.725 370.737c-.885 0-1.618-.292-2.2-.876-.583-.589-.874-1.316-.874-2.18 0-.864.291-1.588.874-2.171.582-.589 1.315-.884 2.2-.884.532 0 1.022.126 1.47.379.453.252.806.595 1.058 1.027l-.84.488a1.696 1.696 0 0 0-.689-.69 1.937 1.937 0 0 0-.999-.261c-.627 0-1.137.199-1.528.597-.387.399-.58.904-.58 1.515 0 .612.193 1.117.58 1.515.391.399.901.598 1.528.598.369 0 .705-.084 1.008-.253.302-.174.529-.406.68-.698l.84.48a2.748 2.748 0 0 1-1.05 1.035 2.965 2.965 0 0 1-1.478.379ZM423.944 367.126c.23-.522.661-.783 1.293-.783v.985a1.332 1.332 0 0 0-.907.252c-.257.186-.386.494-.386.926v2.121h-.907v-4.208h.907v.707ZM426.425 368.91c.067.32.221.567.461.741.241.168.535.252.882.252.482 0 .843-.174 1.084-.522l.747.438c-.414.612-1.027.918-1.839.918-.683 0-1.235-.208-1.655-.623-.419-.421-.629-.951-.629-1.591 0-.628.207-1.153.621-1.574.414-.426.946-.639 1.596-.639.615 0 1.119.216 1.511.648.398.432.596.956.596 1.573 0 .096-.011.222-.033.379h-3.342Zm-.009-.74h2.469c-.061-.343-.204-.601-.428-.775a1.204 1.204 0 0 0-.773-.261c-.336 0-.616.093-.84.278a1.26 1.26 0 0 0-.428.758ZM433.899 366.419h.907v4.208h-.907v-.606c-.341.477-.831.716-1.469.716a1.975 1.975 0 0 1-1.478-.64c-.409-.432-.613-.957-.613-1.574 0-.623.204-1.147.613-1.574a1.974 1.974 0 0 1 1.478-.639c.638 0 1.128.235 1.469.706v-.597Zm-2.275 3.072c.252.252.568.379.949.379.38 0 .697-.127.949-.379.251-.258.377-.581.377-.968s-.126-.707-.377-.959a1.27 1.27 0 0 0-.949-.388c-.381 0-.697.129-.949.388-.252.252-.378.572-.378.959s.126.71.378.968ZM438.207 367.294h-1.042v2.02c0 .174.039.3.118.379a.548.548 0 0 0 .344.126c.157.006.35.003.58-.008v.816c-.695.084-1.193.025-1.495-.177-.303-.207-.454-.586-.454-1.136v-2.02h-.772v-.875h.772v-.909l.907-.269v1.178h1.042v.875ZM439.571 368.91c.067.32.221.567.462.741.24.168.534.252.881.252.482 0 .843-.174 1.084-.522l.747.438c-.414.612-1.027.918-1.839.918-.683 0-1.235-.208-1.654-.623-.42-.421-.63-.951-.63-1.591 0-.628.207-1.153.621-1.574.414-.426.946-.639 1.596-.639.616 0 1.119.216 1.511.648.398.432.597.956.597 1.573 0 .096-.012.222-.034.379h-3.342Zm-.009-.74h2.469c-.061-.343-.204-.601-.428-.775a1.202 1.202 0 0 0-.773-.261c-.336 0-.615.093-.839.278a1.256 1.256 0 0 0-.429.758ZM447.86 370.737c-.566 0-1.047-.13-1.445-.388a2.04 2.04 0 0 1-.823-1.06l.832-.488c.235.662.722.993 1.461.993.364 0 .635-.07.814-.211a.683.683 0 0 0 .277-.563.603.603 0 0 0-.293-.547c-.196-.13-.543-.27-1.042-.421a7.01 7.01 0 0 1-.68-.236 3.442 3.442 0 0 1-.554-.303 1.299 1.299 0 0 1-.429-.497 1.566 1.566 0 0 1-.142-.69c0-.521.184-.934.554-1.237.369-.308.815-.463 1.335-.463.471 0 .882.115 1.235.345.352.23.624.547.814.951l-.814.472c-.247-.55-.658-.825-1.235-.825-.28 0-.504.067-.672.202a.632.632 0 0 0-.252.53c0 .219.084.393.252.522.174.123.485.255.933.395.223.073.386.13.487.169.106.033.252.09.436.168.191.079.333.157.429.236.095.078.196.177.302.294.112.118.19.253.235.404.045.152.067.323.067.514 0 .533-.193.956-.579 1.271-.381.308-.882.463-1.503.463ZM451.544 368.91c.067.32.221.567.462.741.241.168.535.252.882.252.481 0 .842-.174 1.083-.522l.747.438c-.414.612-1.027.918-1.839.918-.683 0-1.234-.208-1.654-.623-.42-.421-.63-.951-.63-1.591 0-.628.207-1.153.622-1.574.414-.426.946-.639 1.595-.639.616 0 1.12.216 1.512.648.397.432.596.956.596 1.573 0 .096-.011.222-.034.379h-3.342Zm-.008-.74h2.469c-.062-.343-.205-.601-.429-.775a1.2 1.2 0 0 0-.772-.261c-.336 0-.616.093-.84.278a1.25 1.25 0 0 0-.428.758ZM459.036 366.419h.89v4.015c0 .639-.21 1.13-.63 1.472-.42.343-.929.514-1.528.514-.969 0-1.632-.34-1.991-1.019l.781-.454c.219.432.627.648 1.227.648.391 0 .697-.104.915-.311.224-.202.336-.486.336-.85v-.514c-.342.488-.829.732-1.461.732-.594 0-1.095-.21-1.504-.631a2.148 2.148 0 0 1-.613-1.54c0-.6.205-1.111.613-1.532.409-.426.91-.639 1.504-.639.632 0 1.119.244 1.461.732v-.623Zm-2.293 3.005c.258.252.577.378.958.378.38 0 .697-.126.949-.378a1.27 1.27 0 0 0 .386-.943c0-.376-.129-.69-.386-.943a1.288 1.288 0 0 0-.949-.378c-.381 0-.7.126-.958.378a1.282 1.282 0 0 0-.378.943c0 .376.126.69.378.943ZM465.568 366.31c.476 0 .86.154 1.151.462.291.309.436.724.436 1.246v2.609h-.906v-2.55c0-.292-.073-.516-.219-.673-.145-.163-.344-.244-.596-.244-.28 0-.504.092-.672.277-.162.185-.243.463-.243.834v2.356h-.907v-2.55c0-.292-.07-.516-.21-.673-.135-.163-.328-.244-.58-.244a.867.867 0 0 0-.672.286c-.173.185-.26.46-.26.825v2.356h-.907v-4.208h.907v.505c.269-.41.669-.614 1.201-.614.537 0 .935.221 1.192.664.28-.443.709-.664 1.285-.664ZM468.84 368.91c.067.32.221.567.462.741.241.168.534.252.882.252.481 0 .842-.174 1.083-.522l.747.438c-.414.612-1.027.918-1.839.918-.683 0-1.234-.208-1.654-.623-.42-.421-.63-.951-.63-1.591 0-.628.207-1.153.621-1.574.415-.426.947-.639 1.596-.639.616 0 1.12.216 1.512.648.397.432.596.956.596 1.573 0 .096-.011.222-.034.379h-3.342Zm-.008-.74h2.469c-.062-.343-.205-.601-.429-.775a1.202 1.202 0 0 0-.772-.261c-.336 0-.616.093-.84.278a1.25 1.25 0 0 0-.428.758ZM475.223 366.31c.481 0 .87.154 1.167.462.297.309.445.733.445 1.271v2.584h-.907v-2.491c0-.314-.084-.556-.252-.724-.168-.168-.397-.252-.689-.252-.319 0-.576.101-.772.303-.196.196-.294.499-.294.909v2.255h-.907v-4.208h.907v.539c.274-.432.708-.648 1.302-.648ZM480.154 367.294h-1.041v2.02c0 .174.039.3.118.379a.548.548 0 0 0 .344.126c.157.006.35.003.579-.008v.816c-.694.084-1.192.025-1.494-.177-.303-.207-.454-.586-.454-1.136v-2.02h-.772v-.875h.772v-.909l.907-.269v1.178h1.041v.875Z"/><rect width="350.657" height="27.931" x="144.87" y="81.813" fill="#fff" stroke="#D9DDF5" rx="2.5"/><path fill="#2B3254" d="M159.762 98.785c-1.001 0-1.83-.331-2.485-.994-.655-.663-.982-1.474-.982-2.433 0-.96.327-1.771.982-2.434.655-.663 1.484-.994 2.485-.994.611 0 1.172.148 1.682.445.51.29.904.685 1.181 1.183l-.586.341a2.349 2.349 0 0 0-.926-.965c-.409-.24-.86-.36-1.351-.36-.825 0-1.499.268-2.022.805-.522.536-.784 1.196-.784 1.978 0 .783.262 1.443.784 1.98.523.536 1.197.804 2.022.804.491 0 .942-.12 1.351-.36.41-.24.718-.561.926-.965l.586.331a3.03 3.03 0 0 1-1.181 1.193 3.286 3.286 0 0 1-1.682.445ZM167.53 98.075c-.478.473-1.064.71-1.757.71a2.436 2.436 0 0 1-1.767-.71c-.478-.48-.718-1.07-.718-1.77 0-.701.24-1.288.718-1.762a2.42 2.42 0 0 1 1.767-.72c.693 0 1.279.24 1.757.72.485.474.728 1.06.728 1.761 0 .701-.243 1.291-.728 1.771Zm-3.08-.436c.359.36.8.54 1.323.54.523 0 .964-.18 1.323-.54.359-.366.538-.81.538-1.335 0-.524-.179-.965-.538-1.325a1.78 1.78 0 0 0-1.323-.55 1.78 1.78 0 0 0-1.323.55c-.359.36-.538.801-.538 1.325 0 .524.179.97.538 1.335ZM172.627 93.937h.623v4.734h-.623v-.738c-.353.568-.882.852-1.588.852-.573 0-1.026-.173-1.36-.52-.327-.354-.491-.828-.491-1.42v-2.908h.623v2.907c0 .423.111.751.331.985.227.233.545.35.954.35.454 0 .822-.142 1.106-.426.283-.29.425-.735.425-1.335v-2.48ZM175.193 94.723c.289-.574.787-.861 1.492-.861v.606c-.428 0-.784.126-1.067.378-.284.253-.425.65-.425 1.193v2.632h-.624v-4.734h.624v.786ZM177.847 95.178c0 .214.094.385.283.51.189.127.419.225.69.294.271.07.542.149.812.237.271.082.501.224.69.426.189.196.283.455.283.777 0 .404-.16.732-.481.984-.315.253-.725.38-1.229.38-.453 0-.84-.102-1.162-.304a1.625 1.625 0 0 1-.661-.786l.529-.312c.088.246.246.442.473.587.233.139.507.208.821.208.309 0 .567-.06.775-.18.208-.126.312-.319.312-.577a.587.587 0 0 0-.284-.512 2.217 2.217 0 0 0-.689-.293c-.271-.07-.542-.145-.813-.227-.271-.089-.5-.23-.689-.427-.189-.201-.284-.463-.284-.785 0-.385.151-.707.454-.966.308-.259.696-.388 1.162-.388.384 0 .721.088 1.011.265.289.17.504.404.642.7l-.52.303c-.182-.442-.56-.662-1.133-.662-.271 0-.504.066-.699.198a.613.613 0 0 0-.293.55ZM183.69 93.824c.699 0 1.262.249 1.691.748.434.492.652 1.076.652 1.751 0 .07-.007.168-.019.294h-4.148c.063.48.265.861.605 1.145.346.278.771.417 1.275.417.359 0 .668-.073.926-.218.265-.151.463-.347.595-.587l.548.322c-.208.335-.491.6-.85.796a2.523 2.523 0 0 1-1.228.293c-.743 0-1.348-.233-1.814-.7-.466-.468-.699-1.061-.699-1.78 0-.708.23-1.298.689-1.771.46-.474 1.052-.71 1.777-.71Zm0 .606c-.492 0-.904.148-1.238.445-.328.29-.523.669-.586 1.136h3.524c-.063-.499-.255-.887-.576-1.165a1.665 1.665 0 0 0-1.124-.416ZM187.331 95.178c0 .214.095.385.284.51.189.127.418.225.689.294.271.07.542.149.813.237.271.082.5.224.689.426.189.196.284.455.284.777 0 .404-.161.732-.482.984-.315.253-.724.38-1.228.38-.454 0-.841-.102-1.162-.304a1.627 1.627 0 0 1-.662-.786l.53-.312c.088.246.245.442.472.587.233.139.507.208.822.208.308 0 .567-.06.775-.18.207-.126.311-.319.311-.577a.586.586 0 0 0-.283-.512 2.233 2.233 0 0 0-.69-.293c-.271-.07-.541-.145-.812-.227a1.656 1.656 0 0 1-.69-.427c-.189-.201-.283-.463-.283-.785 0-.385.151-.707.453-.966.309-.259.696-.388 1.162-.388.384 0 .721.088 1.011.265.29.17.504.404.642.7l-.519.303c-.183-.442-.561-.662-1.134-.662-.271 0-.504.066-.699.198a.615.615 0 0 0-.293.55Z"/><path fill="#AAADC0" d="M146.915 72.48c-.566 0-1.047-.13-1.445-.388a2.047 2.047 0 0 1-.823-1.06l.832-.488c.235.662.722.993 1.461.993.364 0 .635-.07.815-.21a.688.688 0 0 0 .277-.564.606.606 0 0 0-.294-.547c-.196-.13-.543-.27-1.041-.421a7.111 7.111 0 0 1-.681-.236 3.485 3.485 0 0 1-.554-.303c-.19-.135-.333-.3-.428-.496a1.568 1.568 0 0 1-.143-.69c0-.522.185-.935.554-1.238.37-.308.815-.463 1.335-.463.471 0 .882.115 1.235.345.353.23.624.547.815.951l-.815.472c-.246-.55-.658-.825-1.235-.825-.279 0-.503.067-.671.202a.632.632 0 0 0-.252.53c0 .219.084.393.252.522.173.123.484.255.932.395.224.073.386.13.487.169.106.034.252.09.437.168.19.079.333.157.428.236.095.078.196.177.302.294a.976.976 0 0 1 .235.404c.045.152.068.323.068.514 0 .533-.194.957-.58 1.27-.381.31-.882.464-1.503.464ZM150.599 70.653c.068.32.222.567.462.74.241.17.535.253.882.253.482 0 .843-.174 1.083-.522l.748.438c-.415.612-1.028.918-1.839.918-.683 0-1.235-.208-1.655-.623-.42-.421-.63-.951-.63-1.59 0-.63.208-1.154.622-1.575.414-.426.946-.64 1.595-.64.616 0 1.12.217 1.512.649.398.432.596.956.596 1.574 0 .095-.011.221-.033.378h-3.343Zm-.008-.74h2.469c-.062-.343-.204-.6-.428-.775a1.204 1.204 0 0 0-.773-.26c-.336 0-.616.092-.84.277a1.255 1.255 0 0 0-.428.758ZM158.091 68.162h.89v4.015c0 .64-.21 1.13-.63 1.472-.419.343-.929.514-1.528.514-.969 0-1.632-.34-1.99-1.019l.781-.454c.218.432.627.648 1.226.648.392 0 .697-.104.915-.311.224-.202.336-.486.336-.85v-.514c-.341.488-.829.732-1.461.732-.594 0-1.095-.21-1.503-.63a2.145 2.145 0 0 1-.613-1.541c0-.6.204-1.111.613-1.532a2 2 0 0 1 1.503-.64c.632 0 1.12.245 1.461.733v-.623Zm-2.293 3.005c.258.252.577.378.958.378s.697-.126.949-.378c.257-.253.386-.567.386-.943s-.129-.69-.386-.943a1.286 1.286 0 0 0-.949-.378c-.381 0-.7.126-.958.378a1.284 1.284 0 0 0-.377.943c0 .376.126.69.377.943ZM164.624 68.052c.475 0 .859.155 1.15.463.291.31.437.724.437 1.246v2.61h-.907V69.82c0-.292-.073-.516-.219-.673-.145-.163-.344-.244-.596-.244-.28 0-.504.092-.672.277-.162.185-.243.463-.243.834v2.356h-.907v-2.55c0-.292-.07-.516-.21-.673-.134-.163-.328-.244-.58-.244a.865.865 0 0 0-.671.286c-.174.185-.261.46-.261.825v2.356h-.907v-4.208h.907v.505c.269-.41.669-.615 1.201-.615.538 0 .935.222 1.193.665.28-.443.708-.665 1.285-.665ZM167.895 70.653c.067.32.221.567.462.74.241.17.535.253.882.253.481 0 .842-.174 1.083-.522l.748.438c-.415.612-1.028.918-1.84.918-.683 0-1.234-.208-1.654-.623-.42-.421-.63-.951-.63-1.59 0-.63.207-1.154.622-1.575.414-.426.946-.64 1.595-.64.616 0 1.12.217 1.512.649.397.432.596.956.596 1.574 0 .095-.011.221-.033.378h-3.343Zm-.008-.74h2.469c-.062-.343-.205-.6-.429-.775a1.2 1.2 0 0 0-.772-.26c-.336 0-.616.092-.84.277a1.25 1.25 0 0 0-.428.758ZM174.278 68.052c.481 0 .87.155 1.167.463.297.31.445.733.445 1.271v2.584h-.907V69.88c0-.314-.084-.556-.252-.724-.168-.168-.397-.252-.688-.252-.319 0-.577.1-.773.303-.196.196-.294.499-.294.909v2.255h-.907v-4.208h.907v.539c.274-.432.708-.648 1.302-.648ZM179.21 69.037h-1.042v2.02c0 .174.04.3.118.379a.549.549 0 0 0 .344.126c.157.006.35.003.58-.008v.816c-.694.084-1.193.025-1.495-.177-.302-.207-.454-.586-.454-1.136v-2.02h-.772v-.875h.772v-.909l.907-.27v1.179h1.042v.875ZM185.759 66.479h.965v5.891h-.755l-2.772-3.998v3.998h-.965V66.48h.755l2.772 3.998v-3.998ZM191.165 68.162h.907v4.208h-.907v-.606c-.341.477-.831.716-1.469.716-.577 0-1.07-.214-1.478-.64-.409-.432-.613-.957-.613-1.574 0-.623.204-1.147.613-1.574.408-.426.901-.64 1.478-.64.638 0 1.128.236 1.469.707v-.597Zm-2.276 3.072c.252.252.569.379.949.379.381 0 .697-.127.949-.379a1.33 1.33 0 0 0 .378-.968c0-.387-.126-.707-.378-.96a1.27 1.27 0 0 0-.949-.387c-.38 0-.697.13-.949.388-.252.252-.378.572-.378.96 0 .386.126.709.378.967ZM197.714 68.052c.476 0 .86.155 1.151.463.291.31.437.724.437 1.246v2.61h-.907V69.82c0-.292-.073-.516-.219-.673-.145-.163-.344-.244-.596-.244-.28 0-.504.092-.672.277-.162.185-.243.463-.243.834v2.356h-.907v-2.55c0-.292-.07-.516-.21-.673-.135-.163-.328-.244-.58-.244a.865.865 0 0 0-.671.286c-.174.185-.261.46-.261.825v2.356h-.907v-4.208h.907v.505c.269-.41.669-.615 1.201-.615.538 0 .935.222 1.193.665.28-.443.708-.665 1.284-.665ZM200.986 70.653c.067.32.221.567.462.74.241.17.535.253.882.253.481 0 .842-.174 1.083-.522l.747.438c-.414.612-1.027.918-1.839.918-.683 0-1.234-.208-1.654-.623-.42-.421-.63-.951-.63-1.59 0-.63.207-1.154.622-1.575.414-.426.946-.64 1.595-.64.616 0 1.12.217 1.512.649.397.432.596.956.596 1.574 0 .095-.011.221-.034.378h-3.342Zm-.008-.74h2.469c-.062-.343-.205-.6-.429-.775a1.2 1.2 0 0 0-.772-.26c-.336 0-.616.092-.84.277a1.25 1.25 0 0 0-.428.758Z"/><path fill="#2B3254" d="m150.416 37.126-.514-1.483h-3.128l-.515 1.483h-1.312l2.667-7.364h1.448l2.656 7.364h-1.302Zm-3.243-2.62h2.33l-1.165-3.324-1.165 3.325ZM156.458 29.762h1.134v7.364h-1.134v-.757c-.427.596-1.039.894-1.837.894-.721 0-1.336-.266-1.847-.8-.511-.54-.767-1.195-.767-1.967 0-.778.256-1.434.767-1.967.511-.533 1.126-.8 1.847-.8.798 0 1.41.295 1.837.884v-2.851Zm-2.844 5.944c.314.316.71.473 1.186.473s.871-.157 1.186-.473c.315-.323.472-.726.472-1.21s-.157-.884-.472-1.2c-.315-.322-.71-.483-1.186-.483s-.872.161-1.186.484c-.315.316-.473.715-.473 1.2 0 .483.158.886.473 1.21ZM163.07 29.762h1.134v7.364h-1.134v-.757c-.427.596-1.039.894-1.837.894-.72 0-1.336-.266-1.847-.8-.511-.54-.766-1.195-.766-1.967 0-.778.255-1.434.766-1.967.511-.533 1.127-.8 1.847-.8.798 0 1.41.295 1.837.884v-2.851Zm-2.844 5.944c.315.316.71.473 1.186.473s.871-.157 1.186-.473c.315-.323.472-.726.472-1.21s-.157-.884-.472-1.2c-.315-.322-.71-.483-1.186-.483s-.871.161-1.186.484c-.315.316-.473.715-.473 1.2 0 .483.158.886.473 1.21ZM170.669 37.263c-.707 0-1.309-.161-1.805-.484a2.551 2.551 0 0 1-1.029-1.325l1.039-.61c.294.827.903 1.24 1.827 1.24.454 0 .794-.087 1.018-.262a.857.857 0 0 0 .346-.705.757.757 0 0 0-.367-.684c-.245-.161-.679-.337-1.302-.526a8.796 8.796 0 0 1-.85-.294 4.319 4.319 0 0 1-.693-.38 1.619 1.619 0 0 1-.535-.62 1.957 1.957 0 0 1-.179-.863c0-.652.231-1.167.693-1.546.462-.386 1.018-.579 1.669-.579.588 0 1.102.144 1.543.432a2.81 2.81 0 0 1 1.018 1.188l-1.018.59c-.308-.688-.822-1.032-1.543-1.032-.35 0-.63.085-.84.253a.79.79 0 0 0-.315.663.78.78 0 0 0 .315.652c.217.154.606.32 1.166.495.279.09.482.16.608.21.133.042.315.112.546.21.238.099.417.197.536.295.119.098.245.22.378.368.139.148.237.316.293.505.056.19.084.404.084.642 0 .666-.241 1.196-.724 1.589-.476.385-1.102.578-1.879.578ZM175.275 34.98c.084.4.276.709.577.926.301.21.668.316 1.102.316.602 0 1.054-.218 1.354-.653l.935.547c-.518.765-1.284 1.147-2.299 1.147-.854 0-1.543-.26-2.068-.778-.525-.526-.787-1.19-.787-1.989 0-.785.259-1.441.776-1.967.518-.533 1.183-.8 1.995-.8.77 0 1.399.27 1.889.81.497.54.746 1.196.746 1.968 0 .119-.014.277-.042.473h-4.178Zm-.011-.926h3.086c-.077-.427-.255-.75-.535-.968a1.504 1.504 0 0 0-.966-.326c-.42 0-.769.116-1.049.348-.28.231-.459.547-.536.946ZM184.639 31.866h1.113v5.018c0 .8-.262 1.414-.787 1.841-.525.428-1.162.642-1.911.642-1.21 0-2.04-.424-2.488-1.273l.977-.568c.273.54.783.81 1.532.81.49 0 .872-.13 1.144-.389.28-.253.42-.607.42-1.063v-.641c-.427.61-1.035.915-1.826.915a2.518 2.518 0 0 1-1.879-.79 2.682 2.682 0 0 1-.766-1.924c0-.75.255-1.39.766-1.915a2.502 2.502 0 0 1 1.879-.8c.791 0 1.399.305 1.826.916v-.779Zm-2.865 3.756c.322.316.72.473 1.196.473s.872-.157 1.187-.473c.321-.316.482-.708.482-1.178s-.161-.863-.482-1.179c-.315-.315-.711-.473-1.187-.473a1.64 1.64 0 0 0-1.196.473 1.602 1.602 0 0 0-.473 1.179c0 .47.158.862.473 1.178ZM192.805 31.73c.595 0 1.074.192 1.438.578.364.386.546.905.546 1.557v3.261h-1.134V33.94c0-.365-.091-.646-.273-.842-.182-.203-.43-.305-.745-.305-.35 0-.63.116-.84.347-.203.232-.304.579-.304 1.042v2.945h-1.134V33.94c0-.365-.087-.646-.262-.842-.168-.203-.41-.305-.725-.305-.343 0-.622.12-.839.358-.217.231-.326.575-.326 1.03v2.946h-1.133v-5.26h1.133v.631c.336-.512.836-.768 1.501-.768.672 0 1.169.277 1.491.831.35-.554.885-.83 1.606-.83ZM196.895 34.98c.084.4.276.709.577.926.301.21.668.316 1.102.316.602 0 1.053-.218 1.354-.653l.935.547c-.518.765-1.285 1.147-2.299 1.147-.854 0-1.543-.26-2.068-.778-.525-.526-.788-1.19-.788-1.989 0-.785.259-1.441.777-1.967.518-.533 1.183-.8 1.995-.8.769 0 1.399.27 1.889.81.497.54.745 1.196.745 1.968 0 .119-.014.277-.042.473h-4.177Zm-.011-.926h3.086c-.077-.427-.255-.75-.535-.968a1.504 1.504 0 0 0-.966-.326c-.42 0-.77.116-1.05.348-.279.231-.458.547-.535.946ZM204.873 31.73c.602 0 1.088.192 1.459.578.371.386.556.915.556 1.589v3.23h-1.133v-3.115c0-.392-.105-.694-.315-.904-.21-.21-.497-.316-.861-.316-.399 0-.721.126-.966.379-.245.245-.367.624-.367 1.136v2.82h-1.134v-5.26h1.134v.672c.343-.54.885-.81 1.627-.81ZM211.038 32.96h-1.302v2.525c0 .218.049.375.147.474.098.09.241.143.43.157.196.007.438.004.725-.01v1.02c-.868.106-1.491.032-1.869-.22-.378-.26-.567-.733-.567-1.42V32.96h-.965v-1.094h.965V30.73l1.134-.337v1.473h1.302v1.094Z"/><path fill="#DDE3E8" d="M126 52.907h390.497v.526H126z"/><rect width="350.608" height="28.931" x="144.895" y="321.18" fill="#F7F8FC" rx="3"/><path fill="#676C85" d="m171.403 338.013-.419-1.156h-2.314l-.419 1.156h-.728l1.918-5.155h.772l1.918 5.155h-.728Zm-2.498-1.796h1.844l-.926-2.541-.918 2.541ZM175.627 332.858h.64v5.155h-.64v-.633c-.318.486-.781.729-1.388.729-.515 0-.953-.186-1.316-.56a1.918 1.918 0 0 1-.544-1.377c0-.54.182-.996.544-1.369a1.757 1.757 0 0 1 1.316-.567c.607 0 1.07.243 1.388.729v-2.107Zm-1.308 4.633c.373 0 .684-.126.934-.376.249-.255.374-.57.374-.943s-.125-.685-.374-.935a1.255 1.255 0 0 0-.934-.383c-.367 0-.676.128-.925.383a1.27 1.27 0 0 0-.375.935c0 .373.125.688.375.943.249.25.558.376.925.376ZM180.277 332.858h.64v5.155h-.64v-.633c-.318.486-.781.729-1.389.729-.514 0-.952-.186-1.315-.56a1.918 1.918 0 0 1-.544-1.377c0-.54.182-.996.544-1.369a1.756 1.756 0 0 1 1.315-.567c.608 0 1.071.243 1.389.729v-2.107Zm-1.308 4.633c.373 0 .684-.126.934-.376.249-.255.374-.57.374-.943s-.125-.685-.374-.935a1.255 1.255 0 0 0-.934-.383c-.367 0-.676.128-.926.383-.249.25-.374.562-.374.935s.125.688.374.943c.25.25.559.376.926.376ZM186.75 333.506h-2.278v1.672h2.182v.648h-2.182v2.187h-.684v-5.155h2.962v.648ZM187.834 333.661a.42.42 0 0 1-.308-.125.41.41 0 0 1-.125-.302c0-.118.041-.219.125-.302a.408.408 0 0 1 .308-.133c.118 0 .218.045.302.133a.411.411 0 0 1 .124.302.413.413 0 0 1-.124.302.414.414 0 0 1-.302.125Zm-.323 4.352v-3.682h.639v3.682h-.639ZM189.126 338.013v-5.376h.639v5.376h-.639ZM192.739 334.95h-.978v1.996c0 .181.035.311.103.39.074.074.184.113.331.118.147 0 .328-.005.544-.015v.574c-.559.074-.968.03-1.227-.132-.26-.167-.39-.479-.39-.935v-1.996h-.727v-.619h.727v-.839l.639-.192v1.031h.978v.619ZM193.757 336.467c.064.329.213.584.449.766.24.181.533.272.881.272.485 0 .838-.179 1.058-.537l.544.309c-.357.555-.896.832-1.616.832-.583 0-1.059-.181-1.426-.545-.362-.368-.544-.832-.544-1.392 0-.554.179-1.016.537-1.384.357-.368.82-.552 1.389-.552.538 0 .977.191 1.315.574.343.378.514.835.514 1.37 0 .093-.007.189-.022.287h-3.079Zm1.272-1.628c-.343 0-.628.099-.853.295a1.245 1.245 0 0 0-.419.773h2.455c-.054-.348-.192-.613-.412-.795a1.175 1.175 0 0 0-.771-.273ZM198.232 334.95c.211-.457.593-.685 1.147-.685v.67a1.156 1.156 0 0 0-.809.251c-.225.181-.338.473-.338.876v1.951h-.639v-3.682h.639v.619ZM206.867 335.458v.309c0 .673-.23 1.233-.691 1.679-.46.442-1.07.663-1.829.663-.784 0-1.433-.258-1.947-.773-.51-.52-.765-1.154-.765-1.9s.255-1.377.765-1.893c.514-.52 1.158-.78 1.932-.78.475 0 .911.115 1.308.346.397.226.703.525.919.898l-.588.346a1.635 1.635 0 0 0-.669-.67 1.9 1.9 0 0 0-.977-.258c-.588 0-1.071.194-1.448.582-.377.383-.566.859-.566 1.429 0 .569.189 1.046.566 1.429.382.383.875.574 1.477.574.515 0 .931-.125 1.249-.376a1.56 1.56 0 0 0 .581-.986h-1.889v-.619h2.572ZM208.271 334.95c.211-.457.593-.685 1.147-.685v.67a1.156 1.156 0 0 0-.809.251c-.225.181-.338.473-.338.876v1.951h-.639v-3.682h.639v.619ZM212.943 337.549c-.377.374-.835.56-1.374.56-.539 0-.997-.186-1.374-.56a1.875 1.875 0 0 1-.559-1.377c0-.545.187-1.004.559-1.377a1.88 1.88 0 0 1 1.374-.559c.539 0 .997.186 1.374.559.377.373.566.832.566 1.377s-.189 1.004-.566 1.377Zm-1.374-.066c.367 0 .676-.125.926-.375.25-.251.375-.563.375-.936a1.27 1.27 0 0 0-.375-.935 1.26 1.26 0 0 0-.926-.376 1.25 1.25 0 0 0-.919.376c-.249.25-.374.562-.374.935s.125.685.374.936c.25.25.556.375.919.375ZM216.798 334.331h.639v3.682h-.639v-.53c-.26.418-.657.626-1.191.626-.431 0-.776-.135-1.036-.405-.259-.275-.389-.645-.389-1.112v-2.261h.639v2.224c0 .3.081.533.242.7.162.162.385.243.669.243.319 0 .576-.098.772-.295.196-.201.294-.508.294-.92v-1.952ZM220.438 334.236c.515 0 .953.189 1.316.567.362.373.543.829.543 1.369s-.181.999-.543 1.377c-.363.374-.801.56-1.316.56-.607 0-1.07-.243-1.389-.729v2.106h-.639v-5.155h.639v.634c.319-.486.782-.729 1.389-.729Zm-.081 3.255c.368 0 .676-.126.926-.376.25-.255.375-.57.375-.943a1.27 1.27 0 0 0-.375-.935 1.245 1.245 0 0 0-.926-.383c-.372 0-.683.128-.933.383a1.27 1.27 0 0 0-.375.935c0 .373.125.688.375.943.25.25.561.376.933.376Z"/><rect width="5.249" height="1.052" x="156.967" y="334.857" fill="#676C85" rx=".526"/><rect width="5.26" height="1.05" x="160.117" y="332.753" fill="#676C85" rx=".525" transform="rotate(90 160.117 332.753)"/><rect width="350.608" height="62.071" x="144.895" y="118.134" fill="#F7F8FC" rx="3"/><rect width="101.348" height="22.671" x="157.467" y="129.155" fill="#fff" stroke="#D9DDF5" rx="2.5"/><path fill="#2B3254" d="m247.337 142.29-1.084-1.539a1 1 0 0 1 .818-1.576h2.303a1 1 0 0 1 .783 1.621l-1.219 1.539a1 1 0 0 1-1.601-.045ZM171.831 137.492v.556h-1.805v5.336h-.588v-5.336h-1.806v-.556h4.199ZM175.444 139.175h.554v4.209h-.554v-.825c-.386.617-.952.926-1.696.926a2.094 2.094 0 0 1-1.537-.64 2.147 2.147 0 0 1-.63-1.566c0-.617.21-1.139.63-1.565.425-.426.938-.64 1.537-.64.744 0 1.31.309 1.696.926v-.825Zm-2.83 3.291c.319.32.711.48 1.176.48.464 0 .856-.16 1.175-.48.319-.325.479-.721.479-1.187 0-.465-.16-.858-.479-1.178a1.583 1.583 0 0 0-1.175-.488c-.465 0-.857.163-1.176.488-.319.32-.479.713-.479 1.178 0 .466.16.862.479 1.187ZM180.783 139.175h.554v4.04c0 .606-.207 1.083-.621 1.431-.415.348-.91.522-1.487.522-.985 0-1.649-.342-1.99-1.027l.487-.278c.252.511.753.766 1.503.766.482 0 .86-.129 1.134-.387.28-.252.42-.595.42-1.027v-.656c-.387.617-.952.926-1.697.926a2.092 2.092 0 0 1-1.536-.64 2.147 2.147 0 0 1-.63-1.566c0-.617.21-1.139.63-1.565.425-.426.937-.64 1.536-.64.745 0 1.31.309 1.697.926v-.825Zm-2.83 3.291c.319.32.711.48 1.175.48.465 0 .857-.16 1.176-.48.319-.325.479-.721.479-1.187 0-.465-.16-.858-.479-1.178a1.584 1.584 0 0 0-1.176-.488c-.464 0-.856.163-1.175.488-.319.32-.479.713-.479 1.178 0 .466.16.862.479 1.187ZM182.947 140.278a.52.52 0 0 0 .252.454c.168.113.372.2.613.261.241.062.482.132.722.211.241.073.445.199.613.378.168.174.252.404.252.691 0 .359-.142.65-.428.875-.28.224-.644.337-1.092.337-.403 0-.747-.09-1.033-.27a1.446 1.446 0 0 1-.587-.698l.47-.278c.078.219.218.393.42.522.207.123.45.185.73.185.275 0 .504-.053.689-.16a.559.559 0 0 0 .277-.513.521.521 0 0 0-.252-.455 1.992 1.992 0 0 0-.613-.261 17.689 17.689 0 0 1-.722-.202 1.465 1.465 0 0 1-.613-.379c-.168-.179-.252-.412-.252-.698 0-.342.134-.629.403-.859.274-.23.619-.345 1.033-.345.341 0 .641.079.899.236.257.152.447.359.571.623l-.462.269c-.163-.393-.499-.589-1.008-.589-.241 0-.448.059-.621.177a.545.545 0 0 0-.261.488Z"/><rect width="101.348" height="22.671" x="265.063" y="129.155" fill="#fff" stroke="#D9DDF5" rx="2.5"/><path fill="#2B3254" d="m354.933 142.29-1.083-1.539a1 1 0 0 1 .817-1.576h2.303a1 1 0 0 1 .784 1.621l-1.219 1.539a1 1 0 0 1-1.602-.045ZM277.605 143.485c-.633 0-1.159-.211-1.579-.632-.42-.426-.63-.951-.63-1.573 0-.623.21-1.145.63-1.566.42-.426.946-.64 1.579-.64a2.1 2.1 0 0 1 1.117.303c.33.197.571.463.722.8l-.454.261a1.278 1.278 0 0 0-.546-.598 1.572 1.572 0 0 0-.839-.227c-.465 0-.857.163-1.176.488-.319.32-.479.713-.479 1.179 0 .465.16.861.479 1.186.319.32.711.48 1.176.48.313 0 .593-.073.839-.219.247-.151.44-.353.58-.606l.462.27a1.951 1.951 0 0 1-.764.799 2.179 2.179 0 0 1-1.117.295ZM283.759 142.853a2.135 2.135 0 0 1-1.562.632 2.163 2.163 0 0 1-1.57-.632c-.426-.426-.638-.951-.638-1.573 0-.623.212-1.145.638-1.566a2.15 2.15 0 0 1 1.57-.64c.616 0 1.137.214 1.562.64.431.421.647.943.647 1.566 0 .622-.216 1.147-.647 1.573Zm-2.738-.387c.32.32.711.48 1.176.48.465 0 .857-.16 1.176-.48.319-.325.479-.721.479-1.186 0-.466-.16-.859-.479-1.179a1.584 1.584 0 0 0-1.176-.488c-.465 0-.856.163-1.176.488-.319.32-.478.713-.478 1.179 0 .465.159.861.478 1.186ZM287.298 139.074c.51 0 .91.158 1.201.472.297.308.445.726.445 1.254v2.584h-.554V140.8c0-.376-.101-.668-.302-.875-.196-.208-.476-.312-.84-.312-.403 0-.731.129-.983.387-.252.253-.377.646-.377 1.179v2.205h-.555v-4.209h.555v.657c.313-.505.783-.758 1.41-.758ZM292.241 139.714h-1.209v2.55c0 .23.045.396.135.497.089.095.223.146.403.151.179 0 .403-.005.671-.016v.488c-.587.089-1.03.047-1.326-.127-.292-.174-.437-.505-.437-.993v-2.55h-.882v-.539h.882v-1.01l.554-.168v1.178h1.209v.539ZM296.522 139.175h.554v4.209h-.554v-.825c-.386.617-.952.926-1.696.926a2.094 2.094 0 0 1-1.537-.64 2.144 2.144 0 0 1-.63-1.565c0-.618.21-1.139.63-1.566.425-.426.938-.64 1.537-.64.744 0 1.31.309 1.696.926v-.825Zm-2.83 3.291c.319.32.711.48 1.176.48.464 0 .856-.16 1.175-.48.319-.325.479-.721.479-1.186 0-.466-.16-.859-.479-1.179a1.583 1.583 0 0 0-1.175-.488c-.465 0-.857.163-1.176.488-.319.32-.479.713-.479 1.179 0 .465.16.861.479 1.186ZM298.812 138.165a.385.385 0 0 1-.285.118.389.389 0 0 1-.286-.118.389.389 0 0 1-.117-.286c0-.112.039-.207.117-.286a.393.393 0 0 1 .286-.118c.112 0 .207.04.285.118a.389.389 0 0 1 .118.286.386.386 0 0 1-.118.286Zm-.562 5.219v-4.209h.554v4.209h-.554ZM301.945 139.074c.51 0 .91.158 1.201.472.297.308.445.726.445 1.254v2.584h-.554V140.8c0-.376-.101-.668-.302-.875-.196-.208-.476-.312-.84-.312-.403 0-.731.129-.983.387-.252.253-.378.646-.378 1.179v2.205h-.554v-4.209h.554v.657c.314-.505.784-.758 1.411-.758ZM305.1 140.278a.52.52 0 0 0 .252.454c.168.113.372.2.613.261.24.062.481.132.722.211.241.073.445.199.613.379.168.173.252.404.252.69 0 .359-.143.651-.428.875-.28.224-.644.337-1.092.337-.403 0-.748-.09-1.033-.27a1.443 1.443 0 0 1-.588-.698l.47-.278c.079.219.219.393.42.522.207.123.451.185.731.185.274 0 .504-.053.688-.16a.56.56 0 0 0 .278-.513.521.521 0 0 0-.252-.455 2.002 2.002 0 0 0-.613-.261 16.255 16.255 0 0 1-.723-.202 1.469 1.469 0 0 1-.613-.378c-.168-.18-.252-.413-.252-.699 0-.342.135-.628.403-.858.275-.231.619-.346 1.033-.346.342 0 .641.079.899.236.257.152.448.359.571.623l-.462.269c-.162-.393-.498-.589-1.008-.589-.24 0-.447.059-.621.177a.545.545 0 0 0-.26.488Z"/><rect width="97.674" height="22.671" x="372.66" y="129.155" fill="#fff" stroke="#D9DDF5" rx="2.5"/><path fill="#2B3254" d="M386.21 140.329c.286.123.513.311.681.563.173.247.26.531.26.85 0 .455-.16.842-.479 1.162-.319.32-.705.48-1.159.48h-2.561v-5.892h2.368c.437 0 .809.157 1.117.471.308.309.462.679.462 1.111 0 .55-.229.968-.689 1.255Zm-.89-2.281h-1.78v2.053h1.78a.933.933 0 0 0 .697-.294c.196-.202.294-.446.294-.733 0-.28-.098-.521-.294-.723a.92.92 0 0 0-.697-.303Zm.193 4.78a.99.99 0 0 0 .739-.311c.208-.213.311-.472.311-.775 0-.297-.103-.552-.311-.765a.973.973 0 0 0-.739-.32h-1.973v2.171h1.973ZM390.016 139.074c.621 0 1.122.222 1.503.665.386.438.579.957.579 1.557 0 .062-.005.149-.016.261h-3.687c.056.427.235.766.537 1.019.308.247.686.37 1.134.37.319 0 .594-.065.823-.194.235-.134.412-.308.529-.521l.487.286a2.003 2.003 0 0 1-.756.707 2.242 2.242 0 0 1-1.091.261c-.661 0-1.198-.208-1.613-.623-.414-.415-.621-.943-.621-1.582 0-.629.204-1.153.613-1.574.409-.421.935-.632 1.579-.632Zm0 .539c-.437 0-.804.132-1.1.396a1.578 1.578 0 0 0-.521 1.01h3.132c-.056-.444-.226-.789-.512-1.036a1.486 1.486 0 0 0-.999-.37ZM396.591 139.175h.554v4.04c0 .606-.207 1.083-.621 1.431-.414.348-.91.522-1.487.522-.985 0-1.648-.342-1.99-1.027l.487-.278c.252.511.753.766 1.503.766.482 0 .86-.129 1.134-.387.28-.252.42-.595.42-1.027v-.656c-.386.617-.952.926-1.696.926a2.094 2.094 0 0 1-1.537-.64 2.144 2.144 0 0 1-.63-1.565c0-.618.21-1.139.63-1.566.425-.426.938-.64 1.537-.64.744 0 1.31.309 1.696.926v-.825Zm-2.83 3.291c.319.32.711.48 1.176.48.464 0 .856-.16 1.175-.48.319-.325.479-.721.479-1.186 0-.466-.16-.859-.479-1.179a1.583 1.583 0 0 0-1.175-.488c-.465 0-.857.163-1.176.488-.319.32-.479.713-.479 1.179 0 .465.16.861.479 1.186ZM398.881 138.165a.385.385 0 0 1-.285.118.389.389 0 0 1-.286-.118.389.389 0 0 1-.117-.286c0-.112.039-.207.117-.286a.393.393 0 0 1 .286-.118c.112 0 .207.04.285.118a.389.389 0 0 1 .118.286.386.386 0 0 1-.118.286Zm-.562 5.219v-4.209h.554v4.209h-.554ZM402.014 139.074c.51 0 .91.158 1.201.472.297.308.445.726.445 1.254v2.584h-.554V140.8c0-.376-.101-.668-.302-.875-.196-.208-.476-.312-.84-.312-.403 0-.731.129-.983.387-.252.253-.378.646-.378 1.179v2.205h-.554v-4.209h.554v.657c.314-.505.784-.758 1.411-.758ZM406.697 139.074c.509 0 .91.158 1.201.472.297.308.445.726.445 1.254v2.584h-.554V140.8c0-.376-.101-.668-.303-.875-.196-.208-.475-.312-.839-.312-.403 0-.731.129-.983.387-.252.253-.378.646-.378 1.179v2.205h-.554v-4.209h.554v.657c.314-.505.784-.758 1.411-.758ZM411.355 139.074c.621 0 1.122.222 1.503.665.386.438.579.957.579 1.557 0 .062-.005.149-.017.261h-3.686c.056.427.235.766.537 1.019.308.247.686.37 1.134.37.319 0 .593-.065.823-.194.235-.134.411-.308.529-.521l.487.286a2.003 2.003 0 0 1-.756.707 2.242 2.242 0 0 1-1.091.261c-.661 0-1.199-.208-1.613-.623-.414-.415-.621-.943-.621-1.582 0-.629.204-1.153.613-1.574.408-.421.935-.632 1.579-.632Zm0 .539c-.437 0-.804.132-1.101.396a1.581 1.581 0 0 0-.52 1.01h3.132c-.056-.444-.227-.789-.512-1.036a1.486 1.486 0 0 0-.999-.37ZM414.873 139.874c.258-.511.7-.766 1.327-.766v.539c-.381 0-.697.112-.949.336-.252.225-.378.578-.378 1.061v2.34h-.554v-4.209h.554v.699Z"/><path fill="#AAADC0" d="M484.088 135.922h-1.631v-.301a.894.894 0 0 0-.884-.902h-1.178a.894.894 0 0 0-.883.902v.301h-1.632a.762.762 0 0 0-.747.763v.601c0 .161.136.3.294.3h7.114a.303.303 0 0 0 .295-.3v-.601a.762.762 0 0 0-.748-.763Zm-3.987-.301c0-.162.136-.3.294-.3h1.178c.159 0 .295.138.295.3v.301h-1.767v-.301ZM477.7 138.187c-.046 0-.091.046-.091.093l.249 5.224a.884.884 0 0 0 .884.856h4.508c.476 0 .861-.37.884-.856l.249-5.224c0-.047-.045-.093-.091-.093H477.7Zm4.463.763c0-.162.136-.3.294-.3.159 0 .295.138.295.3v3.93a.303.303 0 0 1-.295.301.303.303 0 0 1-.294-.301v-3.93Zm-1.473 0c0-.162.136-.3.295-.3.158 0 .294.138.294.3v3.93a.303.303 0 0 1-.294.301.303.303 0 0 1-.295-.301v-3.93Zm-1.473 0c0-.162.136-.3.295-.3.159 0 .295.138.295.3v3.93a.303.303 0 0 1-.295.301.303.303 0 0 1-.295-.301v-3.93Z"/><path fill="#676C85" d="m171.403 167.055-.419-1.156h-2.314l-.419 1.156h-.728l1.918-5.155h.772l1.918 5.155h-.728Zm-2.498-1.797h1.844l-.926-2.541-.918 2.541ZM175.627 161.9h.64v5.155h-.64v-.634c-.318.487-.781.73-1.388.73-.515 0-.953-.187-1.316-.56a1.918 1.918 0 0 1-.544-1.377c0-.54.182-.997.544-1.37a1.757 1.757 0 0 1 1.316-.567c.607 0 1.07.243 1.388.729V161.9Zm-1.308 4.632c.373 0 .684-.125.934-.376.249-.255.374-.569.374-.942s-.125-.685-.374-.936a1.254 1.254 0 0 0-.934-.382c-.367 0-.676.127-.925.382-.25.251-.375.563-.375.936 0 .373.125.687.375.942.249.251.558.376.925.376ZM180.277 161.9h.64v5.155h-.64v-.634c-.318.487-.781.73-1.389.73-.514 0-.952-.187-1.315-.56a1.918 1.918 0 0 1-.544-1.377c0-.54.182-.997.544-1.37a1.756 1.756 0 0 1 1.315-.567c.608 0 1.071.243 1.389.729V161.9Zm-1.308 4.632c.373 0 .684-.125.934-.376.249-.255.374-.569.374-.942s-.125-.685-.374-.936a1.254 1.254 0 0 0-.934-.382c-.367 0-.676.127-.926.382a1.276 1.276 0 0 0-.374.936c0 .373.125.687.374.942.25.251.559.376.926.376ZM186.75 162.548h-2.278v1.672h2.182v.648h-2.182v2.187h-.684V161.9h2.962v.648ZM187.834 162.702a.415.415 0 0 1-.308-.125.408.408 0 0 1-.125-.302c0-.117.041-.218.125-.302a.407.407 0 0 1 .308-.132c.118 0 .218.044.302.132a.415.415 0 0 1 .124.302.411.411 0 0 1-.124.302.41.41 0 0 1-.302.125Zm-.323 4.353v-3.682h.639v3.682h-.639ZM189.126 167.055v-5.376h.639v5.376h-.639ZM192.739 163.991h-.978v1.996c0 .182.035.312.103.39.074.074.184.113.331.118.147 0 .328-.005.544-.015v.575c-.559.073-.968.029-1.227-.133-.26-.167-.39-.478-.39-.935v-1.996h-.727v-.618h.727v-.84l.639-.191v1.031h.978v.618ZM193.757 165.508c.064.329.213.585.449.766.24.182.533.273.881.273.485 0 .838-.18 1.058-.538l.544.309c-.357.555-.896.833-1.616.833-.583 0-1.059-.182-1.426-.545-.362-.369-.544-.833-.544-1.392 0-.555.179-1.017.537-1.385.357-.368.82-.552 1.389-.552.538 0 .977.191 1.315.574.343.378.514.835.514 1.37 0 .093-.007.189-.022.287h-3.079Zm1.272-1.627c-.343 0-.628.098-.853.294a1.25 1.25 0 0 0-.419.774h2.455c-.054-.349-.191-.614-.412-.796a1.18 1.18 0 0 0-.771-.272ZM198.232 163.991c.211-.456.593-.685 1.147-.685v.671a1.155 1.155 0 0 0-.809.25c-.225.182-.338.474-.338.876v1.952h-.639v-3.682h.639v.618Z"/><rect width="5.249" height="1.052" x="156.967" y="163.899" fill="#676C85" rx=".526"/><rect width="5.26" height="1.05" x="160.117" y="161.795" fill="#676C85" rx=".525" transform="rotate(90 160.117 161.795)"/><rect width="350.608" height="62.071" x="144.895" y="185.992" fill="#F7F8FC" rx="3"/><rect width="101.348" height="22.671" x="157.467" y="197.012" fill="#fff" stroke="#D9DDF5" rx="1.5"/><path fill="#2B3254" d="m247.337 210.147-1.084-1.538a1 1 0 0 1 .818-1.576h2.303a1 1 0 0 1 .783 1.621l-1.219 1.538a1 1 0 0 1-1.601-.045ZM171.831 205.35v.555h-1.805v5.336h-.588v-5.336h-1.806v-.555h4.199ZM175.444 207.033h.554v4.208h-.554v-.825c-.386.617-.952.926-1.696.926a2.09 2.09 0 0 1-1.537-.64 2.144 2.144 0 0 1-.63-1.565c0-.617.21-1.139.63-1.565a2.09 2.09 0 0 1 1.537-.64c.744 0 1.31.308 1.696.926v-.825Zm-2.83 3.291c.319.32.711.479 1.176.479.464 0 .856-.159 1.175-.479.319-.326.479-.721.479-1.187 0-.466-.16-.858-.479-1.178a1.58 1.58 0 0 0-1.175-.488 1.58 1.58 0 0 0-1.176.488c-.319.32-.479.712-.479 1.178 0 .466.16.861.479 1.187ZM180.783 207.033h.554v4.04c0 .606-.207 1.083-.621 1.431-.415.347-.91.521-1.487.521-.985 0-1.649-.342-1.99-1.026l.487-.278c.252.51.753.766 1.503.766.482 0 .86-.129 1.134-.387.28-.253.42-.595.42-1.027v-.657c-.387.617-.952.926-1.697.926a2.088 2.088 0 0 1-1.536-.64 2.144 2.144 0 0 1-.63-1.565c0-.617.21-1.139.63-1.565.425-.427.937-.64 1.536-.64.745 0 1.31.308 1.697.926v-.825Zm-2.83 3.291c.319.32.711.479 1.175.479.465 0 .857-.159 1.176-.479.319-.326.479-.721.479-1.187 0-.466-.16-.858-.479-1.178a1.58 1.58 0 0 0-1.176-.488 1.58 1.58 0 0 0-1.175.488c-.319.32-.479.712-.479 1.178 0 .466.16.861.479 1.187ZM182.947 208.135c0 .191.084.343.252.455.168.112.372.199.613.261s.482.132.722.21c.241.073.445.199.613.379.168.174.252.404.252.69 0 .359-.142.651-.428.875-.28.225-.644.337-1.092.337-.403 0-.747-.09-1.033-.269a1.453 1.453 0 0 1-.587-.699l.47-.278c.078.219.218.393.42.522.207.124.45.185.73.185.275 0 .504-.053.689-.159a.561.561 0 0 0 .277-.514.52.52 0 0 0-.252-.454 1.945 1.945 0 0 0-.613-.261 17.689 17.689 0 0 1-.722-.202 1.475 1.475 0 0 1-.613-.379c-.168-.18-.252-.412-.252-.699 0-.342.134-.628.403-.858.274-.23.619-.345 1.033-.345.341 0 .641.078.899.236a1.4 1.4 0 0 1 .571.622l-.462.27c-.163-.393-.499-.589-1.008-.589-.241 0-.448.058-.621.176a.547.547 0 0 0-.261.488Z"/><rect width="101.348" height="22.671" x="265.063" y="197.012" fill="#fff" stroke="#D9DDF5" rx="1.5"/><path fill="#2B3254" d="m354.933 210.147-1.083-1.538a1 1 0 0 1 .817-1.576h2.303a1 1 0 0 1 .784 1.621l-1.219 1.538a1 1 0 0 1-1.602-.045ZM277.605 211.342c-.633 0-1.159-.21-1.579-.631-.42-.427-.63-.951-.63-1.574 0-.623.21-1.145.63-1.566.42-.426.946-.639 1.579-.639a2.1 2.1 0 0 1 1.117.303c.33.196.571.463.722.799l-.454.261a1.28 1.28 0 0 0-.546-.597 1.564 1.564 0 0 0-.839-.228c-.465 0-.857.163-1.176.489a1.602 1.602 0 0 0-.479 1.178c0 .466.16.861.479 1.187.319.319.711.479 1.176.479.313 0 .593-.073.839-.219.247-.151.44-.353.58-.605l.462.269a1.951 1.951 0 0 1-.764.799 2.17 2.17 0 0 1-1.117.295ZM283.759 210.711a2.135 2.135 0 0 1-1.562.631c-.616 0-1.139-.21-1.57-.631-.426-.427-.638-.951-.638-1.574 0-.623.212-1.145.638-1.566a2.15 2.15 0 0 1 1.57-.639c.616 0 1.137.213 1.562.639.431.421.647.943.647 1.566 0 .623-.216 1.147-.647 1.574Zm-2.738-.387a1.6 1.6 0 0 0 1.176.479c.465 0 .857-.16 1.176-.479.319-.326.479-.721.479-1.187 0-.466-.16-.859-.479-1.178a1.581 1.581 0 0 0-1.176-.489c-.465 0-.856.163-1.176.489a1.601 1.601 0 0 0-.478 1.178c0 .466.159.861.478 1.187ZM287.298 206.932c.51 0 .91.157 1.201.471.297.309.445.727.445 1.254v2.584h-.554v-2.584c0-.376-.101-.668-.302-.875-.196-.208-.476-.312-.84-.312-.403 0-.731.129-.983.388-.252.252-.377.645-.377 1.178v2.205h-.555v-4.208h.555v.656c.313-.505.783-.757 1.41-.757ZM292.241 207.571h-1.209v2.551c0 .23.045.395.135.496.089.096.223.146.403.152.179 0 .403-.006.671-.017v.488c-.587.09-1.03.048-1.326-.126-.292-.174-.437-.505-.437-.993v-2.551h-.882v-.538h.882v-1.01l.554-.169v1.179h1.209v.538ZM296.522 207.033h.554v4.208h-.554v-.825c-.386.617-.952.926-1.696.926a2.09 2.09 0 0 1-1.537-.64 2.144 2.144 0 0 1-.63-1.565c0-.617.21-1.139.63-1.566a2.093 2.093 0 0 1 1.537-.639c.744 0 1.31.308 1.696.926v-.825Zm-2.83 3.291c.319.319.711.479 1.176.479.464 0 .856-.16 1.175-.479.319-.326.479-.721.479-1.187 0-.466-.16-.859-.479-1.178a1.58 1.58 0 0 0-1.175-.489c-.465 0-.857.163-1.176.489a1.602 1.602 0 0 0-.479 1.178c0 .466.16.861.479 1.187ZM298.812 206.023a.389.389 0 0 1-.285.118.393.393 0 0 1-.286-.118.392.392 0 0 1-.117-.286c0-.113.039-.208.117-.287a.392.392 0 0 1 .286-.117c.112 0 .207.039.285.117a.39.39 0 0 1 .118.287.389.389 0 0 1-.118.286Zm-.562 5.218v-4.208h.554v4.208h-.554ZM301.945 206.932c.51 0 .91.157 1.201.471.297.309.445.727.445 1.254v2.584h-.554v-2.584c0-.376-.101-.668-.302-.875-.196-.208-.476-.312-.84-.312-.403 0-.731.129-.983.388-.252.252-.378.645-.378 1.178v2.205h-.554v-4.208h.554v.656c.314-.505.784-.757 1.411-.757ZM305.1 208.135c0 .191.084.343.252.455.168.112.372.199.613.261.24.061.481.132.722.21.241.073.445.199.613.379.168.174.252.404.252.69 0 .359-.143.651-.428.875-.28.225-.644.337-1.092.337-.403 0-.748-.09-1.033-.269a1.45 1.45 0 0 1-.588-.699l.47-.278c.079.219.219.393.42.522.207.124.451.185.731.185.274 0 .504-.053.688-.16a.56.56 0 0 0 .278-.513.52.52 0 0 0-.252-.454 1.955 1.955 0 0 0-.613-.261 17.733 17.733 0 0 1-.723-.202 1.481 1.481 0 0 1-.613-.379c-.168-.18-.252-.413-.252-.699 0-.342.135-.628.403-.858.275-.23.619-.345 1.033-.345.342 0 .641.078.899.235.257.152.448.36.571.623l-.462.27c-.162-.393-.498-.59-1.008-.59-.24 0-.447.059-.621.177a.545.545 0 0 0-.26.488Z"/><rect width="97.674" height="22.671" x="372.66" y="197.012" fill="#fff" stroke="#D9DDF5" rx="1.5"/><path fill="#2B3254" d="m386.865 211.241-.545-1.448h-2.788l-.546 1.448h-.622l2.259-5.891h.605l2.259 5.891h-.622Zm-3.124-2.003h2.369l-1.184-3.156-1.185 3.156ZM391.687 205.35h.554v5.891h-.554v-.825c-.387.617-.952.926-1.697.926a2.088 2.088 0 0 1-1.536-.64 2.144 2.144 0 0 1-.63-1.565c0-.617.21-1.139.63-1.565.425-.427.937-.64 1.536-.64.745 0 1.31.308 1.697.926v-2.508Zm-2.83 4.974c.319.32.711.479 1.175.479.465 0 .857-.159 1.176-.479.319-.326.479-.721.479-1.187 0-.466-.16-.858-.479-1.178a1.58 1.58 0 0 0-1.176-.488 1.58 1.58 0 0 0-1.175.488c-.319.32-.479.712-.479 1.178 0 .466.16.861.479 1.187ZM396.438 207.033h.588l-1.722 4.208h-.672l-1.721-4.208h.588l1.469 3.627 1.47-3.627ZM401.143 207.033h.554v4.208h-.554v-.825c-.387.617-.952.926-1.697.926a2.092 2.092 0 0 1-1.537-.64c-.42-.426-.629-.948-.629-1.565s.209-1.139.629-1.565c.426-.427.938-.64 1.537-.64.745 0 1.31.308 1.697.926v-.825Zm-2.831 3.291c.32.32.711.479 1.176.479.465 0 .857-.159 1.176-.479.319-.326.479-.721.479-1.187 0-.466-.16-.858-.479-1.178a1.58 1.58 0 0 0-1.176-.488c-.465 0-.856.162-1.176.488-.319.32-.478.712-.478 1.178 0 .466.159.861.478 1.187ZM404.835 206.932c.51 0 .91.157 1.201.471.297.309.445.727.445 1.254v2.584h-.554v-2.584c0-.376-.101-.667-.302-.875-.196-.208-.476-.311-.84-.311-.403 0-.731.129-.983.387-.251.252-.377.645-.377 1.178v2.205h-.555v-4.208h.555v.656c.313-.505.783-.757 1.41-.757ZM409.51 211.342c-.633 0-1.159-.21-1.579-.631-.42-.427-.63-.951-.63-1.574 0-.623.21-1.145.63-1.565.42-.427.946-.64 1.579-.64a2.1 2.1 0 0 1 1.117.303c.33.196.571.463.722.799l-.454.261a1.283 1.283 0 0 0-.545-.597 1.57 1.57 0 0 0-.84-.227 1.58 1.58 0 0 0-1.176.488c-.319.32-.479.712-.479 1.178 0 .466.16.861.479 1.187.319.32.711.479 1.176.479.313 0 .593-.072.84-.218.246-.152.439-.354.579-.606l.462.269a1.947 1.947 0 0 1-.764.8 2.178 2.178 0 0 1-1.117.294ZM414.085 206.932c.622 0 1.123.222 1.504.665.386.437.579.956.579 1.557 0 .062-.005.149-.017.261h-3.686c.056.426.235.766.537 1.018.308.247.686.37 1.134.37.319 0 .593-.064.823-.193.235-.135.411-.309.529-.522l.487.286a1.995 1.995 0 0 1-.756.707 2.243 2.243 0 0 1-1.092.261c-.66 0-1.198-.208-1.612-.623-.414-.415-.621-.942-.621-1.582 0-.628.204-1.153.613-1.574.408-.421.935-.631 1.578-.631Zm0 .539c-.436 0-.803.131-1.1.395a1.584 1.584 0 0 0-.52 1.01h3.132c-.056-.443-.227-.788-.512-1.035a1.482 1.482 0 0 0-1-.37ZM420.661 205.35h.554v5.891h-.554v-.825c-.386.617-.952.926-1.697.926a2.088 2.088 0 0 1-1.536-.64 2.144 2.144 0 0 1-.63-1.565c0-.617.21-1.139.63-1.565.425-.427.937-.64 1.536-.64.745 0 1.311.308 1.697.926v-2.508Zm-2.83 4.974c.319.32.711.479 1.175.479.465 0 .857-.159 1.176-.479.319-.326.479-.721.479-1.187 0-.466-.16-.858-.479-1.178a1.58 1.58 0 0 0-1.176-.488 1.58 1.58 0 0 0-1.175.488c-.319.32-.479.712-.479 1.178 0 .466.16.861.479 1.187Z"/><path fill="#AAADC0" d="M484.088 205.01h-1.631v-.301a.894.894 0 0 0-.884-.902h-1.178a.894.894 0 0 0-.883.902v.301h-1.632a.762.762 0 0 0-.747.763v.601c0 .161.136.3.294.3h7.114a.303.303 0 0 0 .295-.3v-.601a.762.762 0 0 0-.748-.763Zm-3.987-.301c0-.162.136-.3.294-.3h1.178c.159 0 .295.138.295.3v.301h-1.767v-.301ZM477.7 207.275c-.046 0-.091.047-.091.093l.249 5.224a.884.884 0 0 0 .884.856h4.508c.476 0 .861-.37.884-.856l.249-5.224c0-.046-.045-.093-.091-.093H477.7Zm4.463.763c0-.162.136-.3.294-.3.159 0 .295.138.295.3v3.93a.303.303 0 0 1-.295.301.303.303 0 0 1-.294-.301v-3.93Zm-1.473 0c0-.162.136-.3.295-.3.158 0 .294.138.294.3v3.93a.303.303 0 0 1-.294.301.303.303 0 0 1-.295-.301v-3.93Zm-1.473 0c0-.162.136-.3.295-.3.159 0 .295.138.295.3v3.93a.303.303 0 0 1-.295.301.303.303 0 0 1-.295-.301v-3.93Z"/><path fill="#676C85" d="m171.403 234.912-.419-1.156h-2.314l-.419 1.156h-.728l1.918-5.155h.772l1.918 5.155h-.728Zm-2.498-1.797h1.844l-.926-2.54-.918 2.54ZM175.627 229.757h.64v5.155h-.64v-.633c-.318.486-.781.729-1.388.729-.515 0-.953-.187-1.316-.56a1.918 1.918 0 0 1-.544-1.377c0-.54.182-.997.544-1.37a1.757 1.757 0 0 1 1.316-.567c.607 0 1.07.243 1.388.729v-2.106Zm-1.308 4.632c.373 0 .684-.125.934-.375a1.3 1.3 0 0 0 .374-.943c0-.373-.125-.685-.374-.935a1.251 1.251 0 0 0-.934-.383c-.367 0-.676.127-.925.383a1.27 1.27 0 0 0-.375.935c0 .373.125.687.375.943.249.25.558.375.925.375ZM180.277 229.757h.64v5.155h-.64v-.633c-.318.486-.781.729-1.389.729-.514 0-.952-.187-1.315-.56a1.918 1.918 0 0 1-.544-1.377c0-.54.182-.997.544-1.37a1.756 1.756 0 0 1 1.315-.567c.608 0 1.071.243 1.389.729v-2.106Zm-1.308 4.632c.373 0 .684-.125.934-.375a1.3 1.3 0 0 0 .374-.943c0-.373-.125-.685-.374-.935a1.251 1.251 0 0 0-.934-.383c-.367 0-.676.127-.926.383-.249.25-.374.562-.374.935s.125.687.374.943c.25.25.559.375.926.375ZM186.75 230.405h-2.278v1.672h2.182v.648h-2.182v2.187h-.684v-5.155h2.962v.648ZM187.834 230.56a.42.42 0 0 1-.308-.125.412.412 0 0 1-.125-.302c0-.118.041-.219.125-.302a.404.404 0 0 1 .308-.133.4.4 0 0 1 .302.133.411.411 0 0 1 .124.302.415.415 0 0 1-.124.302.414.414 0 0 1-.302.125Zm-.323 4.352v-3.682h.639v3.682h-.639ZM189.126 234.912v-5.376h.639v5.376h-.639ZM192.739 231.849h-.978v1.995c0 .182.035.312.103.391.074.073.184.113.331.117.147 0 .328-.004.544-.014v.574c-.559.074-.968.03-1.227-.132-.26-.167-.39-.479-.39-.936v-1.995h-.727v-.619h.727v-.84l.639-.191v1.031h.978v.619ZM193.757 233.366c.064.329.213.584.449.765.24.182.533.273.881.273.485 0 .838-.179 1.058-.538l.544.31c-.357.554-.896.832-1.616.832-.583 0-1.059-.182-1.426-.545-.362-.368-.544-.832-.544-1.392 0-.555.179-1.016.537-1.384.357-.369.82-.553 1.389-.553.538 0 .977.192 1.315.575.343.378.514.834.514 1.369 0 .094-.007.189-.022.288h-3.079Zm1.272-1.628c-.343 0-.628.098-.853.295a1.245 1.245 0 0 0-.419.773h2.455c-.054-.349-.191-.614-.412-.795a1.175 1.175 0 0 0-.771-.273ZM198.232 231.849c.211-.457.593-.685 1.147-.685v.67a1.16 1.16 0 0 0-.809.25c-.225.182-.338.474-.338.877v1.951h-.639v-3.682h.639v.619Z"/><rect width="5.249" height="1.052" x="156.967" y="231.756" fill="#676C85" rx=".526"/><rect width="5.26" height="1.05" x="160.117" y="229.652" fill="#676C85" rx=".525" transform="rotate(90 160.117 229.652)"/><rect width="350.608" height="62.071" x="144.895" y="254.325" fill="#F7F8FC" rx="3"/><rect width="101.348" height="22.671" x="157.467" y="264.344" fill="#fff" stroke="#D9DDF5" rx="1.5"/><path fill="#2B3254" d="m247.337 277.478-1.084-1.538a1 1 0 0 1 .818-1.576h2.303a1 1 0 0 1 .783 1.621l-1.219 1.539a1 1 0 0 1-1.601-.046ZM171.831 272.681v.556h-1.805v5.336h-.588v-5.336h-1.806v-.556h4.199ZM175.444 274.364h.554v4.209h-.554v-.825c-.386.617-.952.926-1.696.926a2.094 2.094 0 0 1-1.537-.64 2.147 2.147 0 0 1-.63-1.566c0-.617.21-1.139.63-1.565.425-.426.938-.64 1.537-.64.744 0 1.31.309 1.696.926v-.825Zm-2.83 3.291c.319.32.711.48 1.176.48.464 0 .856-.16 1.175-.48.319-.325.479-.721.479-1.187 0-.465-.16-.858-.479-1.178a1.583 1.583 0 0 0-1.175-.488c-.465 0-.857.163-1.176.488-.319.32-.479.713-.479 1.178 0 .466.16.862.479 1.187ZM180.783 274.364h.554v4.04c0 .606-.207 1.083-.621 1.431-.415.348-.91.522-1.487.522-.985 0-1.649-.342-1.99-1.027l.487-.278c.252.511.753.766 1.503.766.482 0 .86-.129 1.134-.387.28-.252.42-.595.42-1.027v-.656c-.387.617-.952.926-1.697.926a2.092 2.092 0 0 1-1.536-.64 2.147 2.147 0 0 1-.63-1.566c0-.617.21-1.139.63-1.565.425-.426.937-.64 1.536-.64.745 0 1.31.309 1.697.926v-.825Zm-2.83 3.291c.319.32.711.48 1.175.48.465 0 .857-.16 1.176-.48.319-.325.479-.721.479-1.187 0-.465-.16-.858-.479-1.178a1.584 1.584 0 0 0-1.176-.488c-.464 0-.856.163-1.175.488-.319.32-.479.713-.479 1.178 0 .466.16.862.479 1.187ZM182.947 275.467a.52.52 0 0 0 .252.454c.168.113.372.2.613.261.241.062.482.132.722.211.241.073.445.199.613.378.168.174.252.404.252.691 0 .359-.142.65-.428.875-.28.224-.644.337-1.092.337-.403 0-.747-.09-1.033-.27a1.446 1.446 0 0 1-.587-.698l.47-.278c.078.219.218.393.42.522.207.123.45.185.73.185.275 0 .504-.053.689-.16a.559.559 0 0 0 .277-.513.521.521 0 0 0-.252-.455 1.992 1.992 0 0 0-.613-.261 17.689 17.689 0 0 1-.722-.202 1.465 1.465 0 0 1-.613-.379c-.168-.179-.252-.412-.252-.698 0-.342.134-.629.403-.859.274-.23.619-.345 1.033-.345.341 0 .641.079.899.236.257.151.447.359.571.623l-.462.269c-.163-.393-.499-.589-1.008-.589-.241 0-.448.059-.621.177a.545.545 0 0 0-.261.488Z"/><rect width="101.348" height="22.671" x="265.063" y="264.344" fill="#fff" stroke="#D9DDF5" rx="1.5"/><path fill="#2B3254" d="m354.933 277.478-1.083-1.538a1 1 0 0 1 .817-1.576h2.303a1 1 0 0 1 .784 1.621l-1.219 1.539a1 1 0 0 1-1.602-.046ZM277.605 278.673c-.633 0-1.159-.21-1.579-.631-.42-.426-.63-.951-.63-1.574 0-.623.21-1.144.63-1.565.42-.427.946-.64 1.579-.64a2.1 2.1 0 0 1 1.117.303c.33.197.571.463.722.8l-.454.261a1.278 1.278 0 0 0-.546-.598 1.572 1.572 0 0 0-.839-.227c-.465 0-.857.163-1.176.488-.319.32-.479.713-.479 1.178 0 .466.16.862.479 1.187.319.32.711.48 1.176.48.313 0 .593-.073.839-.219a1.63 1.63 0 0 0 .58-.606l.462.269a1.954 1.954 0 0 1-.764.8 2.178 2.178 0 0 1-1.117.294ZM283.759 278.042a2.135 2.135 0 0 1-1.562.631c-.616 0-1.139-.21-1.57-.631-.426-.426-.638-.951-.638-1.574 0-.623.212-1.144.638-1.565.431-.427.954-.64 1.57-.64a2.12 2.12 0 0 1 1.562.64c.431.421.647.942.647 1.565s-.216 1.148-.647 1.574Zm-2.738-.387c.32.32.711.48 1.176.48.465 0 .857-.16 1.176-.48.319-.325.479-.721.479-1.187 0-.465-.16-.858-.479-1.178a1.584 1.584 0 0 0-1.176-.488c-.465 0-.856.163-1.176.488-.319.32-.478.713-.478 1.178 0 .466.159.862.478 1.187ZM287.298 274.263c.51 0 .91.157 1.201.472.297.308.445.726.445 1.254v2.583h-.554v-2.583c0-.376-.101-.668-.302-.876-.196-.207-.476-.311-.84-.311-.403 0-.731.129-.983.387-.252.252-.377.645-.377 1.178v2.205h-.555v-4.208h.555v.657c.313-.505.783-.758 1.41-.758ZM292.241 274.903h-1.209v2.55c0 .23.045.396.135.497.089.095.223.145.403.151.179 0 .403-.006.671-.017v.488c-.587.09-1.03.048-1.326-.126-.292-.174-.437-.505-.437-.993v-2.55h-.882v-.539h.882v-1.01l.554-.168v1.178h1.209v.539ZM296.522 274.364h.554v4.208h-.554v-.824c-.386.617-.952.925-1.696.925a2.093 2.093 0 0 1-1.537-.639 2.148 2.148 0 0 1-.63-1.566c0-.617.21-1.139.63-1.565a2.09 2.09 0 0 1 1.537-.64c.744 0 1.31.309 1.696.926v-.825Zm-2.83 3.291c.319.32.711.48 1.176.48.464 0 .856-.16 1.175-.48.319-.325.479-.721.479-1.187 0-.465-.16-.858-.479-1.178a1.583 1.583 0 0 0-1.175-.488c-.465 0-.857.163-1.176.488-.319.32-.479.713-.479 1.178 0 .466.16.862.479 1.187ZM298.812 273.354a.385.385 0 0 1-.285.118.389.389 0 0 1-.286-.118.39.39 0 0 1-.117-.286.39.39 0 0 1 .117-.286.389.389 0 0 1 .286-.118c.112 0 .207.039.285.118a.387.387 0 0 1 .118.286.387.387 0 0 1-.118.286Zm-.562 5.218v-4.208h.554v4.208h-.554ZM301.945 274.263c.51 0 .91.157 1.201.472.297.308.445.726.445 1.254v2.583h-.554v-2.583c0-.376-.101-.668-.302-.876-.196-.207-.476-.311-.84-.311-.403 0-.731.129-.983.387-.252.252-.378.645-.378 1.178v2.205h-.554v-4.208h.554v.657c.314-.505.784-.758 1.411-.758ZM305.1 275.467a.52.52 0 0 0 .252.454c.168.112.372.199.613.261.24.062.481.132.722.211.241.072.445.199.613.378.168.174.252.404.252.69 0 .36-.143.651-.428.876-.28.224-.644.336-1.092.336-.403 0-.748-.089-1.033-.269a1.44 1.44 0 0 1-.588-.699l.47-.277c.079.219.219.393.42.522.207.123.451.185.731.185.274 0 .504-.054.688-.16a.56.56 0 0 0 .278-.514.521.521 0 0 0-.252-.454 2.002 2.002 0 0 0-.613-.261 17.733 17.733 0 0 1-.723-.202 1.481 1.481 0 0 1-.613-.379c-.168-.179-.252-.412-.252-.698 0-.343.135-.629.403-.859.275-.23.619-.345 1.033-.345.342 0 .641.079.899.236.257.151.448.359.571.623l-.462.269c-.162-.393-.498-.589-1.008-.589-.24 0-.447.059-.621.177a.545.545 0 0 0-.26.488Z"/><rect width="97.674" height="22.671" x="372.66" y="264.344" fill="#fff" stroke="#D9DDF5" rx="1.5"/><path fill="#2B3254" d="M383.54 278.017h2.855v.556h-3.443v-5.892h3.401v.556h-2.813v2.087h2.603v.555h-2.603v2.138ZM390.848 278.573h-.663l-1.31-1.734-1.31 1.734h-.664l1.646-2.18-1.536-2.029h.663l1.201 1.591 1.201-1.591h.663l-1.528 2.029 1.637 2.18ZM393.853 274.263c.599 0 1.108.214 1.528.64.426.426.638.948.638 1.565a2.13 2.13 0 0 1-.638 1.566c-.42.426-.929.64-1.528.64-.745 0-1.31-.309-1.697-.926v2.508h-.554v-5.892h.554v.825c.387-.617.952-.926 1.697-.926Zm-1.218 3.392c.319.32.711.48 1.176.48a1.6 1.6 0 0 0 1.176-.48c.319-.325.478-.721.478-1.187 0-.465-.159-.858-.478-1.178a1.587 1.587 0 0 0-1.176-.488c-.465 0-.857.163-1.176.488-.319.32-.479.713-.479 1.178 0 .466.16.862.479 1.187ZM398.881 274.263c.621 0 1.122.222 1.503.665a2.278 2.278 0 0 1 .563 1.818h-3.687c.056.427.235.766.538 1.019.308.246.685.37 1.133.37.319 0 .594-.065.823-.194.235-.134.412-.308.529-.522l.487.287a1.993 1.993 0 0 1-.755.707 2.243 2.243 0 0 1-1.092.261c-.661 0-1.198-.208-1.612-.623-.415-.416-.622-.943-.622-1.583 0-.628.204-1.153.613-1.573.409-.421.935-.632 1.579-.632Zm0 .539c-.437 0-.803.132-1.1.396a1.583 1.583 0 0 0-.521 1.01h3.133c-.056-.444-.227-.789-.513-1.036a1.477 1.477 0 0 0-.999-.37ZM402.399 275.063c.258-.511.7-.766 1.327-.766v.539c-.38 0-.697.112-.949.336-.252.225-.378.578-.378 1.061v2.34h-.554v-4.209h.554v.699ZM406.793 274.903h-1.209v2.55c0 .23.045.396.134.497.09.095.224.146.404.151.179 0 .403-.005.671-.017v.489c-.588.089-1.03.047-1.327-.127-.291-.174-.436-.505-.436-.993v-2.55h-.882v-.539h.882v-1.01l.554-.168v1.178h1.209v.539Z"/><path fill="#AAADC0" d="M484.088 273.562h-1.631v-.301a.894.894 0 0 0-.884-.901h-1.178a.893.893 0 0 0-.883.901v.301h-1.632a.762.762 0 0 0-.747.763v.601c0 .162.136.3.294.3h7.114a.303.303 0 0 0 .295-.3v-.601a.762.762 0 0 0-.748-.763Zm-3.987-.301c0-.161.136-.3.294-.3h1.178c.159 0 .295.139.295.3v.301h-1.767v-.301ZM477.7 275.828c-.046 0-.091.046-.091.092l.249 5.225a.884.884 0 0 0 .884.855h4.508c.476 0 .861-.37.884-.855l.249-5.225c0-.046-.045-.092-.091-.092H477.7Zm4.463.763c0-.162.136-.301.294-.301.159 0 .295.139.295.301v3.93c0 .161-.136.3-.295.3a.303.303 0 0 1-.294-.3v-3.93Zm-1.473 0c0-.162.136-.301.295-.301.158 0 .294.139.294.301v3.93c0 .161-.136.3-.294.3a.303.303 0 0 1-.295-.3v-3.93Zm-1.473 0c0-.162.136-.301.295-.301.159 0 .295.139.295.301v3.93c0 .161-.136.3-.295.3a.303.303 0 0 1-.295-.3v-3.93Z"/><path fill="#676C85" d="m171.403 302.244-.419-1.157h-2.314l-.419 1.157h-.728l1.918-5.155h.772l1.918 5.155h-.728Zm-2.498-1.797h1.844l-.926-2.541-.918 2.541ZM175.627 297.089h.64v5.155h-.64v-.634c-.318.486-.781.729-1.388.729-.515 0-.953-.186-1.316-.559a1.918 1.918 0 0 1-.544-1.377c0-.54.182-.997.544-1.37a1.757 1.757 0 0 1 1.316-.567c.607 0 1.07.243 1.388.729v-2.106Zm-1.308 4.632c.373 0 .684-.125.934-.376.249-.255.374-.569.374-.942 0-.374-.125-.685-.374-.936a1.255 1.255 0 0 0-.934-.383c-.367 0-.676.128-.925.383-.25.251-.375.562-.375.936 0 .373.125.687.375.942.249.251.558.376.925.376ZM180.277 297.089h.64v5.155h-.64v-.634c-.318.486-.781.729-1.389.729-.514 0-.952-.186-1.315-.559a1.918 1.918 0 0 1-.544-1.377c0-.54.182-.997.544-1.37a1.756 1.756 0 0 1 1.315-.567c.608 0 1.071.243 1.389.729v-2.106Zm-1.308 4.632c.373 0 .684-.125.934-.376.249-.255.374-.569.374-.942 0-.374-.125-.685-.374-.936a1.255 1.255 0 0 0-.934-.383c-.367 0-.676.128-.926.383a1.275 1.275 0 0 0-.374.936c0 .373.125.687.374.942.25.251.559.376.926.376ZM186.75 297.737h-2.278v1.671h2.182v.648h-2.182v2.188h-.684v-5.155h2.962v.648ZM187.834 297.891a.415.415 0 0 1-.308-.125.408.408 0 0 1-.125-.302.41.41 0 0 1 .125-.302.407.407 0 0 1 .308-.132c.118 0 .218.044.302.132a.413.413 0 0 1 .124.302.411.411 0 0 1-.124.302.41.41 0 0 1-.302.125Zm-.323 4.353v-3.683h.639v3.683h-.639ZM189.126 302.244v-5.376h.639v5.376h-.639ZM192.739 299.18h-.978v1.996c0 .181.035.312.103.39.074.074.184.113.331.118.147 0 .328-.005.544-.015v.575c-.559.073-.968.029-1.227-.133-.26-.167-.39-.479-.39-.935v-1.996h-.727v-.619h.727v-.839l.639-.192v1.031h.978v.619ZM193.757 300.697c.064.329.213.584.449.766.24.182.533.273.881.273.485 0 .838-.18 1.058-.538l.544.309c-.357.555-.896.832-1.616.832-.583 0-1.059-.181-1.426-.545-.362-.368-.544-.832-.544-1.391 0-.555.179-1.017.537-1.385.357-.368.82-.552 1.389-.552.538 0 .977.191 1.315.574.343.378.514.835.514 1.37 0 .093-.007.189-.022.287h-3.079Zm1.272-1.627c-.343 0-.628.098-.853.294a1.247 1.247 0 0 0-.419.773h2.455c-.054-.348-.191-.613-.412-.795a1.174 1.174 0 0 0-.771-.272ZM198.232 299.18c.211-.457.593-.685 1.147-.685v.67a1.16 1.16 0 0 0-.809.251c-.225.181-.338.474-.338.876v1.952h-.639v-3.683h.639v.619Z"/><rect width="5.249" height="1.052" x="156.967" y="299.087" fill="#676C85" rx=".526"/><rect width="5.26" height="1.05" x="160.117" y="296.983" fill="#676C85" rx=".525" transform="rotate(90 160.117 296.983)"/><path fill="#fff" stroke="#DDE3E8" d="M16.5 318.694a4.5 4.5 0 0 1 4.5-4.5h390a4.5 4.5 0 0 1 4.5 4.5v136.31a4.5 4.5 0 0 1-4.5 4.5H21a4.5 4.5 0 0 1-4.5-4.5v-136.31Z"/><path fill="#676C85" d="M33.81 399.135c.25.12.447.291.592.515.15.224.226.481.226.773 0 .437-.153.803-.46 1.1-.306.296-.68.445-1.12.445h-2.352v-5.463h2.18c.425 0 .786.143 1.082.43.296.286.444.639.444 1.061 0 .484-.197.863-.592 1.139Zm-.934-1.951H31.42v1.67h1.456c.228 0 .42-.08.576-.242a.821.821 0 0 0 .234-.593.797.797 0 0 0-.242-.585.751.751 0 0 0-.568-.25Zm.171 4.105a.821.821 0 0 0 .615-.258.873.873 0 0 0 .25-.632.852.852 0 0 0-.258-.624.812.812 0 0 0-.607-.258H31.42v1.772h1.627ZM35.914 400.329c.067.349.225.619.475.811.254.193.565.289.934.289.514 0 .888-.19 1.121-.569l.576.327c-.379.588-.95.882-1.713.882-.617 0-1.12-.192-1.51-.577-.384-.391-.576-.882-.576-1.475 0-.588.19-1.077.568-1.467.379-.39.87-.585 1.472-.585.57 0 1.035.202 1.393.608.364.401.545.885.545 1.452 0 .098-.008.2-.023.304h-3.262Zm1.347-1.725c-.364 0-.665.105-.904.313a1.317 1.317 0 0 0-.443.819h2.6c-.057-.369-.202-.65-.436-.843a1.25 1.25 0 0 0-.817-.289ZM43.202 398.066h.669v3.738c0 .577-.195 1.025-.584 1.342-.39.322-.856.484-1.401.484-.436 0-.813-.084-1.13-.25a1.612 1.612 0 0 1-.716-.702l.592-.336c.213.437.636.656 1.27.656.404 0 .72-.107.95-.32.233-.214.35-.505.35-.874v-.554c-.343.52-.831.78-1.464.78a1.89 1.89 0 0 1-1.41-.593 1.995 1.995 0 0 1-.576-1.444c0-.567.192-1.045.576-1.435a1.887 1.887 0 0 1 1.41-.593c.638 0 1.126.257 1.464.772v-.671Zm-2.375 2.918c.265.266.594.398.989.398.394 0 .724-.132.988-.398.265-.265.398-.595.398-.991 0-.39-.133-.717-.398-.983a1.342 1.342 0 0 0-.988-.398c-.395 0-.724.133-.99.398a1.338 1.338 0 0 0-.396.983c0 .396.132.726.397.991ZM45.24 397.356a.442.442 0 0 1-.327-.133.436.436 0 0 1-.132-.32.44.44 0 0 1 .132-.32.433.433 0 0 1 .327-.14c.124 0 .23.047.32.14a.439.439 0 0 1 .131.32.436.436 0 0 1-.132.32.433.433 0 0 1-.32.133Zm-.343 4.612v-3.902h.678v3.902h-.678ZM48.547 397.965c.457 0 .823.145 1.098.437.275.286.412.676.412 1.17v2.396h-.677v-2.357c0-.317-.086-.562-.257-.733-.171-.177-.407-.266-.709-.266-.337 0-.61.107-.817.32-.208.208-.312.531-.312.968v2.068h-.677v-3.902h.678v.562c.275-.442.695-.663 1.26-.663ZM52.941 397.965c.457 0 .823.145 1.098.437.276.286.413.676.413 1.17v2.396h-.677v-2.357c0-.317-.086-.562-.257-.733-.172-.177-.408-.266-.709-.266-.337 0-.61.107-.817.32-.208.208-.312.531-.312.968v2.068h-.677v-3.902h.677v.562c.275-.442.696-.663 1.261-.663ZM55.873 400.329c.067.349.225.619.474.811.255.193.566.289.935.289.514 0 .887-.19 1.121-.569l.576.327c-.379.588-.95.882-1.713.882-.617 0-1.12-.192-1.51-.577-.384-.391-.576-.882-.576-1.475 0-.588.19-1.077.568-1.467.379-.39.87-.585 1.471-.585.572 0 1.036.202 1.394.608.364.401.545.885.545 1.452 0 .098-.008.2-.023.304h-3.262Zm1.346-1.725c-.363 0-.664.105-.903.313a1.316 1.316 0 0 0-.443.819h2.6c-.057-.369-.202-.65-.436-.843a1.25 1.25 0 0 0-.818-.289ZM60.614 398.722c.223-.484.628-.726 1.215-.726v.71a1.225 1.225 0 0 0-.857.265c-.238.193-.358.502-.358.929v2.068h-.677v-3.902h.677v.656Z"/><path fill="#FBFBFD" d="M17.487 411.234h397.03v24.385H17.487z"/><path fill="#676C85" d="m34.024 425.377-.416-1.148H31.31l-.416 1.148h-.723l1.905-5.121h.767l1.905 5.121h-.723Zm-2.481-1.785h1.832l-.92-2.524-.912 2.524ZM38.22 420.256h.636v5.121h-.636v-.629c-.316.483-.776.724-1.38.724-.51 0-.946-.185-1.306-.556a1.902 1.902 0 0 1-.54-1.368c0-.536.18-.99.54-1.36.36-.376.796-.564 1.307-.564.603 0 1.063.242 1.38.725v-2.093Zm-1.299 4.602c.37 0 .679-.125.927-.373.248-.254.373-.566.373-.937 0-.37-.125-.68-.373-.929a1.246 1.246 0 0 0-.927-.38c-.365 0-.671.127-.92.38a1.264 1.264 0 0 0-.372.929c0 .371.124.683.373.937.248.248.554.373.92.373ZM42.372 421.719h.687l-1.46 3.658h-.745l-1.46-3.658h.686l1.146 2.978 1.146-2.978ZM46.475 421.719h.635v3.658h-.635v-.629c-.316.483-.776.724-1.38.724-.51 0-.946-.185-1.306-.556a1.902 1.902 0 0 1-.54-1.368c0-.536.18-.99.54-1.36.36-.376.795-.564 1.306-.564.604 0 1.064.242 1.38.725v-.63Zm-1.3 3.139c.37 0 .68-.125.928-.373.248-.254.372-.566.372-.937 0-.37-.124-.68-.372-.929a1.246 1.246 0 0 0-.927-.38c-.365 0-.672.127-.92.38a1.264 1.264 0 0 0-.372.929c0 .371.124.683.372.937.248.248.555.373.92.373ZM49.89 421.624c.428 0 .77.137 1.029.41.258.268.387.634.387 1.097v2.246h-.635v-2.209c0-.298-.08-.527-.241-.688-.16-.166-.382-.248-.664-.248-.317 0-.572.1-.767.299-.195.196-.292.498-.292.908v1.938h-.635v-3.658h.635v.527c.258-.414.652-.622 1.183-.622ZM53.907 425.472c-.55 0-1.007-.183-1.372-.548-.365-.371-.547-.829-.547-1.376 0-.546.182-1.002.547-1.368.365-.37.823-.556 1.373-.556.36 0 .683.088.97.264.287.17.502.402.643.695l-.533.307a1.077 1.077 0 0 0-.43-.468 1.213 1.213 0 0 0-.65-.176 1.25 1.25 0 0 0-.92.373 1.277 1.277 0 0 0-.365.929c0 .366.122.673.365.922.248.249.555.373.92.373.243 0 .462-.056.657-.168.194-.117.343-.273.445-.468l.54.314c-.156.288-.38.52-.672.695a1.885 1.885 0 0 1-.97.256ZM56.572 423.841c.063.327.212.58.445.761.239.18.53.27.876.27.482 0 .832-.178 1.051-.534l.54.308c-.355.551-.89.826-1.605.826-.58 0-1.051-.18-1.416-.541-.36-.366-.54-.827-.54-1.383 0-.551.177-1.009.532-1.375.356-.366.816-.549 1.38-.549.535 0 .97.191 1.307.571.34.375.51.829.51 1.361 0 .092-.007.187-.021.285h-3.059Zm1.263-1.617c-.34 0-.623.098-.847.293-.224.19-.362.446-.416.768h2.438c-.053-.346-.19-.61-.409-.79a1.166 1.166 0 0 0-.766-.271ZM63.397 420.256h.635v5.121h-.635v-.629c-.316.483-.776.724-1.38.724-.51 0-.946-.185-1.306-.556a1.902 1.902 0 0 1-.54-1.368c0-.536.18-.99.54-1.36.36-.376.796-.564 1.307-.564.603 0 1.063.242 1.38.725v-2.093Zm-1.299 4.602c.37 0 .679-.125.927-.373.248-.254.372-.566.372-.937 0-.37-.124-.68-.372-.929a1.246 1.246 0 0 0-.927-.38c-.365 0-.672.127-.92.38a1.264 1.264 0 0 0-.372.929c0 .371.124.683.372.937.248.248.555.373.92.373Z"/><path fill="#F7F8FC" fill-opacity=".5" stroke="#DDE3E8" d="M16.5 362.964h399v23.385h-399v-23.385Z"/><path fill="#676C85" d="M33.688 371.34v.751h-1.342v4.028h-.783v-4.028h-1.35v-.751h3.475ZM36.306 372.705h.736v3.414h-.736v-.491c-.277.387-.675.58-1.192.58a1.6 1.6 0 0 1-1.2-.519 1.789 1.789 0 0 1-.497-1.277c0-.505.166-.931.497-1.276a1.6 1.6 0 0 1 1.2-.519c.517 0 .915.191 1.192.573v-.485Zm-1.846 2.493c.204.204.46.307.77.307.308 0 .565-.103.77-.307.203-.21.306-.472.306-.786 0-.314-.102-.573-.307-.778a1.032 1.032 0 0 0-.77-.314c-.309 0-.565.105-.77.314a1.056 1.056 0 0 0-.306.778c0 .314.102.576.306.786ZM40.61 372.705h.723v3.257c0 .519-.17.917-.511 1.195-.34.278-.754.417-1.24.417-.786 0-1.324-.276-1.615-.827l.634-.368c.177.35.508.525.994.525.318 0 .566-.084.743-.252.182-.164.273-.394.273-.69v-.416c-.277.396-.673.594-1.186.594-.481 0-.888-.171-1.22-.512a1.743 1.743 0 0 1-.497-1.25c0-.487.166-.901.498-1.242a1.624 1.624 0 0 1 1.22-.519c.512 0 .907.198 1.184.594v-.506Zm-1.86 2.438c.21.205.468.307.777.307.31 0 .566-.102.77-.307.209-.205.314-.46.314-.765s-.105-.56-.314-.765a1.046 1.046 0 0 0-.77-.307c-.309 0-.567.103-.776.307a1.04 1.04 0 0 0-.307.765c0 .305.102.56.307.765ZM46.802 371.34h.784v4.779h-.613l-2.248-3.243v3.243h-.784v-4.779h.613l2.248 3.243v-3.243ZM51.188 372.705h.736v3.414h-.736v-.491c-.277.387-.674.58-1.192.58a1.6 1.6 0 0 1-1.199-.519 1.789 1.789 0 0 1-.497-1.277c0-.505.166-.931.497-1.276a1.6 1.6 0 0 1 1.2-.519c.517 0 .914.191 1.191.573v-.485Zm-1.846 2.493c.205.204.461.307.77.307s.566-.103.77-.307c.204-.21.306-.472.306-.786 0-.314-.102-.573-.306-.778a1.033 1.033 0 0 0-.77-.314c-.309 0-.565.105-.77.314a1.056 1.056 0 0 0-.306.778c0 .314.102.576.306.786ZM56.502 372.617c.386 0 .697.125.933.375.236.251.354.587.354 1.011v2.116h-.736v-2.069c0-.236-.059-.418-.177-.546a.616.616 0 0 0-.483-.198.698.698 0 0 0-.546.226c-.131.15-.197.375-.197.676v1.911h-.736v-2.069c0-.236-.057-.418-.17-.546-.11-.132-.266-.198-.47-.198a.706.706 0 0 0-.545.232c-.141.151-.211.374-.211.67v1.911h-.736v-3.414h.736v.41c.218-.332.542-.498.974-.498.436 0 .758.179.967.539.227-.36.575-.539 1.042-.539ZM59.156 374.726c.054.26.179.46.374.601.196.137.434.205.716.205.39 0 .683-.141.878-.423l.607.355c-.336.496-.834.744-1.492.744-.554 0-1.002-.168-1.342-.505-.34-.342-.511-.772-.511-1.291 0-.509.168-.935.504-1.276.336-.346.767-.519 1.294-.519.5 0 .909.175 1.227.525.322.351.483.776.483 1.277 0 .078-.009.18-.027.307h-2.711Zm-.007-.6h2.003c-.05-.278-.166-.487-.348-.629a.976.976 0 0 0-.627-.211c-.272 0-.5.075-.68.225-.182.15-.298.355-.348.615ZM31.338 448.631h2.372v.643h-3.05v-5.121h3.014v.644h-2.336v1.573h2.153v.636h-2.153v1.625ZM37.632 449.274h-.744l-1.022-1.382-1.03 1.382h-.744l1.401-1.88-1.32-1.777h.75l.943 1.272.941-1.272h.745l-1.314 1.77 1.394 1.887ZM40.235 445.521c.511 0 .947.188 1.307.564.36.37.54.824.54 1.36 0 .537-.18.993-.54 1.368-.36.371-.796.556-1.307.556-.603 0-1.063-.241-1.38-.724v2.092h-.634v-5.12h.635v.629c.316-.483.776-.725 1.38-.725Zm-.08 3.234c.365 0 .672-.124.92-.373.248-.254.372-.566.372-.937 0-.37-.124-.68-.372-.929a1.238 1.238 0 0 0-.92-.38c-.37 0-.679.127-.927.38a1.264 1.264 0 0 0-.372.929c0 .371.124.683.372.937.248.249.557.373.927.373ZM43.285 447.738c.063.327.212.58.445.761.239.18.53.27.876.27.482 0 .832-.178 1.051-.534l.54.308c-.355.551-.89.826-1.605.826-.58 0-1.051-.18-1.416-.541-.36-.366-.54-.827-.54-1.383 0-.551.177-1.009.532-1.375.355-.366.815-.549 1.38-.549.535 0 .97.191 1.306.571.341.376.511.829.511 1.361 0 .092-.007.187-.022.285h-3.058Zm1.263-1.617c-.34 0-.623.098-.847.293-.224.19-.362.446-.416.768h2.438c-.054-.346-.19-.61-.409-.79a1.172 1.172 0 0 0-.766-.271ZM47.73 446.231c.21-.454.59-.68 1.139-.68v.665a1.154 1.154 0 0 0-.803.249c-.224.181-.336.471-.336.871v1.938h-.635v-3.657h.635v.614ZM51.561 446.231h-.97v1.983c0 .18.033.309.102.387.073.073.182.112.328.117.146 0 .326-.005.54-.014v.57c-.554.073-.96.03-1.219-.131-.258-.166-.387-.476-.387-.929v-1.983h-.722v-.614h.722v-.834l.636-.191v1.025h.97v.614Z"/><ellipse cx="399.454" cy="398.555" fill="#AAADC0" rx="1.46" ry="1.463"/><ellipse cx="393.615" cy="398.555" fill="#AAADC0" rx="1.46" ry="1.463"/><ellipse cx="387.289" cy="398.555" fill="#AAADC0" rx="1.46" ry="1.463"/><ellipse cx="398.969" cy="422.938" fill="#AAADC0" rx="1.46" ry="1.463"/><ellipse cx="393.129" cy="422.938" fill="#AAADC0" rx="1.46" ry="1.463"/><ellipse cx="386.803" cy="422.938" fill="#AAADC0" rx="1.46" ry="1.463"/><ellipse cx="399.454" cy="447.322" fill="#AAADC0" rx="1.46" ry="1.463"/><ellipse cx="393.615" cy="447.322" fill="#AAADC0" rx="1.46" ry="1.463"/><ellipse cx="387.289" cy="447.322" fill="#AAADC0" rx="1.46" ry="1.463"/><path fill="#2B3254" d="M35.732 326.18v1.18h-2.109v6.331h-1.23v-6.331h-2.12v-1.18h5.46ZM39.845 328.326h1.157v5.365h-1.157v-.773c-.435.608-1.06.912-1.873.912-.735 0-1.363-.272-1.884-.815-.521-.551-.782-1.22-.782-2.007 0-.794.26-1.462.782-2.006.52-.544 1.149-.815 1.884-.815.813 0 1.438.3 1.873.901v-.762Zm-2.9 3.916c.32.322.724.483 1.209.483.485 0 .888-.161 1.21-.483.32-.329.481-.74.481-1.234 0-.493-.16-.901-.481-1.223-.322-.329-.725-.493-1.21-.493s-.889.164-1.21.493c-.321.322-.482.73-.482 1.223 0 .494.161.905.482 1.234ZM46.61 328.326h1.135v5.118c0 .815-.268 1.441-.803 1.878-.535.436-1.185.654-1.949.654-1.234 0-2.08-.433-2.537-1.298l.996-.58c.278.551.8.827 1.563.827.5 0 .889-.133 1.167-.397.285-.258.428-.619.428-1.084v-.655c-.435.623-1.056.934-1.863.934a2.566 2.566 0 0 1-1.916-.805 2.734 2.734 0 0 1-.782-1.963c0-.766.261-1.417.782-1.953a2.55 2.55 0 0 1 1.916-.815c.807 0 1.428.311 1.863.933v-.794Zm-2.923 3.83c.329.322.736.483 1.22.483.486 0 .89-.161 1.21-.483.329-.321.493-.722.493-1.201 0-.48-.164-.88-.492-1.202-.322-.322-.725-.483-1.21-.483-.486 0-.892.161-1.22.483-.322.322-.482.722-.482 1.202 0 .479.16.88.481 1.201ZM50.1 329.807c0 .179.096.322.289.429.2.1.438.189.717.268.285.072.57.157.856.258.286.1.525.271.718.515.2.236.3.536.3.901 0 .515-.2.919-.6 1.212-.393.294-.889.44-1.488.44-.528 0-.982-.111-1.36-.332a1.953 1.953 0 0 1-.824-.923l.995-.58c.186.515.582.773 1.189.773.606 0 .91-.2.91-.601 0-.172-.1-.311-.3-.418a2.948 2.948 0 0 0-.717-.269c-.279-.078-.56-.168-.846-.268a1.693 1.693 0 0 1-.728-.493c-.193-.236-.29-.533-.29-.891 0-.493.187-.89.558-1.191.378-.3.845-.45 1.402-.45.443 0 .835.1 1.178.3.35.193.617.465.803.815l-.975.548c-.185-.408-.52-.612-1.006-.612a.981.981 0 0 0-.557.15.461.461 0 0 0-.224.419Z"/><path fill="#676C85" d="M34.145 348.875c-.38.349-.87.523-1.472.523s-1.095-.174-1.48-.523c-.378-.354-.568-.824-.568-1.412v-3.629h.725v3.598c0 .385.114.691.342.92.229.224.556.336.981.336.426 0 .753-.112.981-.336.229-.229.343-.535.343-.92v-3.598h.716v3.629c0 .588-.19 1.058-.568 1.412ZM36.296 346.448c0 .151.075.273.226.367.15.089.332.161.545.219.213.052.425.114.638.187.213.068.395.187.545.359.15.166.226.382.226.647 0 .354-.137.638-.413.851-.27.213-.617.32-1.043.32-.379 0-.703-.083-.973-.25a1.39 1.39 0 0 1-.576-.663l.584-.336a.82.82 0 0 0 .35.445c.171.109.376.164.615.164.223 0 .408-.042.553-.125a.442.442 0 0 0 .218-.406c0-.15-.075-.27-.226-.358a1.855 1.855 0 0 0-.545-.219 9.709 9.709 0 0 1-.638-.195 1.28 1.28 0 0 1-.545-.359.917.917 0 0 1-.226-.64c0-.338.13-.616.39-.835.264-.218.594-.327.988-.327.317 0 .597.072.84.218.25.14.437.338.562.593l-.569.32c-.14-.333-.418-.499-.833-.499a.837.837 0 0 0-.49.14.43.43 0 0 0-.203.382ZM39.647 347.658c.067.348.225.619.475.811.254.193.565.289.934.289.514 0 .888-.19 1.121-.57l.576.328c-.379.588-.95.882-1.713.882-.617 0-1.12-.193-1.51-.577-.384-.391-.576-.882-.576-1.475 0-.588.19-1.077.568-1.467.379-.39.87-.585 1.472-.585.57 0 1.035.202 1.393.608.364.401.545.885.545 1.452 0 .098-.008.2-.023.304h-3.262Zm1.347-1.725c-.364 0-.665.104-.904.312a1.319 1.319 0 0 0-.443.82h2.6c-.057-.37-.202-.65-.436-.843a1.25 1.25 0 0 0-.817-.289ZM47.775 346.05H46.74v2.115c0 .193.036.33.109.414.078.078.194.119.35.124.156 0 .348-.005.576-.015v.609c-.591.078-1.025.031-1.3-.141-.275-.177-.413-.507-.413-.991v-2.115h-.77v-.655h.77v-.89l.678-.202v1.092h1.035v.655ZM51.603 345.395h.677v3.902h-.677v-.672c-.338.515-.828.773-1.472.773-.545 0-1.01-.198-1.393-.593a2.031 2.031 0 0 1-.577-1.459c0-.572.192-1.056.577-1.452.384-.4.848-.6 1.393-.6.644 0 1.134.257 1.472.772v-.671Zm-1.386 3.348c.394 0 .724-.133.989-.398.264-.271.397-.604.397-.999 0-.396-.133-.726-.397-.991a1.326 1.326 0 0 0-.99-.406c-.388 0-.715.135-.98.406a1.345 1.345 0 0 0-.397.991c0 .395.132.728.397.999.265.265.592.398.98.398ZM56.538 345.395h.67v3.738c0 .577-.195 1.024-.585 1.342-.39.322-.856.484-1.401.484-.436 0-.813-.084-1.13-.25a1.612 1.612 0 0 1-.715-.702l.591-.336c.213.437.636.656 1.27.656.404 0 .72-.107.95-.32.233-.214.35-.505.35-.874v-.554c-.343.52-.83.78-1.464.78a1.89 1.89 0 0 1-1.41-.593 1.995 1.995 0 0 1-.576-1.444c0-.567.193-1.045.577-1.435a1.887 1.887 0 0 1 1.409-.593c.638 0 1.126.257 1.464.772v-.671Zm-2.375 2.918c.265.266.594.398.989.398.394 0 .724-.132.989-.398.264-.265.397-.595.397-.991 0-.39-.133-.718-.397-.983a1.342 1.342 0 0 0-.99-.398c-.394 0-.723.133-.988.398a1.337 1.337 0 0 0-.397.983c0 .396.132.726.397.991ZM58.81 346.448c0 .151.075.273.226.367.15.089.332.161.545.219.212.052.425.114.638.187.213.068.395.187.545.359.15.166.226.382.226.647 0 .354-.138.638-.413.851-.27.213-.617.32-1.043.32-.379 0-.703-.083-.973-.25a1.391 1.391 0 0 1-.577-.663l.584-.336a.82.82 0 0 0 .35.445c.172.109.377.164.616.164.223 0 .407-.042.553-.125a.442.442 0 0 0 .218-.406c0-.15-.076-.27-.226-.358a1.855 1.855 0 0 0-.545-.219 9.73 9.73 0 0 1-.639-.195 1.28 1.28 0 0 1-.545-.359.917.917 0 0 1-.225-.64c0-.338.13-.616.389-.835.265-.218.594-.327.989-.327.316 0 .597.072.84.218.25.14.437.338.561.593l-.568.32c-.14-.333-.418-.499-.833-.499a.836.836 0 0 0-.49.14.43.43 0 0 0-.203.382ZM65.856 346.05h-1.035v2.115c0 .193.036.33.109.414.077.078.194.119.35.124.156 0 .348-.005.576-.015v.609c-.592.078-1.025.031-1.3-.141-.275-.177-.413-.507-.413-.991v-2.115h-.77v-.655h.77v-.89l.678-.202v1.092h1.035v.655ZM69.746 348.805c-.4.395-.885.593-1.456.593-.57 0-1.056-.198-1.456-.593a1.985 1.985 0 0 1-.592-1.459c0-.578.198-1.064.592-1.459a1.99 1.99 0 0 1 1.456-.593 1.99 1.99 0 0 1 1.456.593c.4.395.6.881.6 1.459 0 .577-.2 1.064-.6 1.459Zm-1.456-.07c.39 0 .716-.133.981-.398.265-.266.397-.596.397-.991 0-.396-.132-.726-.397-.991a1.328 1.328 0 0 0-.981-.398 1.32 1.32 0 0 0-.973.398 1.345 1.345 0 0 0-.397.991c0 .395.132.725.397.991.265.265.589.398.973.398ZM73.09 349.297V343.6h.678v5.697h-.677ZM78.025 345.395h.677v3.902h-.677v-.672c-.338.515-.828.773-1.472.773-.545 0-1.01-.198-1.394-.593a2.031 2.031 0 0 1-.576-1.459c0-.572.192-1.056.576-1.452.384-.4.85-.6 1.394-.6.644 0 1.134.257 1.472.772v-.671Zm-1.386 3.348c.394 0 .724-.133.989-.398.264-.271.397-.604.397-.999 0-.396-.133-.726-.397-.991a1.326 1.326 0 0 0-.99-.406c-.389 0-.716.135-.98.406a1.345 1.345 0 0 0-.397.991c0 .395.132.728.397.999.264.265.591.398.98.398ZM81.877 345.294c.545 0 1.01.2 1.394.6.384.396.576.88.576 1.452s-.192 1.058-.576 1.459a1.873 1.873 0 0 1-1.394.593c-.643 0-1.134-.258-1.471-.773v.672h-.678v-5.463h.678v2.232c.337-.515.828-.772 1.471-.772Zm-.085 3.449c.389 0 .716-.133.98-.398.265-.271.398-.604.398-.999 0-.396-.133-.726-.397-.991a1.317 1.317 0 0 0-.981-.406c-.395 0-.725.135-.99.406a1.345 1.345 0 0 0-.396.991c0 .395.132.728.397.999.264.265.594.398.989.398ZM85.13 347.658c.068.348.226.619.475.811.254.193.566.289.934.289.514 0 .888-.19 1.122-.57l.576.328c-.38.588-.95.882-1.713.882-.618 0-1.121-.193-1.51-.577-.385-.391-.577-.882-.577-1.475 0-.588.19-1.077.569-1.467.379-.39.87-.585 1.471-.585.571 0 1.036.202 1.394.608.363.401.545.885.545 1.452 0 .098-.008.2-.023.304H85.13Zm1.347-1.725c-.363 0-.664.104-.903.312a1.319 1.319 0 0 0-.444.82h2.6c-.056-.37-.202-.65-.435-.843a1.25 1.25 0 0 0-.818-.289ZM89.195 349.297V343.6h.677v5.697h-.677ZM96.075 345.395h.677v3.902h-.677v-.672c-.337.515-.828.773-1.471.773-.545 0-1.01-.198-1.394-.593a2.031 2.031 0 0 1-.576-1.459c0-.572.192-1.056.576-1.452.384-.4.849-.6 1.394-.6.643 0 1.134.257 1.471.772v-.671Zm-1.386 3.348c.395 0 .724-.133.989-.398.265-.271.397-.604.397-.999 0-.396-.132-.726-.397-.991a1.326 1.326 0 0 0-.989-.406c-.39 0-.716.135-.98.406a1.345 1.345 0 0 0-.398.991c0 .395.132.728.397.999.265.265.592.398.981.398ZM99.718 345.294c.456 0 .822.145 1.097.436.275.287.413.677.413 1.171v2.396h-.677v-2.357c0-.317-.086-.562-.257-.734-.172-.176-.408-.265-.709-.265-.337 0-.61.107-.817.32-.208.208-.312.531-.312.968v2.068h-.677v-3.902h.677v.562c.275-.442.696-.663 1.261-.663ZM105.397 343.834h.677v5.463h-.677v-.672c-.337.515-.828.773-1.472.773a1.871 1.871 0 0 1-1.393-.593 2.032 2.032 0 0 1-.576-1.459c0-.572.192-1.056.576-1.452.384-.4.848-.6 1.393-.6.644 0 1.135.257 1.472.772v-2.232Zm-1.386 4.909c.394 0 .724-.133.989-.398.265-.271.397-.604.397-.999 0-.396-.132-.726-.397-.991a1.327 1.327 0 0 0-.989-.406c-.389 0-.716.135-.981.406a1.344 1.344 0 0 0-.397.991c0 .395.132.728.397.999.265.265.592.398.981.398ZM112.333 348.805c-.4.395-.885.593-1.456.593a1.994 1.994 0 0 1-1.456-.593 1.983 1.983 0 0 1-.592-1.459c0-.578.197-1.064.592-1.459a1.99 1.99 0 0 1 1.456-.593c.571 0 1.056.197 1.456.593.399.395.599.881.599 1.459 0 .577-.2 1.064-.599 1.459Zm-1.456-.07c.389 0 .716-.133.981-.398.264-.266.397-.596.397-.991 0-.396-.133-.726-.397-.991a1.33 1.33 0 0 0-.981-.398c-.384 0-.709.132-.974.398a1.348 1.348 0 0 0-.397.991c0 .395.133.725.397.991.265.265.59.398.974.398ZM114.408 346.05c.223-.483.628-.725 1.215-.725v.71a1.226 1.226 0 0 0-.857.265c-.239.193-.358.502-.358.929v2.068h-.677v-3.902h.677v.655ZM119.304 345.395h.669v3.738c0 .577-.194 1.024-.584 1.342-.389.322-.856.484-1.401.484-.436 0-.812-.084-1.129-.25a1.61 1.61 0 0 1-.716-.702l.591-.336c.213.437.636.656 1.269.656.405 0 .722-.107.95-.32.234-.214.351-.505.351-.874v-.554c-.343.52-.831.78-1.464.78a1.89 1.89 0 0 1-1.409-.593 1.995 1.995 0 0 1-.576-1.444c0-.567.192-1.045.576-1.435a1.887 1.887 0 0 1 1.409-.593c.638 0 1.126.257 1.464.772v-.671Zm-2.375 2.918c.265.266.594.398.989.398.394 0 .724-.132.989-.398.264-.265.397-.595.397-.991 0-.39-.133-.718-.397-.983a1.343 1.343 0 0 0-.989-.398c-.395 0-.724.133-.989.398a1.335 1.335 0 0 0-.397.983c0 .396.132.726.397.991ZM124.223 345.395h.677v3.902h-.677v-.672c-.337.515-.828.773-1.472.773a1.871 1.871 0 0 1-1.393-.593 2.032 2.032 0 0 1-.576-1.459c0-.572.192-1.056.576-1.452.384-.4.848-.6 1.393-.6.644 0 1.135.257 1.472.772v-.671Zm-1.386 3.348c.395 0 .724-.133.989-.398.265-.271.397-.604.397-.999 0-.396-.132-.726-.397-.991a1.326 1.326 0 0 0-.989-.406c-.389 0-.716.135-.981.406a1.344 1.344 0 0 0-.397.991c0 .395.132.728.397.999.265.265.592.398.981.398ZM127.865 345.294c.457 0 .823.145 1.098.436.275.287.413.677.413 1.171v2.396h-.678v-2.357c0-.317-.085-.562-.257-.734-.171-.176-.407-.265-.708-.265-.337 0-.61.107-.818.32-.207.208-.311.531-.311.968v2.068h-.677v-3.902h.677v.562c.275-.442.695-.663 1.261-.663ZM130.664 344.685a.441.441 0 0 1-.327-.133.436.436 0 0 1-.132-.32c0-.125.044-.231.132-.32a.433.433 0 0 1 .327-.14c.124 0 .231.047.319.14a.439.439 0 0 1 .133.32.437.437 0 0 1-.133.32.433.433 0 0 1-.319.133Zm-.343 4.612v-3.902h.678v3.902h-.678ZM132.818 348.649h2.072v.648h-2.998v-.453l1.985-2.801h-1.907v-.648h2.842v.453l-1.994 2.801ZM135.929 347.658c.067.348.225.619.475.811.254.193.565.289.934.289.514 0 .887-.19 1.121-.57l.576.328c-.379.588-.95.882-1.713.882-.617 0-1.121-.193-1.51-.577-.384-.391-.576-.882-.576-1.475 0-.588.189-1.077.568-1.467.379-.39.869-.585 1.472-.585.571 0 1.035.202 1.393.608.364.401.545.885.545 1.452 0 .098-.008.2-.023.304h-3.262Zm1.347-1.725c-.364 0-.665.104-.904.312a1.321 1.321 0 0 0-.443.82h2.6c-.057-.37-.202-.65-.436-.843a1.25 1.25 0 0 0-.817-.289ZM144.657 345.395h.724l-1.589 4.143c-.166.443-.399.778-.7 1.007a1.446 1.446 0 0 1-1.028.312v-.632c.477.037.828-.229 1.051-.796l.07-.148-1.697-3.886h.724l1.323 3.059 1.122-3.059ZM149.08 348.805c-.4.395-.885.593-1.456.593a1.995 1.995 0 0 1-1.456-.593 1.987 1.987 0 0 1-.592-1.459c0-.578.198-1.064.592-1.459.4-.396.885-.593 1.456-.593s1.056.197 1.456.593c.4.395.599.881.599 1.459a1.97 1.97 0 0 1-.599 1.459Zm-1.456-.07c.389 0 .716-.133.981-.398.265-.266.397-.596.397-.991 0-.396-.132-.726-.397-.991a1.33 1.33 0 0 0-.981-.398c-.384 0-.709.132-.973.398a1.344 1.344 0 0 0-.397.991c0 .395.132.725.397.991.264.265.589.398.973.398ZM153.164 345.395h.677v3.902h-.677v-.562c-.275.442-.695.663-1.261.663-.457 0-.823-.143-1.098-.429-.275-.292-.413-.684-.413-1.178v-2.396h.678v2.357c0 .317.085.564.257.741.171.171.407.257.708.257.338 0 .61-.104.818-.312.207-.213.311-.538.311-.975v-2.068ZM155.55 346.05c.223-.483.628-.725 1.215-.725v.71a1.228 1.228 0 0 0-.857.265c-.239.193-.358.502-.358.929v2.068h-.677v-3.902h.677v.655ZM159.958 346.448c0 .151.075.273.226.367.15.089.332.161.545.219.213.052.425.114.638.187.213.068.395.187.545.359.151.166.226.382.226.647 0 .354-.138.638-.413.851-.27.213-.617.32-1.043.32-.379 0-.703-.083-.973-.25a1.39 1.39 0 0 1-.576-.663l.584-.336a.82.82 0 0 0 .35.445c.171.109.376.164.615.164.223 0 .407-.042.553-.125a.442.442 0 0 0 .218-.406c0-.15-.075-.27-.226-.358a1.859 1.859 0 0 0-.545-.219 9.517 9.517 0 0 1-.638-.195 1.276 1.276 0 0 1-.545-.359c-.151-.166-.226-.38-.226-.64 0-.338.13-.616.389-.835.265-.218.594-.327.989-.327.316 0 .597.072.841.218.249.14.436.338.56.593l-.568.32c-.14-.333-.418-.499-.833-.499a.838.838 0 0 0-.491.14.429.429 0 0 0-.202.382ZM165.588 345.395h.677v3.902h-.677v-.562c-.275.442-.695.663-1.261.663-.457 0-.823-.143-1.098-.429-.275-.292-.413-.684-.413-1.178v-2.396h.678v2.357c0 .317.085.564.257.741.171.171.407.257.708.257.338 0 .61-.104.818-.312.207-.213.311-.538.311-.975v-2.068ZM169.446 345.294c.545 0 1.009.2 1.393.6.384.396.576.88.576 1.452s-.192 1.058-.576 1.459a1.871 1.871 0 0 1-1.393.593c-.644 0-1.135-.258-1.472-.773v.672h-.677v-5.463h.677v2.232c.337-.515.828-.772 1.472-.772Zm-.086 3.449c.389 0 .716-.133.981-.398.265-.271.397-.604.397-.999 0-.396-.132-.726-.397-.991a1.317 1.317 0 0 0-.981-.406c-.395 0-.724.135-.989.406a1.344 1.344 0 0 0-.397.991c0 .395.132.728.397.999.265.265.594.398.989.398ZM172.724 346.448c0 .151.075.273.226.367.15.089.332.161.545.219.213.052.425.114.638.187.213.068.395.187.545.359.151.166.226.382.226.647 0 .354-.137.638-.413.851-.269.213-.617.32-1.043.32-.379 0-.703-.083-.973-.25a1.39 1.39 0 0 1-.576-.663l.584-.336a.82.82 0 0 0 .35.445c.171.109.376.164.615.164.223 0 .408-.042.553-.125a.442.442 0 0 0 .218-.406c0-.15-.075-.27-.226-.358a1.847 1.847 0 0 0-.545-.219 9.517 9.517 0 0 1-.638-.195 1.276 1.276 0 0 1-.545-.359c-.151-.166-.226-.38-.226-.64 0-.338.13-.616.389-.835.265-.218.594-.327.989-.327.317 0 .597.072.841.218.249.14.436.338.56.593l-.568.32c-.14-.333-.418-.499-.833-.499a.838.838 0 0 0-.491.14.43.43 0 0 0-.202.382ZM177.429 349.398c-.586 0-1.074-.195-1.463-.585-.39-.396-.584-.885-.584-1.467 0-.583.194-1.069.584-1.459.389-.396.877-.593 1.463-.593.384 0 .73.093 1.036.28.306.182.534.43.685.742l-.568.327a1.151 1.151 0 0 0-.46-.499 1.29 1.29 0 0 0-.693-.187 1.33 1.33 0 0 0-.981.398 1.361 1.361 0 0 0-.389.991c0 .39.13.718.389.983.265.265.592.398.981.398.26 0 .493-.06.701-.18.208-.124.366-.291.475-.499l.576.336a1.928 1.928 0 0 1-.716.741 2.018 2.018 0 0 1-1.036.273ZM180.535 346.05c.223-.483.628-.725 1.215-.725v.71a1.226 1.226 0 0 0-.857.265c-.239.193-.358.502-.358.929v2.068h-.677v-3.902h.677v.655ZM182.755 344.685a.441.441 0 0 1-.327-.133.436.436 0 0 1-.132-.32c0-.125.044-.231.132-.32a.433.433 0 0 1 .327-.14c.124 0 .231.047.319.14a.438.438 0 0 1 .132.32.436.436 0 0 1-.132.32.433.433 0 0 1-.319.133Zm-.343 4.612v-3.902h.678v3.902h-.678ZM186.272 345.294c.545 0 1.01.2 1.394.6.384.396.576.88.576 1.452s-.192 1.058-.576 1.459a1.874 1.874 0 0 1-1.394.593c-.644 0-1.134-.258-1.472-.773v.672h-.677v-5.463h.677v2.232c.338-.515.828-.772 1.472-.772Zm-.086 3.449c.39 0 .717-.133.981-.398.265-.271.397-.604.397-.999 0-.396-.132-.726-.397-.991a1.314 1.314 0 0 0-.981-.406c-.394 0-.724.135-.988.406a1.345 1.345 0 0 0-.398.991c0 .395.133.728.398.999.264.265.594.398.988.398ZM189.525 347.658c.067.348.226.619.475.811.254.193.566.289.934.289.514 0 .888-.19 1.121-.57l.577.328c-.379.588-.95.882-1.713.882-.618 0-1.121-.193-1.511-.577-.384-.391-.576-.882-.576-1.475 0-.588.19-1.077.568-1.467.379-.39.87-.585 1.472-.585.571 0 1.035.202 1.394.608.363.401.545.885.545 1.452 0 .098-.008.2-.024.304h-3.262Zm1.347-1.725c-.363 0-.664.104-.903.312a1.317 1.317 0 0 0-.444.82h2.6c-.057-.37-.202-.65-.436-.843a1.248 1.248 0 0 0-.817-.289ZM194.267 346.05c.223-.483.628-.725 1.214-.725v.71a1.225 1.225 0 0 0-.856.265c-.239.193-.358.502-.358.929v2.068h-.678v-3.902h.678v.655ZM196.017 349.382a.487.487 0 0 1-.358-.148.488.488 0 0 1-.148-.359c0-.14.049-.26.148-.359a.487.487 0 0 1 .358-.148c.146 0 .265.049.358.148a.49.49 0 0 1 .148.359c0 .141-.049.26-.148.359a.468.468 0 0 1-.358.148Z"/><g filter="url(#c)"><path fill="#0ED2AF" d="M303.592 328.86a2 2 0 0 1 2-2h93.323a2 2 0 0 1 2 2v17.947a2 2 0 0 1-2 2h-93.323a2 2 0 0 1-2-2V328.86Z"/></g><path fill="#fff" d="m336.888 340.516-.382-1.1h-2.32l-.381 1.1h-.973l1.977-5.462h1.075l1.969 5.462h-.965Zm-2.406-1.943h1.729l-.865-2.466-.864 2.466ZM341.369 335.054h.841v5.462h-.841v-.562c-.316.443-.77.664-1.362.664-.535 0-.992-.198-1.37-.593a2.047 2.047 0 0 1-.569-1.46c0-.577.19-1.063.569-1.459a1.828 1.828 0 0 1 1.37-.593c.592 0 1.046.219 1.362.656v-2.115Zm-2.11 4.409c.234.234.527.351.88.351s.646-.117.88-.351c.234-.24.35-.539.35-.898s-.116-.655-.35-.889a1.18 1.18 0 0 0-.88-.359c-.353 0-.646.12-.88.359-.233.234-.35.53-.35.889s.117.658.35.898ZM346.274 335.054h.84v5.462h-.84v-.562c-.317.443-.771.664-1.363.664a1.83 1.83 0 0 1-1.37-.593 2.047 2.047 0 0 1-.569-1.46c0-.577.19-1.063.569-1.459a1.83 1.83 0 0 1 1.37-.593c.592 0 1.046.219 1.363.656v-2.115Zm-2.11 4.409c.233.234.526.351.879.351s.647-.117.88-.351c.234-.24.351-.539.351-.898s-.117-.655-.351-.889a1.179 1.179 0 0 0-.88-.359c-.353 0-.646.12-.879.359-.234.234-.351.53-.351.889s.117.658.351.898ZM353.124 336.615h.841v3.901h-.841v-.562c-.316.443-.771.664-1.362.664-.535 0-.992-.198-1.371-.593a2.046 2.046 0 0 1-.568-1.46c0-.577.189-1.063.568-1.459a1.832 1.832 0 0 1 1.371-.593c.591 0 1.046.219 1.362.656v-.554Zm-2.11 2.848c.234.234.527.351.88.351s.646-.117.88-.351c.233-.24.35-.539.35-.898s-.117-.655-.35-.889a1.18 1.18 0 0 0-.88-.359c-.353 0-.646.12-.88.359-.233.234-.35.53-.35.889s.117.658.35.898ZM360.216 335.054h.896v5.462h-.701l-2.569-3.706v3.706h-.896v-5.462h.701l2.569 3.706v-3.706ZM362.807 338.924c.063.297.205.526.429.687.223.156.495.234.817.234.447 0 .781-.161 1.005-.484l.693.406c-.385.567-.953.851-1.706.851-.633 0-1.144-.193-1.533-.578-.39-.39-.584-.882-.584-1.475 0-.582.192-1.069.576-1.459.384-.395.877-.593 1.479-.593.571 0 1.038.2 1.402.601.368.401.552.887.552 1.459 0 .089-.01.206-.031.351h-3.099Zm-.007-.686h2.289c-.057-.318-.19-.557-.397-.718a1.114 1.114 0 0 0-.717-.242c-.311 0-.571.086-.778.257-.208.172-.34.406-.397.703ZM371.01 336.615h.887l-1.222 3.901h-.825l-.81-2.629-.817 2.629h-.826l-1.222-3.901h.887l.756 2.692.817-2.692h.802l.81 2.692.763-2.692ZM378.06 335.054v.858h-1.534v4.604h-.895v-4.604h-1.542v-.858h3.971ZM381.052 336.615h.84v3.901h-.84v-.562c-.317.443-.771.664-1.363.664a1.83 1.83 0 0 1-1.37-.593 2.047 2.047 0 0 1-.569-1.46c0-.577.19-1.063.569-1.459a1.83 1.83 0 0 1 1.37-.593c.592 0 1.046.219 1.363.656v-.554Zm-2.11 2.848c.233.234.526.351.879.351s.647-.117.88-.351c.234-.24.351-.539.351-.898s-.117-.655-.351-.889a1.179 1.179 0 0 0-.88-.359c-.353 0-.646.12-.879.359-.234.234-.351.53-.351.889s.117.658.351.898ZM385.971 336.615h.826v3.722c0 .593-.195 1.048-.584 1.365-.39.318-.862.476-1.417.476-.898 0-1.513-.314-1.846-.944l.724-.421c.203.4.582.601 1.137.601.364 0 .646-.097.849-.289.208-.187.311-.45.311-.788v-.476c-.316.452-.768.679-1.354.679a1.868 1.868 0 0 1-1.394-.586 1.988 1.988 0 0 1-.568-1.428c0-.556.189-1.03.568-1.42a1.856 1.856 0 0 1 1.394-.593c.586 0 1.038.226 1.354.679v-.577Zm-2.125 2.785c.239.234.534.351.887.351s.647-.117.88-.351c.239-.234.358-.525.358-.874 0-.348-.119-.639-.358-.874a1.192 1.192 0 0 0-.88-.351c-.353 0-.648.117-.887.351a1.189 1.189 0 0 0-.351.874c0 .349.117.64.351.874Z"/><rect width="6.813" height=".975" x="316.73" y="337.59" fill="#fff" rx=".488"/><rect width="6.828" height=".973" x="320.624" y="334.663" fill="#fff" rx=".487" transform="rotate(90 320.624 334.663)"/><defs><filter id="b" width="124.475" height="53.671" x="386.027" y="347.898" color-interpolation-filters="sRGB" filterUnits="userSpaceOnUse"><feFlood flood-opacity="0" result="BackgroundImageFix"/><feColorMatrix in="SourceAlpha" result="hardAlpha" values="0 0 0 0 0 0 0 0 0 0 0 0 0 0 0 0 0 0 127 0"/><feOffset dy="7"/><feGaussianBlur stdDeviation="7.5"/><feColorMatrix values="0 0 0 0 0.054902 0 0 0 0 0.823529 0 0 0 0 0.686275 0 0 0 0.15 0"/><feBlend in2="BackgroundImageFix" result="effect1_dropShadow_5376_1210"/><feBlend in="SourceGraphic" in2="effect1_dropShadow_5376_1210" result="shape"/></filter><filter id="c" width="127.323" height="51.946" x="288.592" y="318.86" color-interpolation-filters="sRGB" filterUnits="userSpaceOnUse"><feFlood flood-opacity="0" result="BackgroundImageFix"/><feColorMatrix in="SourceAlpha" result="hardAlpha" values="0 0 0 0 0 0 0 0 0 0 0 0 0 0 0 0 0 0 127 0"/><feOffset dy="7"/><feGaussianBlur stdDeviation="7.5"/><feColorMatrix values="0 0 0 0 0.054902 0 0 0 0 0.823529 0 0 0 0 0.686275 0 0 0 0.15 0"/><feBlend in2="BackgroundImageFix" result="effect1_dropShadow_5376_1210"/><feBlend in="SourceGraphic" in2="effect1_dropShadow_5376_1210" result="shape"/></filter><linearGradient id="a" x1="277.005" x2="273.862" y1="11.235" y2="467.468" gradientUnits="userSpaceOnUse"><stop stop-color="#EFF1FE"/><stop offset=".533" stop-color="#F5F6FE"/><stop offset="1" stop-color="#fff"/></linearGradient></defs></svg>