<svg xmlns="http://www.w3.org/2000/svg" width="810" height="400" fill="none"><path fill="#343D63" d="M0 0h810v400H0z"/><path fill="url(#paint0_linear_7740_6932)" fill-rule="evenodd" d="M35.335 400H810V0h-1.157L0 398.22v1.509l35.335.271Z" clip-rule="evenodd"/><path fill="#B7C0EB" d="m420.132 181.513-119.323 69.363c-1.796 1.095-2.733 2.503-2.733 3.91v7.664c0 1.408.937 2.815 2.811 3.91l177.892 102.989c.234.156.468.235.703.391.078 0 .156.078.234.078.156.078.312.157.469.157.39.156.702.234 1.015.312h.078c.078 0 .156.079.234.079.234.078.391.078.625.156h.156c.078 0 .156 0 .234.078.156 0 .313.078.469.078h.468c.157 0 .313.079.469.079h2.187c.234 0 .468 0 .702-.079h.313c.39-.078.702-.078 1.093-.156h.078c.078 0 .156-.078.312-.078.157 0 .391-.078.547-.157.156 0 .234-.078.391-.078.156-.078.312-.078.468-.156h.078c.078 0 .078-.078.156-.078l.703-.235c.078-.078.156-.078.234-.156.313-.157.625-.313.859-.47l119.324-69.363v-7.742L420.132 181.513Z"/><path fill="#E4E7FB" d="M300.814 256.897c-1.874-1.095-2.811-2.502-2.811-3.91v7.742c0 1.408.937 2.815 2.811 3.91l177.97 102.989v-7.742l-177.97-102.989Z"/><path fill="#FBFBFC" d="m420.134 179.792 191.402 110.731-119.323 69.363c-3.671 2.19-9.684 2.112-13.432 0l-177.97-102.91c-3.749-2.112-3.749-5.631 0-7.82l119.323-69.364Z"/><path fill="#fff" d="M492.207 359.886c-.313.157-.547.313-.859.469-.078.079-.157.079-.235.079-.234.078-.468.234-.781.312-.078 0-.156.079-.234.079-.156.078-.312.078-.468.156-.156 0-.235.078-.391.078-.156 0-.312.078-.546.078-.157 0-.235.079-.391.079-.39.078-.703.078-1.093.156h-.313c-.234 0-.468 0-.624.078h-2.343c-.156 0-.312 0-.469-.078-.156 0-.312 0-.468-.078-.156 0-.312-.078-.469-.078-.156 0-.234-.079-.39-.079-.234-.078-.391-.078-.547-.156-.078 0-.234-.078-.312-.078-.312-.078-.703-.235-1.015-.313l-.469-.235c-.078 0-.156-.078-.234-.078-.234-.078-.469-.234-.703-.391v7.742c.234.156.469.235.703.391.078 0 .156.078.234.078l.469.235h.078c.312.156.703.234 1.015.313h.078c.078 0 .156 0 .234.078.235.078.391.078.625.156h.156c.078 0 .156 0 .235.078.156.079.312.079.468.079h.469c.156 0 .312.078.468.078H486.272c.234 0 .468 0 .703-.078h.312c.39 0 .703-.079 1.093-.157.078 0 .234-.078.313-.078.156-.078.39-.078.546-.156.156 0 .235-.079.391-.079.156 0 .312-.078.468-.156h.078c.078 0 .078-.078.156-.078l.703-.235c.078-.078.157-.078.235-.078.312-.156.624-.313.859-.469l119.323-69.363v-7.742l-119.245 69.441Z"/><path fill="#EFF1FE" d="m424.349 202.393-4.92 2.815-9.84-5.709 4.92-2.815 9.84 5.709Z"/><path fill="#E4E7FB" d="M424.349 202.393v1.486l-4.92 2.893v-1.564l4.92-2.815Z"/><path fill="#EFF1FE" d="M419.427 205.208v1.564l-9.84-5.709v-1.564l9.84 5.709ZM415.991 207.241l-9.839 5.63-9.84-5.63 9.84-5.709 9.839 5.709Z"/><path fill="#E4E7FB" d="M415.991 207.241v1.564l-9.839 5.631v-1.564l9.839-5.631Z"/><path fill="#EFF1FE" d="M406.143 212.872v1.564l-9.84-5.709v-1.486l9.84 5.631ZM435.894 209.04l-4.842 2.893-9.918-5.709 4.92-2.893 9.84 5.709Z"/><path fill="#E4E7FB" d="M435.894 209.04v1.564l-4.92 2.893.078-1.564 4.842-2.893Z"/><path fill="#EFF1FE" d="m431.06 211.933-.079 1.564-9.839-5.708v-1.564l9.918 5.708ZM427.546 213.966l-9.762 5.631-9.839-5.709 9.761-5.63 9.84 5.708Z"/><path fill="#E4E7FB" d="M427.546 213.967v1.486l-9.762 5.708v-1.564l9.762-5.63Z"/><path fill="#EFF1FE" d="M417.794 219.597v1.564l-9.918-5.709.079-1.564 9.839 5.709ZM447.542 215.765l-4.92 2.815-9.839-5.63 4.841-2.894 9.918 5.709Z"/><path fill="#E4E7FB" d="m447.542 215.765-.078 1.564-4.842 2.815v-1.564l4.92-2.815Z"/><path fill="#EFF1FE" d="M442.619 218.58v1.564l-9.839-5.63v-1.564l9.839 5.63ZM439.104 220.613l-9.762 5.709-9.839-5.709 9.761-5.708 9.84 5.708Z"/><path fill="#E4E7FB" d="M439.104 220.614v1.564l-9.762 5.708v-1.564l9.762-5.708Z"/><path fill="#EFF1FE" d="M429.343 226.322v1.564l-9.84-5.708v-1.564l9.84 5.708ZM459.096 222.49l-4.92 2.815-9.84-5.709 4.92-2.815 9.84 5.709Z"/><path fill="#E4E7FB" d="M459.096 222.49v1.486l-4.92 2.893v-1.564l4.92-2.815Z"/><path fill="#EFF1FE" d="M454.178 225.305v1.564l-9.84-5.708v-1.564l9.84 5.708ZM450.732 227.338l-9.761 5.709-9.918-5.709 9.84-5.708 9.839 5.708Z"/><path fill="#E4E7FB" d="M450.732 227.338v1.486l-9.761 5.709v-1.486l9.761-5.709Z"/><path fill="#EFF1FE" d="M440.981 233.047v1.486l-9.917-5.709v-1.486l9.917 5.709ZM470.652 229.137l-4.919 2.894-9.84-5.709 4.92-2.815 9.839 5.63Z"/><path fill="#E4E7FB" d="M470.652 229.137v1.564l-4.919 2.894v-1.564l4.919-2.894Z"/><path fill="#EFF1FE" d="M465.734 232.031v1.564l-9.839-5.709v-1.564l9.839 5.709ZM462.286 234.064l-9.761 5.63-9.84-5.63 9.762-5.709 9.839 5.709Z"/><path fill="#E4E7FB" d="M462.286 234.063v1.486l-9.761 5.709v-1.564l9.761-5.631Z"/><path fill="#EFF1FE" d="M452.53 239.694v1.564l-9.839-5.709v-1.486l9.839 5.631ZM482.272 235.862l-4.919 2.894-9.84-5.709 4.92-2.893 9.839 5.708Z"/><path fill="#E4E7FB" d="M482.272 235.863v1.564l-4.919 2.815v-1.486l4.919-2.893Z"/><path fill="#EFF1FE" d="M477.363 238.756v1.486l-9.839-5.709v-1.486l9.839 5.709ZM473.93 240.71l-9.84 5.709-9.839-5.709 9.839-5.63 9.84 5.63Z"/><path fill="#E4E7FB" d="M473.93 240.71v1.564l-9.84 5.709v-1.564l9.84-5.709Z"/><path fill="#EFF1FE" d="M464.09 246.419v1.564l-9.84-5.709v-1.564l9.84 5.709ZM493.834 242.587l-4.92 2.816-9.839-5.709 4.919-2.815 9.84 5.708Z"/><path fill="#E4E7FB" d="M493.834 242.587v1.564l-4.92 2.815v-1.564l4.92-2.815Z"/><path fill="#EFF1FE" d="M488.921 245.403v1.564l-9.84-5.709v-1.564l9.84 5.709ZM485.496 247.435l-9.761 5.709-9.84-5.709 9.762-5.708 9.839 5.708Z"/><path fill="#E4E7FB" d="M485.496 247.436V249l-9.761 5.63v-1.486l9.761-5.708Z"/><path fill="#EFF1FE" d="M475.723 253.144v1.486l-9.918-5.63.078-1.564 9.84 5.708ZM410.206 217.25l-9.761 5.709-15.697-9.071 9.762-5.709 15.696 9.071Z"/><path fill="#E4E7FB" d="M410.206 217.25v1.564l-9.761 5.709v-1.564l9.761-5.709Z"/><path fill="#EFF1FE" d="M400.445 222.959v1.564l-15.696-9.071v-1.564l15.696 9.071ZM421.836 223.976l-9.84 5.708-9.839-5.708 9.839-5.709 9.84 5.709Z"/><path fill="#E4E7FB" d="M421.836 223.976v1.564l-9.839 5.709v-1.564l9.839-5.709Z"/><path fill="#EFF1FE" d="M411.991 229.685v1.564l-9.839-5.709v-1.564l9.839 5.709ZM433.402 230.701l-9.761 5.63-9.84-5.63 9.762-5.709 9.839 5.709Z"/><path fill="#E4E7FB" d="M433.402 230.701v1.486l-9.761 5.709v-1.564l9.761-5.631Z"/><path fill="#EFF1FE" d="M423.646 236.332v1.564l-9.839-5.709v-1.486l9.839 5.631ZM445.032 237.348l-9.839 5.709-9.84-5.709 9.762-5.63 9.917 5.63Z"/><path fill="#E4E7FB" d="m445.032 237.348-.078 1.564-9.761 5.708v-1.564l9.839-5.708Z"/><path fill="#EFF1FE" d="M435.192 243.056v1.564l-9.839-5.708v-1.564l9.839 5.708ZM456.591 244.073l-9.762 5.709-9.917-5.709 9.839-5.708 9.84 5.708Z"/><path fill="#E4E7FB" d="M456.591 244.074v1.564l-9.762 5.708v-1.564l9.762-5.708Z"/><path fill="#EFF1FE" d="M446.83 249.782v1.564l-9.917-5.708v-1.564l9.917 5.708ZM468.152 250.798l-9.761 5.709-9.84-5.709 9.762-5.709 9.839 5.709Z"/><path fill="#E4E7FB" d="M468.152 250.798v1.564l-9.761 5.63v-1.486l9.761-5.708Z"/><path fill="#EFF1FE" d="M458.396 256.506v1.486l-9.839-5.631v-1.564l9.839 5.709ZM404.506 227.339l-9.762 5.708-21.475-12.434 9.84-5.708 21.397 12.434Z"/><path fill="#E4E7FB" d="M404.506 227.339v1.486l-9.762 5.708v-1.486l9.762-5.708Z"/><path fill="#EFF1FE" d="M394.75 233.047v1.486l-21.475-12.355v-1.564l21.475 12.433ZM387.176 230.701l-9.762 5.631-15.696-9.072 9.761-5.708 15.697 9.149Z"/><path fill="#E4E7FB" d="M387.176 230.701v1.485l-9.762 5.709v-1.564l9.762-5.63Z"/><path fill="#EFF1FE" d="M377.415 236.332v1.564l-15.696-9.071v-1.564l15.696 9.071ZM416.136 234.064l-9.84 5.63-9.839-5.63 9.761-5.709 9.918 5.709Z"/><path fill="#E4E7FB" d="m416.136 234.063-.078 1.486-9.762 5.709v-1.564l9.84-5.631Z"/><path fill="#EFF1FE" d="M406.305 239.694v1.564l-9.84-5.709v-1.486l9.84 5.631ZM398.797 237.348l-9.84 5.708-9.839-5.708 9.761-5.709 9.918 5.709Z"/><path fill="#E4E7FB" d="M398.797 237.348v1.564l-9.84 5.709v-1.564l9.84-5.709Z"/><path fill="#EFF1FE" d="M388.966 243.057v1.564l-9.84-5.709v-1.564l9.84 5.709ZM427.697 240.711l-9.839 5.708-9.84-5.708 9.84-5.709 9.839 5.709Z"/><path fill="#E4E7FB" d="M427.697 240.711v1.564l-9.839 5.709v-1.564l9.839-5.709Z"/><path fill="#EFF1FE" d="M417.857 246.42v1.564l-9.839-5.709v-1.564l9.839 5.709ZM410.363 244.073l-9.761 5.709-9.918-5.709 9.84-5.708 9.839 5.708Z"/><path fill="#E4E7FB" d="M410.363 244.074v1.564l-9.761 5.708v-1.564l9.761-5.708Z"/><path fill="#EFF1FE" d="M400.604 249.782v1.564l-9.918-5.708v-1.564l9.918 5.708ZM439.265 247.435l-9.762 5.709-9.839-5.709 9.761-5.708 9.84 5.708Z"/><path fill="#E4E7FB" d="M439.265 247.436V249l-9.762 5.708v-1.564l9.762-5.708Z"/><path fill="#EFF1FE" d="M429.504 253.144v1.564l-9.84-5.708v-1.564l9.84 5.708ZM421.917 250.798l-9.761 5.709-9.84-5.709 9.761-5.709 9.84 5.709Z"/><path fill="#E4E7FB" d="M421.917 250.798v1.564l-9.761 5.63v-1.486l9.761-5.708Z"/><path fill="#EFF1FE" d="M412.161 256.506v1.486l-9.839-5.631v-1.564l9.839 5.709ZM450.891 254.161l-9.84 5.708-9.839-5.708 9.761-5.709 9.918 5.709Z"/><path fill="#E4E7FB" d="M450.891 254.161v1.564l-9.84 5.63v-1.485l9.84-5.709Z"/><path fill="#EFF1FE" d="M441.051 259.87v1.485l-9.84-5.63v-1.564l9.84 5.709ZM433.551 257.445l-9.84 5.709-9.839-5.709 9.839-5.63 9.84 5.63Z"/><path fill="#E4E7FB" d="M433.551 257.445v1.564l-9.84 5.709v-1.564l9.84-5.709Z"/><path fill="#EFF1FE" d="M423.715 263.154v1.564l-9.84-5.709v-1.564l9.84 5.709ZM505.479 249.312l-4.92 2.815-9.84-5.708 4.842-2.815 9.918 5.708Z"/><path fill="#E4E7FB" d="m505.479 249.312-.079 1.486-4.841 2.894v-1.564l4.92-2.816Z"/><path fill="#EFF1FE" d="M500.569 252.128v1.564l-9.839-5.709v-1.564l9.839 5.709ZM497.112 254.161l-9.839 5.63-9.84-5.63 9.762-5.709 9.917 5.709Z"/><path fill="#E4E7FB" d="m497.112 254.161-.078 1.486-9.761 5.708v-1.564l9.839-5.63Z"/><path fill="#EFF1FE" d="M487.276 259.791v1.564l-9.839-5.63v-1.564l9.839 5.63ZM465.892 260.808v1.564l-5.779-3.363v-1.564l5.779 3.363Z"/><path fill="#E4E7FB" d="M485.567 260.808v1.564l-9.761 5.709v-1.564l9.761-5.709Z"/><path fill="#EFF1FE" d="M452.604 266.517v1.564l-9.84-5.709v-1.564l9.84 5.709ZM462.448 260.808l-9.839 5.709-9.84-5.709 9.84-5.708 9.839 5.708Z"/><path fill="#E4E7FB" d="M462.448 260.808v1.564l-9.839 5.709v-1.564l9.839-5.709Z"/><path fill="#EFF1FE" d="m485.567 260.808-9.761 5.708-11.558 6.726-9.839-5.709 11.479-6.725-5.778-3.363 9.839-5.63 5.779 3.363 4.92 2.815 4.919 2.815Z"/><path fill="#E4E7FB" d="M475.803 266.517v1.564l-11.558 6.725v-1.564l11.558-6.725Z"/><path fill="#EFF1FE" d="M464.252 273.242v1.564l-9.84-5.709v-1.564l9.84 5.709ZM445.113 264.171l-9.761 5.708-9.84-5.708 9.762-5.709 9.839 5.709Z"/><path fill="#E4E7FB" d="M445.113 264.171v1.564l-9.761 5.708v-1.564l9.761-5.708Z"/><path fill="#EFF1FE" d="M435.349 269.879v1.564l-9.84-5.708v-1.564l9.84 5.708ZM462.461 274.258l-9.762 5.63-15.618-8.993 9.84-5.708 15.54 9.071Z"/><path fill="#E4E7FB" d="M462.461 274.257v1.486l-9.762 5.709v-1.564l9.762-5.631Z"/><path fill="#EFF1FE" d="M452.696 279.888v1.564l-15.618-8.992v-1.564l15.618 8.992ZM381.467 240.711l-9.762 5.708-21.475-12.434 9.762-5.63 21.475 12.356Z"/><path fill="#E4E7FB" d="M381.467 240.711v1.564l-9.84 5.709.078-1.564 9.762-5.709Z"/><path fill="#EFF1FE" d="m371.715 246.419-.078 1.564-21.397-12.434v-1.564l21.475 12.434ZM439.417 274.258l-9.839 5.708-56.148-32.531 9.761-5.708 56.226 32.531Z"/><path fill="#E4E7FB" d="M439.417 274.258v1.486l-9.84 5.708v-1.486l9.84-5.708Z"/><path fill="#EFF1FE" d="M429.572 279.967v1.485L373.424 249v-1.564l56.148 32.531ZM450.972 280.905l-9.762 5.709-9.839-5.63 9.761-5.709 9.84 5.63Z"/><path fill="#E4E7FB" d="M450.972 280.905v1.564l-9.762 5.709v-1.564l9.762-5.709Z"/><path fill="#EFF1FE" d="M441.22 286.614v1.564l-9.84-5.708v-1.486l9.84 5.63ZM527.411 262.059l-4.842 2.815-9.917-5.708 4.92-2.815 9.839 5.708Z"/><path fill="#E4E7FB" d="M527.411 262.06v1.485l-4.842 2.894v-1.564l4.842-2.815Z"/><path fill="#EFF1FE" d="M522.578 264.874v1.564l-9.917-5.708v-1.564l9.917 5.708ZM519.068 266.829l-9.761 5.709-9.839-5.631 9.761-5.708 9.839 5.63Z"/><path fill="#E4E7FB" d="M519.068 266.829v1.564l-9.761 5.709v-1.564l9.761-5.709Z"/><path fill="#EFF1FE" d="M509.317 272.538v1.564l-9.839-5.708v-1.486l9.839 5.63ZM539.055 268.706l-4.92 2.815-9.839-5.63 4.919-2.893 9.84 5.708Z"/><path fill="#E4E7FB" d="M539.055 268.707v1.564l-4.92 2.815v-1.564l4.92-2.815Z"/><path fill="#EFF1FE" d="M534.132 271.522v1.564l-9.84-5.709v-1.486l9.84 5.631ZM530.702 273.554l-9.839 5.709-9.84-5.709 9.84-5.708 9.839 5.708Z"/><path fill="#E4E7FB" d="M530.702 273.555v1.564l-9.839 5.708v-1.564l9.839-5.708Z"/><path fill="#EFF1FE" d="M520.866 279.263v1.564l-9.839-5.708v-1.564l9.839 5.708ZM507.587 273.554l-9.84 5.709-9.839-5.709 9.839-5.708 9.84 5.708Z"/><path fill="#E4E7FB" d="M507.587 273.555v1.564l-9.84 5.708v-1.564l9.84-5.708Z"/><path fill="#EFF1FE" d="M497.747 279.263v1.564l-9.839-5.708v-1.564l9.839 5.708ZM519.14 280.279l-9.762 5.709-9.839-5.709 9.761-5.708 9.84 5.708Z"/><path fill="#E4E7FB" d="M519.14 280.28v1.564l-9.762 5.708v-1.564l9.762-5.708Z"/><path fill="#EFF1FE" d="M509.384 285.988v1.564l-9.84-5.708v-1.564l9.84 5.708ZM558.188 279.81l-4.919 2.815-9.84-5.708 4.92-2.815 9.839 5.708Z"/><path fill="#E4E7FB" d="M558.188 279.81v1.486l-4.919 2.893v-1.564l4.919-2.815Z"/><path fill="#EFF1FE" d="M553.275 282.625v1.564l-9.839-5.709v-1.563l9.839 5.708ZM549.836 284.658l-9.839 5.709-9.84-5.709 9.84-5.708 9.839 5.708Z"/><path fill="#E4E7FB" d="M549.836 284.659v1.564l-9.839 5.631v-1.486l9.839-5.709Z"/><path fill="#EFF1FE" d="M539.996 290.368v1.486l-9.839-5.709v-1.486l9.839 5.709ZM569.754 286.457l-4.92 2.893-9.839-5.708 4.919-2.893 9.84 5.708Z"/><path fill="#E4E7FB" d="M569.754 286.458v1.563l-4.92 2.894v-1.564l4.92-2.893Z"/><path fill="#EFF1FE" d="M564.836 289.35v1.564l-9.84-5.787v-1.485l9.84 5.708ZM561.393 291.306l-9.762 5.708-9.839-5.708 9.761-5.631 9.84 5.631Z"/><path fill="#E4E7FB" d="M561.393 291.306v1.564l-9.762 5.708v-1.564l9.762-5.708Z"/><path fill="#EFF1FE" d="M551.632 297.014v1.564l-9.918-5.708.078-1.564 9.84 5.708ZM581.299 293.182l-4.842 2.815-9.839-5.63 4.841-2.893 9.84 5.708Z"/><path fill="#E4E7FB" d="M581.299 293.183v1.564l-4.842 2.815v-1.564l4.842-2.815Z"/><path fill="#EFF1FE" d="M576.456 295.997v1.564l-9.84-5.708v-1.486l9.84 5.63ZM572.951 298.031l-9.761 5.708-9.84-5.708 9.762-5.709 9.839 5.709Z"/><path fill="#E4E7FB" d="M572.951 298.031v1.564l-9.761 5.709v-1.564l9.761-5.709Z"/><path fill="#EFF1FE" d="M563.19 303.74v1.564l-9.839-5.709v-1.564l9.839 5.709ZM538.282 291.305l-9.761 5.709-9.84-5.709 9.762-5.708 9.839 5.708Z"/><path fill="#E4E7FB" d="M538.282 291.306v1.564l-9.761 5.708v-1.564l9.761-5.708Z"/><path fill="#EFF1FE" d="M528.53 297.014v1.564l-9.839-5.708v-1.564l9.839 5.708ZM549.907 298.031l-9.839 5.708-9.84-5.708 9.762-5.709 9.917 5.709Z"/><path fill="#E4E7FB" d="m549.907 298.031-.078 1.564-9.761 5.709v-1.564l9.839-5.709Z"/><path fill="#EFF1FE" d="M540.067 303.74v1.564l-9.839-5.709v-1.564l9.839 5.709ZM561.46 304.756l-9.84 5.709-9.839-5.709 9.839-5.709 9.84 5.709Z"/><path fill="#E4E7FB" d="M561.46 304.756v1.564l-9.84 5.63v-1.486l9.84-5.708Z"/><path fill="#EFF1FE" d="M551.624 310.464v1.486l-9.84-5.63v-1.564l9.84 5.708ZM526.724 298.031l-9.762 5.708-9.839-5.708 9.761-5.709 9.84 5.709Z"/><path fill="#E4E7FB" d="M526.724 298.031v1.564l-9.762 5.709v-1.564l9.762-5.709Z"/><path fill="#EFF1FE" d="M516.964 303.74v1.564l-9.84-5.709v-1.564l9.84 5.709ZM538.367 304.756l-9.761 5.63-9.84-5.63 9.762-5.709 9.839 5.709Z"/><path fill="#E4E7FB" d="M538.367 304.756v1.564l-9.761 5.63v-1.564l9.761-5.63Z"/><path fill="#EFF1FE" d="M528.603 310.386v1.564l-9.918-5.708.078-1.486 9.84 5.63ZM549.907 311.481l-9.761 5.63-9.84-5.708 9.762-5.631 9.839 5.709Z"/><path fill="#E4E7FB" d="M549.907 311.481v1.486l-9.761 5.709v-1.564l9.761-5.631Z"/><path fill="#EFF1FE" d="M540.155 317.111v1.564l-9.839-5.708v-1.564l9.839 5.708ZM515.238 304.756l-9.761 5.63-9.918-5.63 9.84-5.709 9.839 5.709Z"/><path fill="#E4E7FB" d="M515.238 304.756v1.486l-9.761 5.708v-1.564l9.761-5.63Z"/><path fill="#EFF1FE" d="M505.482 310.386v1.564l-9.917-5.63v-1.564l9.917 5.63ZM526.785 311.403l-9.761 5.708-9.84-5.708 9.762-5.631 9.839 5.631Z"/><path fill="#E4E7FB" d="M526.785 311.403v1.564l-9.761 5.708v-1.564l9.761-5.708Z"/><path fill="#EFF1FE" d="M517.029 317.111v1.564l-9.839-5.708v-1.564l9.839 5.708ZM515.399 318.206l-9.839 5.709-21.475-12.512 9.761-5.631 21.553 12.434Z"/><path fill="#E4E7FB" d="M515.399 318.206v1.486l-9.839 5.708v-1.485l9.839-5.709Z"/><path fill="#EFF1FE" d="M505.555 323.915v1.486l-21.475-12.434v-1.564l21.475 12.512ZM538.282 318.206l-21.163 12.356-9.839-5.709 21.163-12.355 9.839 5.708Z"/><path fill="#E4E7FB" d="M538.282 318.207v1.564l-21.162 12.355v-1.564l21.162-12.355Z"/><path fill="#EFF1FE" d="M517.118 330.562v1.564l-9.839-5.709v-1.564l9.839 5.709ZM456.21 305.694l-28.425 16.501-61.848-35.816 28.425-16.5 61.848 35.815Z"/><path fill="#E4E7FB" d="M456.21 305.695v.234l-28.425 16.579v-.313l28.425-16.5Z"/><path fill="#EFF1FE" d="M427.777 322.194v.313l-61.848-35.815v-.313l61.848 35.815ZM427.311 37.782c-.078 0-.156-.078-.234-.078-.078-.078-.156-.078-.234-.157-.078 0-.078-.078-.156-.078h-.157c-.078-.078-.156-.078-.234-.156-.078 0-.234-.078-.234-.078h-.078c-.078 0-.156 0-.156-.079-.078 0-.157-.078-.313-.078h-.312c-.078 0-.234-.078-.312-.078H424.032c-.157 0-.235 0-.391.078h-.156c-.156 0-.234.078-.312.078-.157.079-.391.157-.547.235l-6.638 3.91.469-.235c.156-.078.234-.078.39-.156h.078c.156 0 .313-.078.469-.078h.546c.235 0 .391.078.547.078.234.078.39.078.625.156.234.079.468.157.625.235.234.078.468.235.702.313l178.205 102.989 6.715-3.91L427.311 37.782Z"/><path fill="#fff" d="M598.642 149.764c1.249.704 2.264 2.503 2.264 3.91l-.468 130.359c0 1.408-1.015 2.033-2.265 1.251l-177.97-102.911c-1.171-.703-2.265-2.502-2.265-3.91l.469-130.437c0-1.407 1.015-1.955 2.264-1.251l177.971 102.989Z"/><path fill="#FDFCFF" d="M611.998 152.11v-.938c0-.078 0-.235-.078-.313 0-.078 0-.235-.078-.313 0-.078 0-.234-.078-.313v-.391c0-.156-.078-.234-.078-.312 0-.078-.078-.157-.078-.313v-.078c-.079-.078-.078-.235-.157-.391 0-.078-.078-.235-.156-.313v-.078c0-.078-.078-.157-.078-.235 0-.078-.078-.234-.156-.313 0-.078-.078-.156-.078-.234v-.079c-.078-.078-.078-.234-.156-.312-.078-.157-.156-.235-.156-.391v-.157c-.079-.078-.079-.156-.157-.313-.078-.156-.156-.234-.234-.391 0-.078-.078-.078-.078-.156l-.078-.078c-.078-.078-.156-.235-.156-.313-.078-.156-.156-.313-.235-.391l-.078-.078c-.156-.235-.234-.391-.39-.548v-.078c-.078-.156-.234-.234-.312-.391-.079-.078-.157-.234-.235-.313-.078-.078-.156-.234-.234-.312-.078-.078-.156-.235-.234-.313l-.235-.235c-.078-.078-.156-.234-.312-.312l-.078-.079-.078-.078-.156-.156c-.078-.078-.157-.157-.313-.235l-.078-.078-.078-.078c-.078 0-.078-.078-.156-.078a1.06 1.06 0 0 0-.312-.235c-.079-.078-.157-.078-.235-.156-.078-.079-.234-.157-.312-.157-.078-.078-.156-.156-.312-.156h-.079l-6.715 3.91c.234.156.468.234.702.469.235.156.391.313.625.469l.078.078c.156.157.391.313.547.548l.078.078c.234.156.39.391.547.547v.078c.234.235.39.47.546.626.156.235.391.469.547.704v.078c.156.235.312.391.468.626.079.156.235.312.313.469.078.156.156.235.234.313a.242.242 0 0 1 .078.156c.156.235.234.391.313.626v.078c.156.234.234.547.39.782v.078c.078.235.234.469.312.782v.078c.078.313.157.548.235.782.078.235.156.548.234.782v.078c.078.235.078.548.156.782.078.235.078.548.078.782v.861l-.468 138.1 6.637-3.91.547-138.413v-.235Z"/><path fill="#E4E7FB" d="M420.668 41.692c-3.671-2.111-6.716-.39-6.794 3.832l-.469 138.179 191.48 110.731.469-138.179c0-4.223-2.968-9.462-6.716-11.652l-177.97-102.91Zm179.688 242.419c0 1.408-1.016 2.034-2.265 1.252l-177.97-102.911c-1.171-.704-2.265-2.503-2.265-3.91l.469-130.438c0-1.407 1.015-1.954 2.265-1.25l178.048 102.91c1.249.704 2.264 2.503 2.264 3.91l-.546 130.437Z"/><g clip-path="url(#clip0_7740_6932)"><path fill="#EBF0F9" d="M522.853 145.537c0 6.256-2.18 10.646-5.704 12.679-2.098 1.212-4.671 1.586-7.546 1.025a16.088 16.088 0 0 1-1.688-.43 19.917 19.917 0 0 1-2.944-1.193l-.097-.047a25.778 25.778 0 0 1-2.553-1.475l-.293-.192a31.639 31.639 0 0 1-2.944-2.243 37.847 37.847 0 0 1-1.689-1.541c-2.871-2.79-5.447-6.17-7.545-9.828-3.524-6.144-5.704-13.078-5.704-19.334 0-12.47 8.664-17.524 19.349-11.288 10.688 6.236 19.353 21.398 19.353 33.867h.005Z"/><path fill="#D7E1F3" d="M504.877 157.571a23.771 23.771 0 0 1-1.376-.745 29.982 29.982 0 0 1-1.178-.729l-.293-.193a31.585 31.585 0 0 1-2.943-2.243v-11.053l1.468.854 2.54 1.483.812.475 2.374 1.385 1.634.953v11.053a19.909 19.909 0 0 1-2.944-1.192l-.097-.048h.003Z"/><path fill="#ED585D" d="M503.501 156.825a27.15 27.15 0 0 1-1.178-.729l.622-6.923 1.255.732.677 7.666a25.778 25.778 0 0 1-1.376-.746Z"/><path fill="#F2B283" d="m500.831 139.988-.362 4.552 5.812 3.391v-4.653l-5.45-3.29Z"/><path fill="#F0B685" d="M495.303 125.245c-.135-.05-.321.162-.392.394a.953.953 0 0 0-.042.221c-.099 1.147-.028 2.066-.028 2.066.081 1.034.122 1.573.288 2.117l.033.112c.047.162.23.751.608 1.352a.57.57 0 0 0 .086.106c.127.125.257.114.301.111.133-.011.34-.198.393-.77.135-1.467-.747-5.527-1.244-5.706l-.003-.003ZM511.485 134.688c.135.109.321.533.392.854.031.132.039.226.042.271.099 1.265.027 2.1.027 2.1-.08.941-.121 1.43-.287 1.779l-.033.073c-.047.109-.23.483-.608.642a.152.152 0 0 1-.086.009c-.127-.023-.257-.188-.301-.243-.133-.165-.34-.598-.395-1.232-.136-1.625.746-4.658 1.243-4.253h.006Z"/><path fill="#000" d="m500.816 140.187.26.318s.465.578 1.009 1.103c1.468 1.416 3.129 2.064 3.129 2.064.345.134.89.274 1.069.318-.008-.145.009-.31 0-.455l-5.467-3.348Z" opacity=".1"/><path fill="#FFBB8A" d="M510.62 136.743c.025.857-.019 2.072-.37 3.29-.301 1.044-.84 2.907-2.612 3.404-1.678.469-3.485-.556-3.994-.854-.13-.076-3.303-1.986-5.345-6.007-.752-1.481-1.097-2.748-1.434-3.988a22.858 22.858 0 0 1-.761-4.315v-7.468c.219-.933.703-2.187 1.872-2.388.961-.164 1.647.506 5.287 2.718 3.347 2.033 3.897 2.147 4.895 3.354 1.373 1.661 2.097 3.574 2.468 4.786 0 2.489-.003 4.977-.006 7.465v.003Z"/><path fill="#000" d="M510.8 136.542c.194-.561 1.473-4.488-.713-9.417-3.374-7.607-12.003-10.841-12.293-9.601-.086.365.572 1.256 1.885 3.035 2.291 3.106 4.604 4.79 5.334 5.052.061.023.32.109.674.31.152.087.517.302.967.687.155.134.573.489.995 1.017.205.254.716.927 1.258 2.198.498 1.167.685 2.044.89 3.033.047.223.677 3.007.743 4.398l.26-.715v.003Z" opacity=".1"/><path fill="#6A4C4C" d="m495.231 125.223.937 3.756c.03-1.628.13-3.34.326-5.099.072-.657.155-1.288.246-1.894.033-.229.066-.463.094-.698.163-1.374.832-2.148 1.761-1.952.033.006.069.017.107.028.407.117.835.416 1.219.838 3.093 3.398 4.522 4.435 5.238 4.675.135.044.904.282 1.874 1 .29.215.597.444.937.826.757.849 1.16 1.868 1.351 2.452.285.922.567 1.977.788 3.128.398 2.075.467 3.751.431 4.977.196-.361.392-.791.572-1.296.191-.542.326-1.07.423-1.559.177-1.083.304-2.619.133-4.605a25.806 25.806 0 0 0-.531-3.371 10.494 10.494 0 0 0-1.307-3.172 10.096 10.096 0 0 0-1.717-2.106 33.326 33.326 0 0 1-1.238-1.206c-.578-.598-1.409-1.332-2.407-1.852-1.089-.564-1.916-.637-2.383-.623a6.212 6.212 0 0 0-1.064-1.105c-.782-.62-1.429-.746-1.755-.771-.08-.006-.163-.011-.243-.02-.589-.056-1.465-.022-2.264.517a3.38 3.38 0 0 0-1.031 1.128c-.312.606-.649 1.491-.818 2.723-.279 2.05.053 4.063.327 5.284l-.006-.003Z"/><path fill="#D44E53" d="m502.193 147.249.752 1.927 1.255.732.732-.885-1.105-3.304a1.316 1.316 0 0 1-.324-.134 2.022 2.022 0 0 1-.342-.254c-.321.639-.644 1.279-.965 1.921l-.003-.003Z"/><path fill="#fff" d="m503.5 145.582 2.772-1.117 1.645 3.29-2.62 3.01-1.797-5.183Z"/><path fill="#fff" d="m503.501 145.582-2.77-4.351-1.644 1.374 2.62 6.066 1.794-3.089Z"/><path fill="#499BE5" d="M499.087 153.661a37.301 37.301 0 0 1-1.689-1.541c-2.872-2.79-5.448-6.17-7.545-9.828l8.123.475.353.019c.285.017.539-.044.755-.184l2.943 13.296a31.747 31.747 0 0 1-2.943-2.242l.003.005Z"/><path fill="#245CBF" d="M502.03 155.904a31.585 31.585 0 0 1-2.943-2.243 37.301 37.301 0 0 1-1.689-1.541l-.672-1.57 1.703-1.254-2.261-1.318 1.808-5.208 1.108-.162 2.943 13.296h.003Z"/><path fill="#499BE5" d="M517.148 158.216c-2.098 1.212-4.671 1.587-7.545 1.025a16.042 16.042 0 0 1-1.689-.43 19.942 19.942 0 0 1-2.943-1.192l2.943-9.864c.216.388.47.748.755 1.064l.354.394 8.122 9.001.003.002Z"/><path fill="#245CBF" d="m508.572 155.211 1.703 3.24-.672.787a16.042 16.042 0 0 1-1.689-.43 19.942 19.942 0 0 1-2.943-1.192l2.943-9.864 1.109 1.458 1.807 7.317-2.261-1.318.003.002Z"/><path fill="#EBF0F9" d="m530.921 196.982-54.838-31.994c-1.15-.67-2.081-2.468-2.081-4.016v-7.291c0-1.548.931-2.26 2.081-1.589l54.841 31.993c1.149.67 2.081 2.469 2.081 4.016v7.292c0 1.547-.932 2.259-2.081 1.589h-.003ZM530.921 214.665l-54.838-31.993c-1.15-.67-2.081-2.469-2.081-4.016v-7.292c0-1.547.931-2.259 2.081-1.589l54.841 31.993c1.149.671 2.081 2.469 2.081 4.016v7.292c0 1.547-.932 2.259-2.081 1.589h-.003ZM491.066 198.523l-16.069-9.375c-.55-.321-.995-1.1-.995-1.742 0-.643.445-.902.995-.581l16.066 9.372c.55.321.995 1.1.995 1.743 0 .642-.445.902-.995.581l.003.002ZM532.007 222.407l-26.287-15.335c-.55-.321-.995-1.1-.995-1.743 0-.642.445-.902.995-.58l26.287 15.334c.55.321.995 1.101.995 1.743 0 .642-.445.902-.995.581Z"/><path fill="#0ED2AF" d="m516.192 229.827-26.071-15.21c-.788-.458-1.424-1.689-1.424-2.75v-5.762c0-1.061.639-1.547 1.424-1.089l26.071 15.209c.788.458 1.423 1.69 1.423 2.751v5.761c0 1.062-.638 1.548-1.423 1.09Z"/><path fill="#C3D3EE" d="m479.806 158.559.481.28v2.446c0 .425-.042.74-.125.941a.537.537 0 0 1-.447.349c-.216.031-.498-.056-.849-.259a3.094 3.094 0 0 1-.835-.693 2.425 2.425 0 0 1-.461-.863 4.129 4.129 0 0 1-.138-1.142v-2.447l.481.28v2.443c0 .369.03.657.088.863.058.21.16.402.301.578.144.179.318.327.523.447.353.207.605.26.754.159.149-.097.224-.413.224-.946v-2.444l.003.008ZM480.851 162.489l.439.176c.025.22.094.419.207.595.114.176.271.324.476.441.204.12.356.159.456.12.099-.039.149-.126.149-.257a.61.61 0 0 0-.13-.355c-.061-.081-.213-.229-.456-.441a9.083 9.083 0 0 1-.68-.645 1.614 1.614 0 0 1-.287-.458 1.216 1.216 0 0 1-.097-.469c0-.137.028-.249.08-.333a.344.344 0 0 1 .218-.161.605.605 0 0 1 .285.013c.119.028.249.084.384.162.208.121.387.26.545.422.155.159.271.321.345.483.075.162.125.349.155.564l-.437-.184a1.053 1.053 0 0 0-.171-.469 1.19 1.19 0 0 0-.404-.369c-.204-.12-.351-.164-.439-.137-.088.028-.13.095-.13.202 0 .067.019.139.055.215a.889.889 0 0 0 .172.237c.044.045.177.165.392.363.315.282.536.492.661.626.124.134.221.282.293.444.072.162.108.329.108.505s-.045.31-.13.413c-.086.104-.213.148-.376.137-.163-.011-.348-.078-.556-.198a2.294 2.294 0 0 1-.782-.704 2.222 2.222 0 0 1-.343-.935l-.002-.003ZM485.364 165.047l.461.335c-.072.271-.207.435-.403.494-.196.059-.448 0-.752-.179a2.443 2.443 0 0 1-.915-.946 2.757 2.757 0 0 1-.337-1.36c0-.5.113-.849.343-1.003.226-.151.522-.123.887.089.351.204.638.511.862.922.224.408.335.866.335 1.374v.137l-1.96-1.145c.017.346.1.653.246.916.147.265.329.461.55.589.163.095.304.126.417.095.116-.033.208-.14.274-.318h-.008Zm-1.462-1.693 1.467.858a1.754 1.754 0 0 0-.168-.679c-.141-.282-.326-.492-.553-.623-.205-.12-.376-.139-.517-.061-.141.078-.216.246-.232.505h.003ZM486.378 166.627v-3.066l.401.235v.463c.102-.159.196-.246.284-.265.086-.02.183 0 .285.061.149.087.304.232.459.436l-.155.394a1.214 1.214 0 0 0-.326-.305c-.097-.055-.185-.072-.263-.05-.077.022-.132.087-.165.187-.05.157-.075.344-.075.564v1.606l-.445-.26ZM488.069 167.613v-3.066l.401.234v.436c.194-.223.473-.229.838-.017.157.093.304.21.436.355a1.7 1.7 0 0 1 .299.436c.066.145.113.301.138.463.017.106.025.28.025.52v1.885l-.445-.26v-1.865c0-.213-.017-.38-.053-.506a1.008 1.008 0 0 0-.185-.357 1.029 1.029 0 0 0-.309-.274c-.191-.112-.354-.137-.492-.075-.139.061-.208.287-.208.678v1.676l-.445-.26v-.003ZM492.605 169.881a.943.943 0 0 1-.476.07 1.423 1.423 0 0 1-.491-.184 1.86 1.86 0 0 1-.667-.634 1.475 1.475 0 0 1-.232-.768c0-.151.031-.271.089-.361a.354.354 0 0 1 .229-.164.713.713 0 0 1 .321.016c.088.025.218.076.395.154.359.159.625.254.793.285v-.134c0-.213-.041-.386-.127-.522a1.39 1.39 0 0 0-.509-.472c-.21-.123-.364-.171-.464-.143-.099.028-.174.137-.221.327l-.437-.324c.039-.196.105-.332.197-.413.091-.081.221-.107.392-.079.171.028.37.109.597.241.224.131.406.268.547.41.141.143.244.282.31.413.066.132.113.277.138.436.014.098.022.263.022.492v.692c0 .483.008.793.028.933.019.14.055.285.113.433l-.464-.271a1.804 1.804 0 0 1-.089-.43l.006-.003Zm-.036-1.181c-.163-.017-.404-.092-.727-.229-.182-.076-.312-.118-.39-.123a.2.2 0 0 0-.177.067.321.321 0 0 0-.06.209c0 .14.044.28.135.425a1.1 1.1 0 0 0 .395.368c.172.101.324.146.459.137a.345.345 0 0 0 .296-.187c.047-.089.072-.248.072-.477v-.19h-.003ZM493.708 170.903v-3.066l.398.232v.43a.452.452 0 0 1 .329-.171c.138-.011.293.034.467.137.193.115.354.254.478.422.124.168.213.349.263.55.207-.237.478-.257.812-.064.26.151.462.352.603.603.141.251.21.55.21.902v2.106l-.443-.26v-1.932c0-.207-.013-.366-.044-.475a.855.855 0 0 0-.157-.313.925.925 0 0 0-.268-.24c-.186-.109-.338-.126-.462-.053-.122.072-.182.265-.182.581v1.781l-.445-.259v-1.994c0-.232-.036-.425-.108-.584a.827.827 0 0 0-.357-.38.531.531 0 0 0-.348-.086c-.108.014-.182.083-.232.204-.047.12-.072.321-.072.6v1.592l-.445-.26.003-.003ZM499.73 173.43l.461.336c-.071.27-.207.435-.403.494-.196.059-.448 0-.752-.179a2.439 2.439 0 0 1-.915-.947 2.751 2.751 0 0 1-.337-1.36c0-.5.113-.849.343-1.002.227-.151.522-.123.887.089.351.204.639.511.862.922.224.407.335.865.335 1.374v.137l-1.96-1.143c.017.347.1.654.246.916.147.266.329.461.55.59.163.095.304.125.418.095.116-.034.207-.14.273-.319l-.008-.003Zm-1.462-1.692 1.467.857a1.744 1.744 0 0 0-.168-.678c-.141-.282-.326-.492-.553-.623-.204-.12-.376-.14-.517-.061-.138.078-.215.245-.232.505h.003ZM477.429 179.111l-.005-4.236 1.368.795c.24.14.426.26.553.361.177.139.329.29.447.458.122.167.219.36.291.578.074.218.11.433.11.642 0 .36-.097.609-.293.743-.196.134-.55.053-1.064-.246l-.931-.542v1.724l-.478-.28.002.003Zm.479-1.944.936.545c.31.181.531.24.661.181.13-.058.196-.212.193-.455 0-.176-.038-.352-.116-.522a1.25 1.25 0 0 0-.304-.427 2.987 2.987 0 0 0-.447-.299l-.929-.539v1.514l.006.002ZM482.468 181.666a.898.898 0 0 1-.475.07 1.415 1.415 0 0 1-.492-.184 1.85 1.85 0 0 1-.666-.634 1.463 1.463 0 0 1-.232-.768c0-.151.027-.271.088-.36a.355.355 0 0 1 .229-.165.7.7 0 0 1 .321.017c.088.025.218.075.395.153.36.16.625.254.793.282v-.134a.964.964 0 0 0-.127-.522 1.403 1.403 0 0 0-.508-.472c-.21-.123-.365-.17-.465-.142-.099.028-.174.137-.221.326l-.436-.323c.038-.196.105-.333.196-.414.091-.081.221-.109.392-.081.172.028.371.106.597.238.224.131.407.268.548.41.141.143.243.282.309.413.066.132.113.277.138.436.014.098.022.263.022.492v.692c0 .483.011.796.031.933.019.14.058.285.113.433l-.464-.271a1.668 1.668 0 0 1-.089-.43l.003.005Zm-.039-1.184c-.16-.016-.403-.092-.726-.226-.183-.075-.313-.117-.39-.123-.075-.005-.136.017-.177.067a.328.328 0 0 0-.061.213c0 .139.044.279.136.424.091.145.221.268.395.369.171.1.323.145.459.134a.346.346 0 0 0 .293-.187c.047-.09.071-.249.071-.478v-.193ZM483.393 181.667l.44.176c.025.22.094.418.207.594.113.176.271.322.476.442.204.12.356.159.456.12.099-.039.149-.126.149-.257a.593.593 0 0 0-.133-.355c-.061-.081-.213-.229-.456-.441a9.083 9.083 0 0 1-.68-.645 1.587 1.587 0 0 1-.287-.458 1.285 1.285 0 0 1-.1-.469c0-.137.028-.249.08-.333a.351.351 0 0 1 .219-.162.595.595 0 0 1 .282.014c.119.028.248.081.384.162.207.12.387.26.544.419.155.159.271.321.346.483.074.162.127.349.155.564l-.437-.184a1.065 1.065 0 0 0-.171-.469 1.162 1.162 0 0 0-.404-.366c-.205-.12-.351-.165-.437-.137-.088.028-.13.095-.13.201 0 .067.02.14.056.215a.91.91 0 0 0 .171.238c.044.044.177.164.393.363.315.282.536.488.66.625.124.134.224.282.293.444.072.162.108.33.108.509a.62.62 0 0 1-.13.413c-.086.103-.21.148-.376.137-.163-.011-.348-.078-.555-.199a2.286 2.286 0 0 1-.783-.703 2.22 2.22 0 0 1-.342-.936l.002-.005ZM485.928 183.141l.439.176c.025.22.094.419.207.594.114.176.271.322.476.442.204.12.356.159.456.12.099-.039.149-.126.149-.257a.595.595 0 0 0-.133-.355c-.06-.081-.212-.229-.456-.441a9.016 9.016 0 0 1-.679-.645 1.57 1.57 0 0 1-.288-.458 1.283 1.283 0 0 1-.099-.469.62.62 0 0 1 .08-.333.347.347 0 0 1 .218-.162.595.595 0 0 1 .282.014c.119.028.249.081.384.162.207.12.387.26.545.419.154.159.271.321.345.483.075.162.127.349.155.564l-.437-.184a1.053 1.053 0 0 0-.171-.469 1.191 1.191 0 0 0-.404-.366c-.204-.12-.351-.165-.436-.137-.089.028-.13.095-.13.201 0 .067.019.14.055.215a.893.893 0 0 0 .171.238c.045.044.177.165.393.363.315.282.536.489.66.625.125.134.224.282.293.444.072.162.108.33.108.509a.617.617 0 0 1-.13.413c-.085.103-.21.148-.373.137-.163-.011-.348-.078-.555-.198-.343-.199-.603-.433-.783-.704a2.22 2.22 0 0 1-.342-.936v-.005ZM489.126 185.917l-.807-3.536.462.268.42 2.014.158.748c.005-.027.052-.212.135-.553l.417-1.555.459.265.395 2.008.133.662.149-.505.448-1.514.434.251-.818 2.592-.462-.268-.42-2.081-.102-.581-.531 2.053-.464-.271-.006.003ZM492.136 186.135c0-.567.135-.911.403-1.028.227-.095.5-.05.826.139.363.21.658.52.888.93.229.411.345.858.345 1.347 0 .393-.05.675-.152.843a.537.537 0 0 1-.442.271c-.194.011-.406-.048-.636-.182a2.407 2.407 0 0 1-.892-.932 2.844 2.844 0 0 1-.343-1.388h.003Zm.458.265c0 .394.075.729.221 1.011.147.282.332.486.556.617.221.128.406.137.553.025.146-.112.218-.369.218-.771a2.08 2.08 0 0 0-.224-.991c-.149-.282-.331-.486-.55-.614-.224-.129-.406-.14-.553-.031-.146.109-.221.36-.218.754h-.003ZM495.115 189.402v-3.069l.398.235v.466c.102-.159.196-.246.285-.265.086-.02.182 0 .285.061.149.087.304.232.458.433l-.152.394a1.14 1.14 0 0 0-.326-.302c-.096-.056-.185-.072-.262-.05-.078.022-.133.086-.166.187-.05.156-.075.343-.075.564v1.606l-.445-.26ZM498.515 191.379v-.388c-.166.207-.412.218-.735.028a1.945 1.945 0 0 1-.578-.539 2.955 2.955 0 0 1-.556-1.72c0-.307.045-.559.13-.757.089-.198.219-.313.393-.344.174-.03.37.017.586.143.157.092.298.212.423.363.124.151.224.31.301.48v-1.519l.442.257.006 4.236-.415-.24h.003Zm-1.41-2.351c0 .394.072.729.213 1.005.141.277.31.472.503.584.194.114.359.117.495.011.135-.106.204-.352.204-.732 0-.419-.069-.768-.21-1.044-.138-.277-.309-.475-.514-.592-.199-.115-.362-.117-.494-.006-.133.112-.199.372-.199.777l.002-.003Z"/><path fill="#fff" d="m495.076 213.361.63.296c.039.268.116.494.232.679.117.184.274.332.47.447.208.122.365.162.473.12.105-.042.158-.132.158-.268a.595.595 0 0 0-.067-.266 1.22 1.22 0 0 0-.232-.299 14.803 14.803 0 0 0-.52-.466c-.348-.302-.591-.57-.729-.796-.196-.321-.296-.628-.296-.924 0-.19.047-.341.138-.453.091-.111.227-.159.401-.145.174.014.384.095.63.237.404.235.705.514.909.841.205.324.31.662.321 1.011l-.647-.343a1.207 1.207 0 0 0-.179-.52 1.219 1.219 0 0 0-.409-.366c-.188-.109-.335-.151-.443-.123-.069.017-.102.076-.102.173 0 .09.033.185.097.283.083.128.279.326.594.597.315.271.547.497.699.676.152.182.268.377.354.587.086.209.127.432.127.67 0 .215-.049.385-.152.514-.102.128-.246.181-.434.164-.188-.016-.42-.109-.699-.271a2.648 2.648 0 0 1-.934-.874 2.654 2.654 0 0 1-.39-1.184v.003ZM498.208 216.408v-3.742l.647.377v3.742l-.647-.377ZM500.966 216.64v-.632l1.395.816v1.491c-.135.076-.331.095-.588.062a2.117 2.117 0 0 1-.783-.282 3.267 3.267 0 0 1-1.437-1.791 3.552 3.552 0 0 1-.188-1.105c0-.391.069-.696.21-.917a.696.696 0 0 1 .614-.337c.204-.006.461.083.768.262.398.232.711.511.934.838.224.327.368.679.432 1.061l-.644-.234a1.595 1.595 0 0 0-.255-.584 1.443 1.443 0 0 0-.467-.433c-.282-.165-.508-.193-.674-.081-.166.112-.252.374-.252.785 0 .444.086.826.255 1.148.168.321.389.561.666.72.135.078.271.129.409.145a.794.794 0 0 0 .351-.022v-.475l-.741-.433-.005-.002ZM502.964 219.181v-3.742l.63.369 1.313 3.264v-2.499l.602.352v3.742l-.649-.38-1.294-3.195v2.441l-.602-.352ZM507.42 221.781v-3.742l.647.377v3.742l-.647-.377ZM508.691 222.521v-3.742l.631.368 1.312 3.265v-2.499l.603.352v3.742l-.65-.38-1.293-3.195v2.441l-.603-.352Z"/></g><path fill="#B7C0EB" d="M224.121 279.631v-6.937c.714-2.008 2.071-3.98 4.034-5.732 2.32 1.132 5.711 1.022 7.889-.256.178-.109.321-.183.428-.292v-4.382c2.998-1.168 6.318-1.971 9.709-2.373.286 1.753 2.785 3.14 5.854 3.14 1.642 0 3.106-.401 4.177-1.022.928-.548 1.57-1.278 1.713-2.118 3.391.438 6.675 1.205 9.674 2.373v4.418c.107.073.249.183.357.256 2.141 1.278 5.568 1.351 7.888.256 1.964 1.789 3.284 3.724 3.998 5.732l.036 9.347h-.036l.036 6.938c-.714 2.008-2.07 3.979-4.034 5.732a6.475 6.475 0 0 0-.892-.365c-.036 0-.071 0-.071-.037a33.78 33.78 0 0 0-.893-.219c-.036 0-.036 0-.071-.036a4.28 4.28 0 0 0-.928-.11h-.179c-.321-.036-.607-.036-.928-.036h-.036c-.321 0-.642.036-.963.073h-.072a6.363 6.363 0 0 0-.892.182c-.072 0-.107.037-.179.037a7.792 7.792 0 0 0-.856.292h-.036a3.768 3.768 0 0 0-.857.438c-.178.11-.321.183-.464.292v4.382c-.428.182-.892.328-1.321.474-.142.037-.285.11-.428.146-.321.11-.642.219-.964.292-.071.037-.178.037-.25.073-.071.037-.142.037-.214.037-.321.109-.642.182-.928.256l-.428.109-1.392.329h-.072c-.428.073-.821.182-1.249.255-.143.037-.286.037-.464.073-.286.037-.607.11-.892.146-.036 0-.107 0-.143.037-.321.036-.643.073-.928.109 0-.073-.036-.109-.036-.182a.288.288 0 0 0-.071-.183.282.282 0 0 0-.072-.146c-.035-.073-.071-.109-.107-.182-.036-.037-.036-.073-.071-.146-.036-.073-.107-.146-.143-.219-.036-.037-.071-.074-.071-.11l-.322-.329c-.107-.109-.214-.182-.321-.292-.036-.036-.071-.036-.107-.073-.071-.073-.178-.109-.25-.182-.036-.037-.071-.037-.107-.073a3.817 3.817 0 0 0-.535-.292c-.036 0-.036-.037-.072-.037a4.639 4.639 0 0 0-.642-.256c-.072-.036-.107-.036-.179-.073-.107-.036-.214-.073-.321-.073-.071 0-.143-.036-.214-.036-.107-.037-.25-.037-.357-.073-.072 0-.107-.037-.179-.037-.214-.036-.428-.073-.678-.073-.071 0-.107 0-.178-.036-.143 0-.286-.037-.429-.037h-1.142c-.107 0-.178.037-.286.037-.107 0-.214.036-.285.036-.107 0-.179.037-.25.037-.107 0-.214.036-.286.036-.107 0-.178.037-.249.037-.107.036-.215.036-.322.073-.071.036-.142.036-.214.073a11.67 11.67 0 0 0-.607.219c-.107.036-.214.11-.321.146-.036.037-.107.037-.143.073l-.428.219c-.928.548-1.571 1.278-1.713 2.118-.429-.073-.857-.11-1.285-.183-.108-.036-.215-.036-.322-.036-.321-.037-.642-.11-.964-.183h-.035a1.02 1.02 0 0 1-.322-.073c-.321-.073-.642-.146-.928-.182-.178-.037-.321-.073-.499-.11-.25-.073-.536-.109-.786-.182-.178-.037-.357-.11-.535-.147-.25-.073-.464-.146-.714-.182-.178-.037-.357-.11-.571-.146-.214-.073-.464-.146-.678-.219-.072-.037-.143-.037-.25-.073-.072-.037-.143-.037-.214-.073-.536-.183-1.071-.365-1.607-.584v-4.418c-.035-.037-.107-.073-.142-.11a.739.739 0 0 1-.215-.146 5.09 5.09 0 0 0-.785-.365c-.071-.037-.178-.073-.25-.11-.25-.073-.5-.182-.785-.255h-.036a6.898 6.898 0 0 0-.856-.146c-.108 0-.179-.037-.286-.037a7.465 7.465 0 0 0-.892-.073h-.072c-.321 0-.642 0-.964.037h-.071c-.321.036-.607.073-.928.109-.036 0-.107.037-.143.037-.285.036-.571.146-.857.219a.656.656 0 0 1-.249.073 4.55 4.55 0 0 0-.75.292c-.107-.073-.179-.183-.286-.256l-.142-.146c-.215-.219-.464-.438-.643-.657-.071-.073-.143-.146-.178-.219-.25-.292-.5-.584-.714-.876l-.036-.037a.779.779 0 0 0-.143-.182 5.275 5.275 0 0 1-.392-.548c-.072-.11-.108-.183-.179-.292l-.321-.548c-.036-.036-.072-.109-.107-.146-.036-.036-.036-.109-.072-.146-.071-.146-.178-.329-.249-.475-.036-.109-.108-.219-.143-.328-.072-.183-.143-.329-.214-.511l-.108-.219c-.035-.037-.035-.11-.071-.183l-.036-9.347c-.035.109 0 .109 0 .109Zm18.205 1.57c5.283 3.14 13.886 3.14 19.204 0a16.952 16.952 0 0 0 1.464-1.022c-.143-.109-.25-.219-.428-.329-.036-.036-.072-.036-.108-.073a11.714 11.714 0 0 1-.856-.584c-.286-.182-.607-.328-.928-.511-.072-.036-.143-.073-.25-.109-.286-.147-.571-.256-.893-.402-.035 0-.071-.037-.107-.037-.321-.109-.642-.255-.963-.328-.25-.073-.464-.146-.714-.219-.179-.037-.357-.11-.536-.146a5.38 5.38 0 0 0-.749-.146 16.602 16.602 0 0 0-.572-.11c-.071 0-.142-.036-.214-.036a8.282 8.282 0 0 0-.928-.147c-.071 0-.178-.036-.285-.036-.179-.037-.357-.037-.536-.037-.321-.036-.607-.036-.928-.073-.178 0-.393 0-.571-.036h-.75c-.214 0-.428 0-.606.036-.215 0-.464.037-.679.037-.214 0-.428.036-.642.036-.214.037-.464.037-.678.073-.215.037-.393.037-.607.074-.25.036-.5.073-.714.109-.179.037-.393.073-.571.11l-.857.219a2.878 2.878 0 0 0-.535.146c-.107.036-.179.073-.286.073-.286.073-.535.182-.821.292-.071.036-.178.036-.25.109-.25.11-.5.219-.714.329-.107.036-.25.11-.357.146-.357.183-.678.329-.999.511-.536.329-1.035.694-1.464 1.059.464.365.928.694 1.428 1.022Z"/><path fill="url(#paint1_linear_7740_6932)" d="M237.748 272.436a.278.278 0 0 0-.072-.182c0-.037-.035-.073-.035-.146a22.04 22.04 0 0 1-.107-.219c0-.037-.036-.073-.036-.11l-.215-.329-.035-.036c-.107-.11-.179-.219-.286-.329-.036-.036-.071-.073-.107-.073a2.546 2.546 0 0 0-.357-.292l-.036-9.346c.143.109.25.182.357.292l.036.036c.036 0 .036.037.036.037.107.109.214.219.285.328l.036.037v.036l.214.329v.036c0 .037.036.037.036.073l.107.219.036.037c0 .036 0 .036.036.073.035.073.035.146.071.183 0 .036 0 .036.036.073v.036c0 .073.036.146.036.219V263.528l.035 9.346v-.146c0-.073 0-.146-.035-.219 0 0-.036-.036-.036-.073Z"/><path fill="url(#paint2_linear_7740_6932)" d="m267.588 261.374.036 9.347c-.893.657-1.322 1.424-1.322 2.227l-.035-9.347c0-.804.428-1.57 1.321-2.227Z"/><path fill="url(#paint3_linear_7740_6932)" d="M229.306 284.339c0-.073-.036-.109-.036-.182 0-.037-.036-.073-.071-.146-.036-.073-.072-.146-.072-.183-.035-.036-.035-.073-.071-.109-.036-.073-.071-.146-.143-.219-.036-.037-.036-.073-.071-.11-.107-.11-.214-.256-.321-.365l-.072-.073c-.071-.073-.178-.146-.25-.219-.035-.037-.071-.073-.142-.073-.072-.073-.143-.11-.25-.183-.036-.036-.072-.036-.107-.073-.179-.109-.357-.219-.571-.292a4.832 4.832 0 0 0-.643-.256c-.071 0-.107-.036-.178-.073-.107-.036-.214-.073-.322-.073-.071-.036-.142-.036-.214-.073a1.261 1.261 0 0 0-.357-.073c-.071-.036-.107-.036-.178-.036a3.817 3.817 0 0 0-.678-.073c-.143 0-.286-.037-.464-.037l-.036-9.347c.143 0 .25 0 .393.036h.071l.643.11h.035c.072 0 .143.036.179.036.107.037.214.037.285.073.072.037.143.037.25.073.107.037.179.073.286.073.035 0 .071 0 .071.037.036 0 .036.036.071.036.215.074.429.147.643.256.214.11.392.183.571.292.036 0 .036.037.071.037.036 0 .036.036.072.036.071.037.178.11.25.183.035.036.071.073.142.073.107.073.179.146.25.219.036 0 .036.036.072.073.107.109.214.219.321.365l.035.037c0 .036.036.036.036.073.036.073.107.146.143.219 0 .036.036.036.036.073 0 0 0 .036.035.036.036.073.072.11.072.183 0 .036.035.073.035.109v.037c.036.073.036.109.036.182 0 .037.036.073.036.11v.036c0 .073 0 .147.035.183v.183l.036 9.347v-.182c0-.074 0-.147-.036-.183.107-.073.072-.146.072-.183Z"/><path fill="url(#paint4_linear_7740_6932)" d="M242.371 269.81a8.53 8.53 0 0 1 1-.511c.107-.037.214-.11.356-.146.215-.073.393-.183.607-.292.036 0 .072-.037.107-.037.072-.037.143-.073.25-.11.25-.109.536-.182.821-.292.107-.036.179-.073.286-.109.071-.037.143-.037.178-.073.107-.037.25-.073.357-.073.286-.073.536-.146.821-.219.072 0 .143-.037.25-.073.107-.037.214-.037.357-.073.25-.037.464-.11.714-.146.107 0 .179-.037.286-.037.107 0 .214-.036.321-.036a4.22 4.22 0 0 1 .678-.073c.107 0 .214-.037.321-.037h.286c.25-.036.464-.036.678-.036H253.008c.286 0 .607.036.893.073.143 0 .25 0 .392.036.072 0 .108 0 .179.037.071 0 .178.036.25.036.321.037.642.073.964.146.071 0 .142.037.214.037.035 0 .071 0 .107.036.178.037.321.073.464.11.25.073.5.109.714.146.178.036.357.109.535.146.25.073.464.146.714.219.036 0 .107.036.143.036.285.11.571.183.821.292.036 0 .071.037.143.074.285.109.571.255.856.365.072.036.179.073.25.109.321.146.607.329.928.475.072.036.107.073.179.109.25.146.464.292.678.475.036.037.071.037.107.073.25.183.464.365.714.584.036.037.071.037.107.073l.107.11.5.511.107.109c.107.11.179.22.25.293.071.073.107.182.178.255.036.037.036.073.072.11.107.146.214.328.285.474.036.037.072.11.072.183.035.036.035.073.035.109.072.183.179.366.25.512 0 .036.036.073.036.146 0 .036.036.073.036.109.071.183.107.365.142.548 0 .036 0 .073.036.109v.11c.036.183.036.402.072.584v.11l.035 9.347c0-.256-.035-.475-.071-.694v-.109a4.435 4.435 0 0 0-.179-.658c0-.036 0-.073-.035-.109-.072-.219-.179-.438-.25-.657 0-.037-.036-.073-.072-.11a6.315 6.315 0 0 0-.392-.657c0-.037-.036-.073-.072-.073-.142-.183-.285-.402-.464-.584-.035-.037-.071-.073-.071-.11-.179-.219-.393-.402-.607-.621-.036-.036-.071-.036-.071-.073-.214-.182-.464-.401-.714-.584-.036-.036-.072-.036-.107-.073a11.728 11.728 0 0 1-.857-.584c-.286-.183-.607-.329-.928-.511a1.704 1.704 0 0 0-.25-.11c-.286-.146-.571-.255-.892-.401-.036 0-.072-.037-.107-.037-.322-.109-.643-.256-.964-.329-.25-.073-.464-.146-.714-.219-.179-.036-.357-.109-.536-.146-.249-.073-.499-.109-.749-.146-.179-.036-.357-.073-.571-.109-.072 0-.143-.037-.214-.037a8.296 8.296 0 0 0-.929-.146c-.071 0-.178-.036-.285-.036-.179-.037-.357-.037-.536-.037-.321-.036-.606-.036-.928-.073-.178 0-.392 0-.571-.036h-.749c-.215 0-.429 0-.607.036-.214 0-.464.037-.678.037-.215 0-.429.036-.643.036-.214.037-.464.037-.678.073-.214.037-.393.037-.607.073-.25.037-.5.073-.714.11-.178.036-.393.073-.571.109l-.857.219c-.178.037-.357.073-.535.146-.107.037-.179.073-.286.073-.285.073-.535.183-.821.293-.071.036-.178.036-.25.109-.249.11-.499.219-.714.329-.107.036-.249.109-.356.146-.357.182-.679.328-1 .511-2.677 1.57-3.998 3.651-3.998 5.732l-.036-9.347c0-2.008 1.357-4.053 4.034-5.659Z"/><path fill="url(#paint5_linear_7740_6932)" d="M276.253 273.023c.215-.11.464-.256.714-.365.036 0 .072-.037.107-.037.036 0 .036-.036.072-.036.214-.11.464-.183.714-.256h.035c.036 0 .072 0 .072-.036.178-.037.321-.073.5-.11.071-.036.178-.036.249-.036.072 0 .108-.037.179-.037.036 0 .107-.036.143-.036.178-.037.357-.037.571-.074h.25l.036 9.348c-.322 0-.643.036-.929.109-.071 0-.107.037-.178.037-.25.036-.5.109-.75.182-.035 0-.071 0-.107.037a4.995 4.995 0 0 0-.785.292c-.036 0-.072.036-.072.036-.249.11-.499.219-.714.365-1.07.621-1.749 1.497-1.749 2.483l-.035-9.347c-.036-.986.606-1.862 1.677-2.519Z"/><path fill="url(#paint6_linear_7740_6932)" d="M224.212 279.411c.071.146.143.292.179.475.035.109.107.219.178.328l.214.438c.072.11.107.22.179.329.107.183.214.365.321.511.071.11.143.219.178.292.143.183.25.365.393.548.071.073.107.146.178.219.215.292.464.584.714.876l.179.183.642.657c.143.146.286.256.429.402l.035 9.347c-.107-.073-.178-.183-.285-.256l-.143-.146c-.214-.219-.464-.438-.643-.657a.98.98 0 0 1-.178-.219c-.25-.292-.5-.584-.714-.877 0-.036-.036-.036-.036-.036-.035-.073-.107-.146-.142-.183a5.175 5.175 0 0 1-.393-.547c-.071-.11-.107-.183-.178-.292l-.322-.548a.479.479 0 0 0-.107-.146c-.035-.037-.035-.11-.071-.146-.072-.146-.179-.329-.25-.475-.036-.109-.107-.219-.143-.328-.071-.183-.143-.329-.214-.512l-.107-.219c-.036-.036-.036-.109-.071-.182l-.036-9.347c.107.219.178.365.214.511Z"/><path fill="#EFF1FE" d="m279.782 278.974.035 9.347c-.713 2.008-2.07 3.979-4.033 5.732l-.036-9.347c1.963-1.753 3.32-3.724 4.034-5.732Z"/><path fill="url(#paint7_linear_7740_6932)" d="M228.452 284.559c.107-.036.25-.073.357-.109a.502.502 0 0 1 .25-.073c.036 0 .071-.037.107-.037.214-.073.393-.109.607-.146.036 0 .071 0 .107-.036.036 0 .107 0 .143-.037.107 0 .214-.036.321-.073.178-.037.393-.037.571-.073H231.022c.143 0 .321-.037.464-.037H232.057c.214 0 .429.037.643.037a.44.44 0 0 1 .214.037c.071 0 .178.036.285.036.107 0 .179.037.286.037.214.036.393.073.571.109h.036c.178.037.321.11.499.146.108.037.179.073.286.11.071.036.178.073.25.109.285.11.535.219.785.365.036 0 .036.037.072.037a.485.485 0 0 1 .142.109c.072.037.143.11.214.146a.626.626 0 0 1 .179.146c.071.037.107.11.178.146l.036.037.072.073c.107.073.178.183.249.256l.072.073s.035.036.035.073c.036.073.108.146.143.219 0 .036.036.073.072.109 0 0 0 .037.035.037.036.073.072.146.072.182 0 .037.035.073.035.11v.036c.036.073.036.11.036.183 0 .036.036.073.036.109v.037c0 .073 0 .109.035.182v.147l.036 9.383v-.183c0-.073 0-.146-.036-.182 0-.037-.035-.11-.035-.183s-.036-.109-.036-.182-.036-.11-.071-.146c-.036-.073-.072-.11-.072-.183-.035-.036-.035-.073-.071-.146-.036-.073-.071-.146-.143-.183l-.107-.109c-.071-.073-.143-.183-.25-.256a10.897 10.897 0 0 0-.107-.109.62.62 0 0 0-.178-.146c-.072-.037-.107-.073-.179-.146a.735.735 0 0 0-.214-.146c-.071-.037-.143-.073-.214-.146a5.18 5.18 0 0 0-.785-.365c-.072-.037-.179-.074-.25-.11-.25-.11-.5-.183-.786-.256h-.035c-.286-.073-.571-.109-.857-.182-.107 0-.178-.037-.285-.037a7.465 7.465 0 0 0-.893-.073h-.071c-.321 0-.643 0-.964.037h-.071c-.322.036-.607.073-.928.109-.036 0-.107 0-.143.037l-.857.219c-.071.036-.178.036-.25.073a4.664 4.664 0 0 0-.749.292l-.036-9.347c.179-.036.321-.109.464-.146Z"/><path fill="url(#paint8_linear_7740_6932)" d="M267.871 284.961c.285-.146.535-.292.857-.402.035 0 .071 0 .071-.036l.642-.219c.072 0 .108-.037.179-.037s.143-.036.178-.036c.072-.037.179-.037.25-.073.179-.037.393-.073.571-.11h.143c.143 0 .286-.036.429-.036.178 0 .357-.037.535-.037H272.404c.107 0 .214 0 .322.037H273.047l.749.109H273.903c.286.073.607.146.893.219.036 0 .071 0 .107.037h.036l.856.328.036 9.348a6.526 6.526 0 0 0-.892-.365c-.036 0-.072 0-.072-.037a3.596 3.596 0 0 0-.892-.219h-.072a4.261 4.261 0 0 0-.928-.109h-.178c-.321-.037-.607-.037-.928-.037h-.036c-.321 0-.642.037-.964.073h-.071c-.321.037-.607.11-.892.183-.072 0-.108.036-.179.036-.286.073-.571.183-.857.292h-.035c-.286.11-.607.256-.857.438-1.178.694-1.749 1.571-1.749 2.483l-.036-9.347c-.071-.876.5-1.789 1.678-2.483Z"/><path fill="url(#paint9_linear_7740_6932)" d="M236.319 289.635c.535.219 1.07.401 1.606.584.143.036.285.109.428.146.214.073.464.146.714.219.178.037.357.11.535.146l.75.219c.178.037.321.073.5.146.25.073.535.146.821.183.142.036.321.073.464.109.321.073.642.146.963.183.108 0 .215.036.322.073.321.073.642.109.963.182.108 0 .215.037.322.037.428.073.856.11 1.285.183l.035 9.347c-.428-.037-.856-.11-1.285-.183-.107-.037-.214-.037-.321-.037-.321-.036-.642-.109-.964-.146h-.035c-.107-.036-.214-.036-.322-.073-.321-.073-.642-.109-.928-.182-.178-.037-.321-.073-.499-.11-.25-.073-.536-.109-.786-.182-.178-.037-.357-.11-.535-.146-.25-.073-.464-.146-.714-.183-.178-.036-.357-.109-.571-.182-.214-.073-.464-.146-.678-.219-.072-.037-.143-.037-.25-.074-.071-.036-.143-.036-.214-.073a27.728 27.728 0 0 1-1.606-.584v-9.383Z"/><path fill="url(#paint10_linear_7740_6932)" d="m247.697 289.925.428-.219c.036-.036.072-.037.143-.073.107-.037.214-.11.321-.146l.643-.219c.036 0 .036-.037.071-.037.036 0 .107-.036.143-.036.107-.037.25-.073.357-.11.036 0 .071-.036.143-.036h.107c.107-.037.178-.037.285-.037.072 0 .107-.036.179-.036h.107c.071 0 .178-.037.25-.037.071 0 .143 0 .178-.036h.143c.107 0 .178 0 .286-.037H252.373c.143 0 .285.037.393.037h.214l.642.109h.036c.071 0 .107.037.143.037.107.036.25.036.357.073.071 0 .142.036.214.073.107.036.214.036.285.073.036 0 .072 0 .107.036.036 0 .036.037.072.037.214.073.428.146.642.255.036 0 .036.037.072.037.214.11.392.183.571.292.035 0 .035.037.071.037 0 0 .036 0 .036.036.107.073.178.11.25.183.035.036.071.036.107.073.107.073.214.182.321.292l.036.036c.107.11.214.219.285.329l.036.036s.036.037.036.074c.035.073.107.146.142.219 0 .036.036.036.036.073 0 0 0 .036.036.036a.61.61 0 0 1 .071.183c0 .036.036.073.036.109v.037c.036.073.036.146.071.182 0 .037.036.073.036.11v.073l.036 9.347c0-.073-.036-.109-.036-.182s-.036-.11-.071-.183c0-.036-.036-.073-.072-.146a.752.752 0 0 0-.107-.182c-.036-.037-.036-.073-.071-.146-.036-.073-.107-.147-.143-.22-.036-.036-.071-.073-.071-.109l-.322-.329c-.107-.109-.214-.182-.321-.292-.036-.036-.071-.036-.107-.073-.071-.073-.178-.109-.25-.182-.036-.037-.071-.037-.107-.073-.178-.11-.357-.183-.535-.293-.036 0-.036-.036-.072-.036-.214-.11-.428-.183-.642-.256-.072-.036-.107-.036-.179-.073l-.321-.109c-.071 0-.143-.037-.214-.037-.107-.036-.25-.036-.357-.073-.071 0-.107-.036-.178-.036a3.839 3.839 0 0 0-.679-.073c-.071 0-.107 0-.178-.037-.143 0-.286 0-.428-.036h-.857c-.107 0-.179 0-.286.036-.107 0-.178 0-.285.037-.107 0-.214.036-.286.036-.107 0-.178 0-.25.037a.65.65 0 0 0-.285.073c-.107 0-.179.036-.25.036a1.008 1.008 0 0 1-.321.073c-.072.037-.143.037-.214.073-.215.073-.429.146-.607.219-.107.037-.214.11-.321.146-.036.037-.108.037-.143.073l-.429.22c-.928.547-1.57 1.314-1.713 2.117l-.036-9.347c.107-.84.75-1.57 1.678-2.118Z"/><path fill="#EFF1FE" d="M258.828 291.862c.286-.037.571-.11.857-.146.142-.037.321-.037.464-.073.392-.073.749-.146 1.142-.219.071 0 .107-.037.178-.037a9.607 9.607 0 0 0 1.392-.328l.429-.11c.321-.073.606-.182.928-.255.178-.037.321-.11.499-.146.322-.11.643-.183.964-.293.143-.036.286-.073.393-.146.464-.146.892-.328 1.356-.474l.036 9.347c-.429.182-.893.328-1.321.474-.143.037-.285.11-.428.146a9.83 9.83 0 0 1-.964.293.655.655 0 0 1-.25.073c-.071.036-.142.036-.214.073-.321.073-.642.182-.928.255l-.428.11-1.392.328h-.072c-.428.11-.821.183-1.249.256-.143.036-.286.036-.464.073-.286.036-.607.109-.892.146-.036 0-.107 0-.143.036-.321.037-.643.073-.928.11l-.036-9.347c.321-.036.714-.073 1.071-.146Z"/><path fill="url(#paint11_linear_7740_6932)" d="M235.913 284.961c2.142 1.278 2.284 3.286.393 4.674 2.998 1.168 6.282 1.971 9.673 2.373.143-.803.785-1.57 1.713-2.118 1.071-.62 2.535-1.022 4.177-1.022 3.07 0 5.568 1.387 5.854 3.14 3.391-.438 6.711-1.205 9.709-2.373-1.892-1.388-1.749-3.396.428-4.674 2.178-1.278 5.569-1.351 7.889-.256 1.963-1.789 3.32-3.724 4.034-5.732-2.963-.183-5.283-1.68-5.283-3.469 0-.986.678-1.826 1.749-2.483.928-.548 2.177-.913 3.569-.986-.714-2.008-2.034-3.98-3.998-5.732-2.32 1.132-5.747 1.022-7.888-.256-2.142-1.278-2.285-3.286-.393-4.674-2.998-1.168-6.282-1.971-9.673-2.373-.143.803-.786 1.57-1.714 2.118-1.071.62-2.534 1.022-4.176 1.022-3.07 0-5.533-1.387-5.854-3.14-3.427.438-6.711 1.205-9.709 2.373 1.892 1.351 1.749 3.396-.429 4.674-2.177 1.278-5.568 1.351-7.888.256-1.964 1.789-3.32 3.724-4.034 5.732 2.963.183 5.283 1.643 5.283 3.469 0 .949-.678 1.826-1.749 2.483-.928.548-2.178.913-3.57 1.022.714 2.009 2.035 3.98 3.998 5.733 2.32-1.132 5.747-1.059 7.889.219Zm25.594-3.761c-5.319 3.14-13.922 3.14-19.205 0-5.283-3.14-5.247-8.252.072-11.392 5.318-3.14 13.921-3.14 19.204 0 5.283 3.14 5.247 8.252-.071 11.392Z"/><path fill="#B7C0EB" d="M301.01 299.119v-2.722c.282-.795.824-1.566 1.601-2.265.895.434 2.261.41 3.109-.096.071-.048.118-.073.165-.121v-1.734c1.177-.458 2.473-.771 3.815-.94.118.699 1.107 1.229 2.308 1.229.636 0 1.225-.169 1.648-.41.377-.216.613-.505.66-.843 1.342.169 2.638.482 3.815.94v1.734c.047.024.094.072.141.097.848.505 2.191.53 3.109.096.777.699 1.295 1.469 1.578 2.264v3.686h-.024v2.722c-.282.795-.824 1.566-1.601 2.265l-.353-.145h-.024a1.93 1.93 0 0 0-.353-.096h-.024c-.117-.024-.235-.049-.376-.049h-.071c-.118 0-.236-.024-.377 0-.141 0-.259.025-.377.025h-.023l-.354.072c-.023 0-.047 0-.07.024-.118.024-.236.072-.33.096h-.023a1.424 1.424 0 0 0-.33.169.42.42 0 0 0-.165.12v1.711c-.165.072-.353.12-.518.192-.047.024-.118.024-.165.049-.118.048-.259.072-.377.12-.023 0-.07.024-.094.024-.024 0-.047.024-.094.024-.118.024-.259.072-.377.097-.047.024-.118.024-.165.048-.188.048-.353.096-.542.12h-.023c-.165.048-.33.072-.495.097-.047 0-.117.024-.165.024a1.773 1.773 0 0 1-.353.048h-.047c-.118.024-.235.024-.377.048 0-.024 0-.048-.023-.072 0-.024-.024-.048-.024-.073 0-.024-.023-.024-.023-.048s-.024-.048-.047-.072c0-.024-.024-.024-.024-.048-.024-.024-.024-.048-.047-.072 0-.025-.024-.025-.024-.049-.047-.048-.07-.096-.117-.12-.048-.048-.095-.072-.142-.121-.023 0-.023-.024-.047-.024-.023-.024-.07-.048-.094-.072 0 0-.024-.024-.047-.024-.071-.048-.141-.072-.212-.12 0 0-.024 0-.024-.025-.07-.024-.164-.072-.259-.096-.023 0-.047-.024-.07-.024-.047 0-.071-.024-.118-.024-.024 0-.047-.024-.071-.024-.047 0-.094-.024-.141-.024-.024 0-.047 0-.071-.024-.094-.024-.165-.024-.259-.024h-.8c-.048 0-.071 0-.118.024-.047 0-.071.024-.118.024s-.071 0-.118.024c-.047 0-.07.024-.094.024-.047 0-.094.024-.141.024-.024 0-.047.024-.094.024a.697.697 0 0 0-.236.096.372.372 0 0 1-.118.049c-.023 0-.047.024-.047.024-.047.024-.118.048-.165.096-.376.217-.612.506-.683.819a26.456 26.456 0 0 0-.518-.072c-.047 0-.07-.024-.118-.024-.117-.024-.259-.048-.376-.072-.047 0-.095-.025-.142-.025a10.801 10.801 0 0 0-.376-.072c-.071-.024-.118-.024-.189-.048-.094-.024-.212-.048-.306-.072-.071-.024-.141-.048-.212-.048a23.375 23.375 0 0 0-.283-.073l-.211-.072a.835.835 0 0 1-.26-.096c-.023 0-.07-.024-.094-.024-.023 0-.047-.025-.07-.025l-.636-.216v-1.735c-.024-.024-.047-.024-.071-.048-.023-.024-.047-.048-.094-.048a4.265 4.265 0 0 0-.306-.145c-.024-.024-.071-.024-.094-.048a1.163 1.163 0 0 0-.307-.096h-.023c-.118-.024-.212-.048-.33-.072-.047 0-.071 0-.118-.025-.117-.024-.235-.024-.353-.024H303.765c-.118 0-.235.024-.377.049-.023 0-.047 0-.047.024a7.35 7.35 0 0 0-.329.072c-.024 0-.071.024-.095.024-.094.048-.212.072-.306.12-.047-.024-.07-.072-.118-.096-.023-.024-.047-.024-.047-.048l-.259-.265-.07-.072c-.095-.121-.189-.217-.283-.338 0 0 0-.024-.024-.024-.023-.024-.023-.048-.047-.072-.047-.072-.117-.145-.165-.217-.023-.048-.047-.072-.07-.12a1.01 1.01 0 0 1-.118-.217c0-.024-.023-.048-.047-.072 0-.024-.024-.048-.024-.048-.023-.073-.07-.121-.094-.193-.023-.048-.047-.072-.047-.121-.023-.072-.047-.12-.071-.192 0-.024-.023-.049-.047-.097 0-.024-.023-.048-.023-.072l-.047-3.613s-.024 0 0 0Zm7.159.626c2.073 1.228 5.464 1.228 7.56 0 .212-.121.4-.265.589-.41a.427.427 0 0 0-.165-.12c-.024 0-.024-.024-.047-.024-.118-.072-.212-.145-.33-.217-.118-.072-.235-.144-.353-.193-.024-.024-.071-.024-.094-.048l-.354-.144c-.023 0-.023 0-.047-.024-.118-.049-.259-.097-.377-.145l-.282-.072c-.071-.024-.142-.048-.212-.048l-.283-.073c-.07-.024-.141-.024-.212-.048-.023 0-.07 0-.094-.024-.118-.024-.235-.048-.377-.048-.023 0-.07 0-.118-.024-.07 0-.141-.024-.211-.024-.118 0-.236-.024-.377-.024h-1.037c-.094 0-.164 0-.259.024-.094 0-.188.024-.259.024-.07.024-.164.024-.235.048-.094.024-.189.024-.283.048-.07.024-.141.024-.212.048-.117.024-.212.048-.329.073-.071.024-.142.048-.212.048-.047 0-.071.024-.118.024-.118.024-.212.072-.33.12-.023 0-.07.024-.094.024a1.354 1.354 0 0 1-.283.121l-.141.072c-.141.072-.259.145-.4.217-.212.12-.401.265-.589.409.188.145.377.289.565.41Z"/><path fill="url(#paint12_linear_7740_6932)" d="M306.395 296.3c0-.024-.024-.048-.024-.072 0-.024 0-.024-.024-.048 0-.024-.023-.048-.047-.097 0-.024-.023-.024-.023-.048-.024-.048-.047-.096-.095-.12h-.023a.293.293 0 0 0-.118-.121l-.024-.024c-.047-.048-.094-.072-.141-.12v-3.687c.047.049.094.073.141.121l.024.024v.024l.118.121c.023.048.071.096.094.12 0 0 0 .024.024.024.023.024.023.048.047.072v.049c0 .024.023.048.023.072v3.879-.121c.048-.024.048-.048.048-.048Z"/><path fill="url(#paint13_linear_7740_6932)" d="m318.148 291.938.024 3.687c-.354.265-.519.554-.519.867v-3.686c-.047-.313.142-.627.495-.868Z"/><path fill="url(#paint14_linear_7740_6932)" d="M303.073 300.973c0-.024-.024-.048-.024-.072 0-.024-.024-.024-.024-.048s-.023-.048-.023-.073c0-.024-.024-.024-.024-.048-.023-.024-.023-.048-.047-.096l-.047-.048c-.047-.048-.07-.097-.118-.145l-.023-.024c-.024-.024-.071-.048-.094-.096-.024 0-.024-.024-.047-.024-.024-.025-.071-.049-.095-.073-.023 0-.023-.024-.047-.024-.07-.048-.141-.072-.212-.12-.07-.024-.164-.073-.259-.097-.023 0-.047-.024-.07-.024-.047 0-.071-.024-.118-.024-.024 0-.047-.024-.094-.024-.047-.024-.094-.024-.141-.024-.024 0-.048 0-.071-.024-.094-.024-.165-.024-.259-.048-.071 0-.118 0-.189-.024l-.023-3.687h.188c.094 0 .165.025.259.049.024 0 .047 0 .071.024.047 0 .071.024.118.024.023 0 .07.024.094.024.047 0 .071.024.118.048h.047c.094.024.165.072.259.096.07.049.141.073.212.121h.023c.024 0 .024.024.024.024.047.024.07.048.094.072.024 0 .047.024.047.048a.19.19 0 0 1 .094.097l.024.024c.047.048.094.096.118.145l.023.024s0 .024.024.024c.023.024.047.048.047.072 0 0 0 .024.023.024v.024c.024.024.024.048.024.072 0 .025.023.025.023.049v.024c0 .024.024.048.024.072v3.903-.145c.094-.024.071-.048.071-.072Z"/><path fill="url(#paint15_linear_7740_6932)" d="M308.199 295.264c.118-.072.259-.144.4-.216l.142-.073c.07-.048.165-.072.235-.096.024 0 .024 0 .047-.024a.173.173 0 0 0 .094-.048c.095-.049.212-.073.33-.121.047 0 .071-.024.118-.048.023 0 .047-.024.071-.024.047-.024.094-.024.141-.024.118-.024.212-.072.33-.072.023 0 .07-.024.094-.024.047 0 .094-.025.141-.025.094-.024.188-.024.283-.048.047 0 .07-.024.117-.024s.095 0 .118-.024c.094 0 .188-.024.259-.024.047 0 .094-.024.118-.024h.118c.094 0 .188 0 .282-.024H312.438c.118 0 .235.024.353.024H313.003c.024 0 .071 0 .094.024.118.024.259.024.377.048.024 0 .047 0 .071.024h.047c.07 0 .118.024.188.048l.283.073a.67.67 0 0 0 .212.048l.282.072c.024 0 .047 0 .047.024.118.048.212.072.33.121.024 0 .024.024.047.024.118.048.236.096.33.144.023.024.07.024.094.048.118.073.236.121.353.193.024.024.047.024.071.048.094.049.188.121.282.193 0 0 .024.024.048.024l.282.217c.024 0 .024.024.024.024l.047.048c.07.073.141.121.188.193l.047.048c.047.048.071.072.095.121.023.048.047.072.07.096 0 .024.024.024.024.048.047.048.07.121.117.193 0 .024.024.048.024.072 0 0 .024.024.024.048.023.073.07.145.094.217 0 .024 0 .024.023.048 0 .024 0 .024.024.049.023.072.047.144.047.216v.097c0 .072.023.144.023.241v3.734c0-.097 0-.193-.023-.289v-.049c-.024-.096-.024-.168-.071-.265 0-.024 0-.024-.023-.048-.024-.096-.071-.168-.094-.265 0-.024-.024-.024-.024-.048-.047-.096-.094-.169-.141-.265l-.024-.024c-.047-.072-.118-.145-.165-.217 0-.024-.023-.024-.023-.048l-.236-.241-.023-.024-.283-.217c-.023 0-.023-.024-.047-.024-.118-.072-.212-.145-.33-.217a2.614 2.614 0 0 0-.353-.193c-.023-.024-.071-.024-.094-.048l-.353-.144c-.024 0-.024 0-.047-.024-.118-.049-.259-.097-.377-.145l-.283-.072a.67.67 0 0 0-.212-.048l-.282-.073c-.071-.024-.142-.024-.212-.048-.024 0-.071 0-.094-.024-.118-.024-.236-.048-.377-.048-.024 0-.071 0-.118-.024-.071 0-.141-.024-.212-.024-.118 0-.235-.024-.377-.024h-1.036c-.094 0-.165 0-.259.024-.094 0-.188.024-.259.024-.071.024-.165.024-.235.048-.095.024-.189.024-.283.048-.071.024-.141.024-.212.048-.118.025-.212.049-.33.073a.67.67 0 0 1-.212.048c-.047 0-.07.024-.117.024-.118.024-.212.072-.33.12-.024 0-.071.025-.094.025a1.429 1.429 0 0 1-.283.12l-.141.072c-.141.073-.259.145-.4.217-1.06.626-1.578 1.445-1.578 2.265v-3.686c-.024-.771.518-1.59 1.554-2.217Z"/><path fill="url(#paint16_linear_7740_6932)" d="m321.562 296.542.282-.145c.024 0 .024-.024.047-.024h.024c.094-.048.188-.072.282-.096h.048c.07-.024.141-.024.212-.048.047 0 .07-.024.094-.024h.117c.071 0 .142-.024.212-.024h.095v3.685c-.118 0-.259.024-.377.048h-.071c-.094.024-.212.048-.306.073h-.047c-.118.024-.212.072-.33.12 0 0-.023 0-.023.024l-.283.145c-.424.24-.683.602-.683.963v-3.685c.024-.434.283-.771.707-1.012Z"/><path fill="url(#paint17_linear_7740_6932)" d="M301.064 299.022c.023.073.047.121.071.193a.538.538 0 0 0 .07.121.74.74 0 0 0 .094.192c.024.049.047.073.071.121.047.072.071.144.118.217.023.048.047.072.07.12.048.072.095.145.165.217a.33.33 0 0 1 .071.096c.094.121.188.241.283.338l.07.072c.071.096.165.168.259.265.047.048.118.096.165.168l.024 3.686c-.047-.024-.071-.072-.118-.096l-.047-.048-.259-.265-.071-.072c-.094-.121-.188-.217-.282-.338l-.024-.024c-.024-.024-.024-.048-.047-.072-.047-.072-.118-.145-.165-.217-.024-.048-.047-.072-.071-.12-.047-.073-.094-.145-.117-.217 0-.024-.024-.048-.048-.072 0-.025-.023-.049-.023-.049-.024-.072-.071-.12-.094-.192-.024-.049-.047-.073-.047-.121-.024-.072-.047-.144-.071-.193a.187.187 0 0 0-.047-.096c0-.024-.024-.048-.024-.072v-3.686c-.023.048 0 .096.024.144Z"/><path fill="#EFF1FE" d="M322.946 298.878v3.686c-.282.795-.824 1.566-1.601 2.264v-3.686c.777-.722 1.319-1.493 1.601-2.264Z"/><path fill="url(#paint18_linear_7740_6932)" d="M302.738 301.069c.047-.024.094-.024.141-.048.024 0 .071-.024.094-.024.024 0 .024-.024.047-.024.071-.025.165-.049.236-.073h.094c.047 0 .094-.024.118-.024.07 0 .141-.024.235-.024h.471c.094 0 .189 0 .259.024.024 0 .047 0 .095.024.023 0 .07 0 .094.024.047 0 .07 0 .117.024.071.025.165.025.236.049h.023c.071.024.118.048.189.048.047.024.071.024.118.048.023.024.07.024.094.048.118.048.212.097.306.145 0 0 .024 0 .024.024.023 0 .047.024.07.048.024.024.047.048.094.048.024.024.047.024.071.048.024.024.047.049.071.049l.023.024.094.096.024.024s0 .024.024.024c.023.024.047.048.047.073l.023.024v.024c0 .024.024.048.024.072 0 0 .023.024.023.048s.024.048.024.072v3.904-.145c0-.024 0-.048-.024-.072 0-.024 0-.048-.023-.073 0-.024-.024-.048-.024-.048 0-.024-.023-.048-.023-.072 0-.024-.024-.048-.024-.048-.023-.024-.047-.048-.047-.072-.024-.025-.024-.049-.047-.049-.024-.024-.047-.072-.094-.096-.024 0-.024-.024-.047-.048l-.071-.073c-.024-.024-.047-.024-.071-.048-.023-.024-.047-.048-.094-.048-.023-.024-.047-.048-.094-.048a4.265 4.265 0 0 0-.306-.145c-.024-.024-.071-.024-.094-.024a1.163 1.163 0 0 0-.307-.096h-.023c-.118-.024-.212-.048-.33-.072-.047 0-.07-.024-.118-.024-.117 0-.235-.025-.353-.025H303.703c-.117 0-.235.025-.377.049h-.047c-.117.024-.235.048-.329.072a.18.18 0 0 0-.095.048 1.58 1.58 0 0 0-.306.121l-.023-3.687c.094-.072.141-.096.212-.096Z"/><path fill="url(#paint19_linear_7740_6932)" d="M318.242 301.238c.094-.072.212-.12.33-.168h.023c.071-.024.165-.048.259-.097.024 0 .047 0 .071-.024.023 0 .047-.024.07-.024.024-.024.071-.024.095-.024.07-.024.141-.024.235-.048H319.396c.047 0 .118-.024.165-.024.07 0 .141 0 .212-.024h.494c.094 0 .212.024.306.048h.047c.118.024.236.048.354.096h.07c.118.048.236.073.33.145v3.686l-.353-.144h-.024a1.934 1.934 0 0 0-.353-.097h-.024a1.786 1.786 0 0 0-.376-.048h-.448c-.141 0-.259.024-.377.024h-.023a36.65 36.65 0 0 0-.353.073c-.024 0-.048 0-.071.024-.118.024-.236.072-.33.096a2.268 2.268 0 0 0-.353.169c-.448.265-.683.626-.683.988v-3.687c-.047-.337.188-.675.636-.94Z"/><path fill="url(#paint20_linear_7740_6932)" d="m305.828 303.068.636.217a.427.427 0 0 0 .164.048c.095.024.189.073.283.097l.212.072.283.072c.07.024.141.048.211.048.095.025.212.049.307.073.07 0 .117.024.188.048.118.024.259.048.377.072.047 0 .094.024.118.024.117.024.259.048.376.073.047 0 .095.024.118.024.165.024.33.048.518.072v3.686c-.165-.024-.33-.048-.518-.072-.047 0-.071 0-.118-.024-.117-.024-.259-.048-.376-.073-.048 0-.095-.024-.142-.024-.118-.024-.235-.048-.377-.072-.07-.024-.117-.024-.188-.048-.094-.024-.212-.048-.306-.072-.071-.024-.141-.049-.212-.049l-.283-.072a51.96 51.96 0 0 0-.212-.072c-.094-.024-.188-.048-.259-.072-.023-.024-.07-.025-.094-.025-.023 0-.047-.024-.07-.024l-.636-.216v-3.711Z"/><path fill="url(#paint21_linear_7740_6932)" d="M310.295 303.164c.047-.024.118-.072.165-.096.023 0 .023-.025.047-.025.047-.024.07-.048.118-.048.07-.024.164-.048.259-.096h.07c.047-.024.094-.024.142-.024.023 0 .047 0 .047-.024h.047c.047 0 .07-.024.117-.024h.778c.047 0 .094 0 .164.024h.095c.094 0 .164.024.259.048h.023c.024 0 .024 0 .047.024.047 0 .094.024.142.024.023 0 .047.024.07.024.047 0 .071.024.118.024H313.074c.094.048.188.073.259.097h.023c.071.048.142.072.212.12 0 0 .024 0 .024.024.047.024.07.048.117.073.024 0 .024.024.048.024a.5.5 0 0 1 .117.096c.047.048.094.096.118.145 0 0 0 .024.024.024 0 0 0 .024.023.024a.33.33 0 0 1 .071.096s0 .024.023.024v.024c0 .024.024.048.047.073 0 .024.024.024.024.048v.024c0 .024.024.048.024.072v3.759c0-.024 0-.048-.024-.072 0-.025-.024-.049-.024-.073 0-.024-.023-.024-.023-.048s-.024-.048-.047-.072c0-.024-.024-.024-.024-.048-.023-.025-.023-.049-.047-.073 0-.024-.023-.024-.023-.048-.047-.048-.071-.096-.118-.144-.047-.049-.094-.073-.141-.121-.024 0-.024-.024-.048-.024-.023-.024-.07-.048-.094-.072 0 0-.023-.024-.047-.024-.07-.049-.141-.073-.212-.121 0 0-.023 0-.023-.024-.071-.024-.165-.072-.259-.096-.024 0-.047 0-.071-.024-.047 0-.071-.025-.118-.049-.023 0-.047 0-.07-.024-.048 0-.095-.024-.142-.024h-.07c-.095-.024-.165-.024-.259-.048h-.071c-.071 0-.118 0-.165-.024h-.565c-.047 0-.071 0-.118.024-.047 0-.07 0-.118.024-.047 0-.07.024-.117.024s-.071.024-.094.024c-.048 0-.095.024-.142.024-.023 0-.047.024-.094.024a.713.713 0 0 0-.235.097c-.048.024-.095.048-.118.048-.024 0-.047.024-.047.024-.047.024-.118.048-.165.097-.377.216-.612.505-.683.819v-3.687c.071-.361.33-.65.683-.867Z"/><path fill="#EFF1FE" d="M314.675 303.936c.118-.024.212-.049.33-.049.071 0 .118-.024.188-.024.142-.024.307-.048.448-.096.023 0 .047 0 .07-.024.189-.048.354-.072.542-.121.047-.024.118-.024.165-.048.118-.024.235-.072.377-.096.07-.024.117-.024.188-.048.118-.048.259-.073.377-.121.047-.024.118-.024.165-.048.188-.072.353-.12.541-.193v3.686a4.288 4.288 0 0 1-.518.193c-.047.024-.117.024-.165.048-.117.048-.259.072-.376.121-.024.024-.071.024-.095.024-.023 0-.047.024-.094.024-.117.024-.259.072-.376.096-.048.024-.118.024-.165.048-.189.049-.354.097-.542.121h-.024c-.164.048-.329.072-.494.096-.047 0-.118.024-.165.024-.118.024-.235.048-.353.048h-.047c-.118.025-.236.025-.377.049v-3.686c.118.024.259 0 .4-.024Z"/><path fill="url(#paint22_linear_7740_6932)" d="M305.69 301.238c.848.506.895 1.301.142 1.831 1.177.457 2.472.77 3.815.939.047-.313.306-.602.683-.819.424-.241 1.012-.409 1.648-.409 1.201 0 2.191.53 2.308 1.228a16.168 16.168 0 0 0 3.815-.939c-.73-.53-.682-1.325.165-1.831.848-.506 2.191-.53 3.109-.097.777-.698 1.295-1.469 1.601-2.264-1.177-.072-2.072-.65-2.072-1.373 0-.385.259-.723.683-.964a3.077 3.077 0 0 1 1.413-.385c-.283-.795-.801-1.566-1.578-2.264-.918.433-2.261.409-3.109-.097-.847-.506-.894-1.3-.141-1.855a16.18 16.18 0 0 0-3.815-.939c-.047.313-.306.602-.659.843-.424.241-1.013.41-1.649.41-1.201 0-2.19-.53-2.308-1.229-1.342.169-2.638.482-3.815.94.73.53.683 1.324-.165 1.854-.848.506-2.19.53-3.109.097-.777.698-1.319 1.469-1.601 2.264 1.177.072 2.072.651 2.072 1.373 0 .386-.259.723-.683.964-.376.217-.848.361-1.413.385.283.795.801 1.566 1.555 2.265.918-.482 2.26-.458 3.108.072Zm10.056-1.494c-2.096 1.229-5.487 1.229-7.559 0-2.073-1.228-2.073-3.252.023-4.48 2.096-1.229 5.487-1.229 7.56 0 2.096 1.228 2.072 3.228-.024 4.48Z"/><path fill="#B7C0EB" d="M260.628 330.496v-4.214c.437-1.23 1.276-2.424 2.479-3.505 1.385.671 3.499.634 4.812-.149.109-.075.182-.112.255-.187v-2.684c1.823-.709 3.828-1.194 5.906-1.455.182 1.082 1.713 1.902 3.572 1.902.984 0 1.896-.261 2.552-.634.583-.335.948-.783 1.021-1.305 2.078.261 4.083.746 5.905 1.454v2.685c.073.037.146.112.219.149 1.312.783 3.39.821 4.812.149 1.203 1.082 2.005 2.275 2.443 3.506v5.705h-.037v4.213c-.437 1.231-1.276 2.424-2.479 3.505l-.547-.223h-.036c-.182-.075-.365-.112-.547-.149h-.036a2.737 2.737 0 0 0-.584-.075h-.109c-.182 0-.365-.037-.583 0-.219 0-.401.037-.584.037h-.036l-.547.112c-.036 0-.073 0-.109.037-.183.038-.365.112-.511.15h-.036c-.182.074-.365.149-.51.261a.646.646 0 0 0-.256.186v2.648c-.255.111-.546.186-.802.298-.073.037-.182.037-.255.074-.182.075-.401.112-.583.187-.037 0-.109.037-.146.037-.036 0-.073.037-.146.037-.182.038-.401.112-.583.15-.073.037-.182.037-.255.074-.292.075-.547.149-.839.187h-.036c-.255.074-.51.111-.766.149-.073 0-.182.037-.255.037-.182.037-.364.075-.547.075h-.073c-.182.037-.364.037-.583.074 0-.037 0-.074-.036-.112 0-.037-.037-.074-.037-.112 0-.037-.036-.037-.036-.074s-.037-.075-.073-.112c0-.037-.037-.037-.037-.075-.036-.037-.036-.074-.072-.111 0-.038-.037-.038-.037-.075-.073-.075-.109-.149-.182-.186-.073-.075-.146-.112-.219-.187-.036 0-.036-.037-.073-.037-.036-.037-.109-.075-.146-.112 0 0-.036-.037-.073-.037-.109-.075-.218-.112-.328-.187 0 0-.036 0-.036-.037-.109-.037-.255-.112-.401-.149-.037 0-.073-.037-.109-.037-.073 0-.11-.038-.183-.038-.036 0-.073-.037-.109-.037-.073 0-.146-.037-.219-.037-.036 0-.073 0-.109-.038-.146-.037-.255-.037-.401-.037h-1.24c-.073 0-.109 0-.182.037-.073 0-.109.038-.182.038s-.11 0-.182.037c-.073 0-.11.037-.146.037-.073 0-.146.038-.219.038-.036 0-.073.037-.146.037a1.056 1.056 0 0 0-.364.149c-.073.037-.146.075-.183.075-.036 0-.073.037-.073.037-.072.037-.182.074-.255.149-.583.336-.948.783-1.057 1.268-.255-.037-.51-.075-.802-.112-.073 0-.109-.037-.182-.037-.183-.038-.401-.075-.583-.112-.073 0-.146-.038-.219-.038a17.403 17.403 0 0 0-.583-.111c-.11-.038-.183-.038-.292-.075-.146-.037-.328-.075-.474-.112a1.05 1.05 0 0 0-.328-.074 70.322 70.322 0 0 0-.438-.112 31.542 31.542 0 0 0-.328-.112c-.145-.037-.291-.075-.401-.149-.036 0-.109-.038-.145-.038-.037 0-.073-.037-.11-.037l-.984-.335v-2.685c-.037-.038-.073-.038-.11-.075-.036-.037-.072-.074-.145-.074-.146-.075-.292-.15-.474-.224-.037-.037-.11-.037-.146-.075a1.792 1.792 0 0 0-.474-.149h-.036c-.183-.037-.329-.074-.511-.112-.073 0-.109 0-.182-.037-.182-.037-.365-.037-.547-.037h-.656c-.182 0-.365.037-.583.074-.037 0-.073 0-.073.038-.183.037-.365.074-.511.111-.036 0-.109.038-.145.038-.146.074-.329.112-.474.186-.073-.037-.11-.112-.183-.149-.036-.037-.073-.037-.073-.075l-.401-.41-.109-.112c-.146-.186-.292-.335-.437-.522 0 0 0-.037-.037-.037-.036-.037-.036-.075-.073-.112-.073-.112-.182-.224-.255-.335-.036-.075-.073-.112-.109-.187-.073-.112-.146-.224-.183-.335 0-.038-.036-.075-.072-.112 0-.038-.037-.075-.037-.075-.036-.112-.109-.186-.146-.298-.036-.075-.073-.112-.073-.187-.036-.111-.073-.186-.109-.298 0-.037-.036-.075-.073-.149 0-.037-.036-.075-.036-.112l-.073-5.593s-.037 0 0 0Zm11.082.969c3.208 1.902 8.457 1.902 11.702 0 .328-.186.62-.41.911-.634-.073-.074-.146-.149-.255-.186-.036 0-.036-.037-.073-.037-.182-.112-.328-.224-.51-.336a3.88 3.88 0 0 0-.547-.298c-.036-.038-.109-.038-.146-.075l-.547-.224c-.036 0-.036 0-.073-.037-.182-.074-.401-.149-.583-.224l-.437-.111a1.031 1.031 0 0 0-.328-.075l-.438-.112c-.109-.037-.219-.037-.328-.074-.036 0-.109 0-.146-.038a2.786 2.786 0 0 0-.583-.074c-.036 0-.109 0-.182-.038-.11 0-.219-.037-.328-.037-.183 0-.365-.037-.584-.037H276.631c-.145 0-.255 0-.401.037-.145 0-.291.037-.401.037-.109.038-.255.038-.364.075-.146.037-.292.037-.438.075-.109.037-.218.037-.328.074-.182.037-.328.075-.51.112-.109.037-.219.075-.328.075-.073 0-.11.037-.182.037-.183.037-.329.112-.511.186-.036 0-.109.038-.146.038-.145.074-.291.149-.437.186l-.219.112c-.219.112-.401.224-.62.335-.328.187-.619.411-.911.634.292.224.583.448.875.634Z"/><path fill="url(#paint23_linear_7740_6932)" d="M268.952 326.134c0-.038-.036-.075-.036-.112 0-.038 0-.038-.037-.075 0-.037-.036-.075-.073-.149 0-.037-.036-.037-.036-.075-.037-.074-.073-.149-.146-.186h-.037a.444.444 0 0 0-.182-.187l-.037-.037c-.073-.075-.146-.112-.219-.186v-5.707c.073.075.146.112.219.187l.037.037v.037l.182.187c.037.075.11.149.146.186 0 0 0 .038.037.038.036.037.036.074.073.112v.074c0 .037.036.075.036.112v6.005-.187c.073-.037.073-.074.073-.074Z"/><path fill="url(#paint24_linear_7740_6932)" d="m287.14 319.381.037 5.706c-.548.41-.803.858-.803 1.342v-5.706c-.073-.484.219-.969.766-1.342Z"/><path fill="url(#paint25_linear_7740_6932)" d="M263.805 333.367c0-.037-.037-.075-.037-.112 0-.037-.036-.037-.036-.075 0-.037-.037-.074-.037-.112 0-.037-.036-.037-.036-.074-.037-.037-.037-.075-.073-.149l-.073-.075c-.073-.074-.109-.149-.182-.224l-.037-.037c-.036-.037-.109-.075-.146-.149-.036 0-.036-.037-.072-.037-.037-.038-.11-.075-.146-.112-.037 0-.037-.038-.073-.038-.11-.074-.219-.111-.328-.186-.11-.037-.255-.112-.401-.149-.037 0-.073-.038-.11-.038-.072 0-.109-.037-.182-.037-.036 0-.073-.037-.146-.037-.072-.037-.145-.037-.218-.037-.037 0-.073 0-.11-.038-.145-.037-.255-.037-.401-.074-.109 0-.182 0-.291-.038l-.037-5.706h.292c.146 0 .255.038.401.075.036 0 .073 0 .109.037.073 0 .11.038.183.038.036 0 .109.037.145.037.073 0 .11.037.183.075h.072c.146.037.256.111.401.149.11.074.219.112.328.186h.037c.036 0 .036.037.036.037.073.038.11.075.146.112.037 0 .073.038.073.075a.29.29 0 0 1 .146.149l.036.037c.073.075.146.15.183.224l.036.037s0 .038.036.038c.037.037.073.074.073.112 0 0 0 .037.037.037v.037c.036.038.036.075.036.112 0 .037.037.037.037.075v.037c0 .037.036.075.036.112v6.041-.223c.146-.038.11-.075.11-.112Z"/><path fill="url(#paint26_linear_7740_6932)" d="M271.738 324.53c.182-.112.401-.224.62-.336l.218-.112c.11-.074.255-.112.365-.149.036 0 .036 0 .073-.037a.275.275 0 0 0 .145-.075c.146-.074.329-.112.511-.186.073 0 .109-.038.182-.075.037 0 .073-.037.109-.037.073-.037.146-.037.219-.037.182-.038.328-.112.51-.112.037 0 .11-.038.146-.038.073 0 .146-.037.219-.037.146-.037.292-.037.437-.074.073 0 .11-.038.183-.038s.145 0 .182-.037c.146 0 .292-.037.401-.037.073 0 .146-.038.182-.038h.182c.146 0 .292 0 .438-.037H278.299c.182 0 .365.037.547.037h.328c.036 0 .109 0 .146.038.182.037.401.037.583.074.037 0 .073 0 .109.038h.073c.11 0 .183.037.292.074l.437.112c.11.037.219.075.328.075l.438.111c.036 0 .073 0 .073.038.182.074.328.112.51.186.037 0 .037.037.073.037.182.075.365.15.51.224.037.037.11.037.146.075.182.112.365.186.547.298.036.037.073.037.109.075.146.074.292.186.438.298 0 0 .036.037.073.037l.437.336c.036 0 .036.037.036.037l.073.075c.11.112.219.186.292.298l.073.075a.66.66 0 0 1 .146.186c.036.075.073.112.109.149 0 .038.036.038.036.075.073.074.11.186.183.298 0 .037.036.075.036.112 0 0 .037.037.037.075.036.112.109.223.145.335 0 .038 0 .038.037.075 0 .037 0 .037.036.074.037.112.073.224.073.336v.149c0 .112.037.224.037.373v5.78c0-.149 0-.298-.037-.447v-.075c-.036-.149-.036-.261-.109-.41 0-.038 0-.038-.037-.075-.036-.149-.109-.261-.145-.41 0-.037-.037-.037-.037-.075-.073-.149-.146-.261-.219-.41l-.036-.037c-.073-.112-.182-.224-.255-.336 0-.037-.037-.037-.037-.074l-.364-.373-.037-.037-.437-.336c-.036 0-.036-.037-.073-.037-.182-.112-.328-.224-.51-.336a3.88 3.88 0 0 0-.547-.298c-.036-.038-.109-.038-.146-.075l-.547-.224c-.036 0-.036 0-.072-.037-.183-.074-.401-.149-.584-.224l-.437-.111a1.025 1.025 0 0 0-.328-.075l-.438-.112c-.109-.037-.218-.037-.328-.075-.036 0-.109 0-.145-.037-.183-.037-.365-.074-.584-.074-.036 0-.109 0-.182-.038-.109 0-.219-.037-.328-.037-.182 0-.365-.037-.583-.037H276.659c-.146 0-.255 0-.401.037-.146 0-.292.037-.401.037-.109.038-.255.038-.365.075-.145.037-.291.037-.437.074-.109.038-.219.038-.328.075-.182.037-.328.075-.51.112-.11.037-.219.075-.328.075-.073 0-.11.037-.183.037-.182.037-.328.112-.51.186-.037 0-.109.038-.146.038-.146.074-.291.149-.437.186l-.219.112c-.219.112-.401.224-.62.335-1.64.97-2.442 2.238-2.442 3.506v-5.706c-.036-1.193.802-2.461 2.406-3.43Z"/><path fill="url(#paint27_linear_7740_6932)" d="m292.416 326.507.438-.224c.036 0 .036-.037.073-.037h.036c.146-.075.292-.112.438-.149h.072c.11-.037.219-.037.329-.075.072 0 .109-.037.145-.037h.183c.109 0 .218-.037.328-.037h.146v5.705c-.183 0-.401.037-.584.074h-.109c-.146.037-.328.075-.474.112h-.073c-.182.037-.328.112-.51.186 0 0-.037 0-.037.038l-.437.223c-.656.373-1.057.933-1.057 1.492v-5.705c.036-.671.437-1.193 1.093-1.566Z"/><path fill="url(#paint28_linear_7740_6932)" d="M260.698 330.347c.036.112.073.187.109.299.037.074.073.149.109.186.037.112.073.187.146.298.037.075.073.112.11.187.073.112.109.224.182.335.036.075.073.112.109.187.073.112.146.224.255.336a.503.503 0 0 1 .11.149c.146.186.292.373.437.522l.11.112c.109.149.255.261.401.41.073.074.182.149.255.261l.036 5.705c-.073-.037-.109-.112-.182-.149l-.073-.074-.401-.411-.109-.111c-.146-.187-.292-.336-.438-.523l-.036-.037c-.037-.037-.037-.074-.073-.112-.073-.112-.182-.223-.255-.335-.037-.075-.073-.112-.11-.187a1.559 1.559 0 0 1-.182-.335c0-.038-.036-.075-.073-.112 0-.038-.036-.075-.036-.075-.037-.112-.11-.186-.146-.298-.037-.075-.073-.112-.073-.187a2.625 2.625 0 0 0-.109-.298.289.289 0 0 0-.073-.149c0-.037-.037-.075-.037-.112v-5.705c-.036.074 0 .149.037.223Z"/><path fill="#EFF1FE" d="M294.573 330.124v5.705c-.437 1.231-1.276 2.424-2.478 3.505v-5.705c1.202-1.119 2.041-2.312 2.478-3.505Z"/><path fill="url(#paint29_linear_7740_6932)" d="M263.296 333.514c.073-.037.146-.037.218-.074.037 0 .11-.038.146-.038.037 0 .037-.037.073-.037.11-.037.255-.074.365-.112h.146c.072 0 .145-.037.182-.037.109 0 .218-.037.364-.037H265.519c.146 0 .292 0 .401.037.037 0 .073 0 .146.037.037 0 .11 0 .146.038.073 0 .109 0 .182.037.11.037.255.037.365.074h.036c.11.038.183.075.292.075.073.037.109.037.182.075.037.037.109.037.146.074.182.075.328.149.474.224 0 0 .036 0 .036.037.037 0 .073.038.11.075.036.037.073.074.145.074.037.038.073.038.11.075.036.037.073.075.109.075l.037.037.145.149.037.037s0 .038.036.038c.037.037.073.074.073.112l.037.037v.037c0 .037.036.075.036.112 0 0 .037.037.037.075 0 .037.036.074.036.112v6.041-.223c0-.038 0-.075-.036-.112 0-.038 0-.075-.037-.112 0-.037-.036-.075-.036-.075 0-.037-.037-.074-.037-.112 0-.037-.036-.074-.036-.074-.037-.038-.073-.075-.073-.112-.037-.037-.037-.075-.073-.075-.036-.037-.073-.112-.146-.149-.036 0-.036-.037-.073-.075l-.109-.111c-.037-.038-.073-.038-.109-.075-.037-.037-.073-.075-.146-.075-.037-.037-.073-.074-.146-.074a5.946 5.946 0 0 0-.474-.224c-.036-.037-.109-.037-.146-.037a1.745 1.745 0 0 0-.474-.149h-.036c-.182-.038-.328-.075-.51-.112-.073 0-.11-.038-.183-.038-.182 0-.364-.037-.547-.037h-.656c-.182 0-.364.037-.583.075h-.073c-.182.037-.364.074-.51.112a.272.272 0 0 0-.146.074 2.454 2.454 0 0 0-.474.187l-.036-5.706c.145-.112.218-.15.328-.15Z"/><path fill="url(#paint30_linear_7740_6932)" d="M287.294 333.777c.146-.112.328-.187.51-.261h.037c.109-.038.255-.075.401-.149.036 0 .073 0 .109-.038.037 0 .073-.037.11-.037.036-.037.109-.037.146-.037.109-.038.218-.038.364-.075H289.08c.073 0 .183-.037.256-.037.109 0 .218 0 .328-.038h.765c.146 0 .328.038.474.075h.073c.182.037.365.075.547.149H291.632c.182.075.365.112.511.224v5.706l-.547-.223h-.037c-.182-.075-.364-.112-.547-.15h-.036a2.795 2.795 0 0 0-.583-.074h-.693c-.219 0-.401.037-.583.037h-.037l-.546.112c-.037 0-.073 0-.11.037-.182.038-.364.112-.51.149-.182.075-.365.15-.547.262-.693.41-1.057.969-1.057 1.529v-5.707c-.073-.522.291-1.044.984-1.454Z"/><path fill="url(#paint31_linear_7740_6932)" d="m268.072 336.609.984.336a.67.67 0 0 0 .255.075c.146.037.292.111.437.149l.328.112.438.112c.109.037.219.074.328.074.146.037.328.075.474.112.109 0 .182.037.291.075.183.037.401.074.584.111.073 0 .146.038.182.038.182.037.401.074.583.112.073 0 .146.037.182.037.256.037.511.074.802.112v5.706c-.255-.038-.51-.075-.802-.112-.072 0-.109 0-.182-.038-.182-.037-.401-.074-.583-.111-.073 0-.146-.038-.219-.038-.182-.037-.364-.074-.583-.112-.109-.037-.182-.037-.292-.074-.145-.037-.328-.075-.473-.112-.11-.037-.219-.075-.329-.075l-.437-.112-.328-.111c-.146-.038-.292-.075-.401-.112-.036-.038-.109-.038-.146-.038-.036 0-.073-.037-.109-.037l-.984-.336v-5.743Z"/><path fill="url(#paint32_linear_7740_6932)" d="M274.987 336.758c.073-.037.182-.112.255-.149.036 0 .036-.038.073-.038.073-.037.109-.074.182-.074.109-.037.255-.075.401-.149H276.007c.073-.038.146-.038.219-.038.037 0 .073 0 .073-.037h.073c.073 0 .109-.037.182-.037H277.757a.7.7 0 0 1 .255.037h.146c.146 0 .255.037.401.075h.036c.037 0 .037 0 .073.037.073 0 .146.037.219.037.037 0 .073.038.109.038.073 0 .11.037.183.037H279.288c.146.074.292.112.401.149h.037c.109.075.218.112.328.187 0 0 .036 0 .036.037.073.037.109.074.182.112.037 0 .037.037.073.037a.785.785 0 0 1 .182.149c.073.075.146.149.183.224 0 0 0 .037.036.037 0 0 0 .038.037.038.036.037.073.074.109.149 0 0 0 .037.036.037v.037c0 .038.037.075.073.112 0 .038.037.038.037.075v.037c0 .037.036.075.036.112V343.844c0-.037 0-.074-.036-.112 0-.037-.037-.074-.037-.112 0-.037-.036-.037-.036-.074 0-.038-.037-.075-.073-.112 0-.037-.036-.037-.036-.075-.037-.037-.037-.074-.073-.112 0-.037-.037-.037-.037-.074-.073-.075-.109-.149-.182-.224-.073-.075-.146-.112-.219-.186-.036 0-.036-.038-.073-.038-.036-.037-.109-.074-.146-.112 0 0-.036-.037-.072-.037-.11-.075-.219-.112-.328-.186 0 0-.037 0-.037-.038-.109-.037-.255-.112-.401-.149-.036 0-.073 0-.109-.037-.073 0-.11-.038-.183-.075-.036 0-.072 0-.109-.037-.073 0-.146-.037-.219-.037h-.109c-.146-.038-.255-.038-.401-.075h-.109c-.11 0-.183 0-.255-.037h-.875c-.073 0-.11 0-.183.037-.072 0-.109 0-.182.037-.073 0-.109.038-.182.038s-.109.037-.146.037c-.073 0-.146.037-.219.037-.036 0-.073.038-.145.038a1.061 1.061 0 0 0-.365.149c-.073.037-.146.074-.182.074-.037 0-.073.038-.073.038-.073.037-.182.074-.255.149-.584.335-.948.783-1.057 1.268v-5.706c.109-.56.51-1.007 1.057-1.343Z"/><path fill="#EFF1FE" d="M281.773 337.952c.183-.037.328-.075.511-.075.109 0 .182-.037.291-.037.219-.037.474-.075.693-.149.036 0 .073 0 .109-.037.292-.075.547-.112.839-.187.073-.037.182-.037.255-.075.182-.037.364-.111.583-.149.109-.037.182-.037.292-.074.182-.075.401-.112.583-.187.073-.037.182-.037.255-.074.292-.112.547-.187.838-.299v5.706a6.842 6.842 0 0 1-.801.298c-.073.037-.183.037-.256.075-.182.074-.401.112-.583.186-.036.038-.109.038-.146.038-.036 0-.073.037-.146.037-.182.037-.401.112-.583.149-.073.037-.182.037-.255.075-.292.074-.547.149-.838.186h-.037c-.255.075-.51.112-.765.149-.073 0-.183.037-.255.037a2.716 2.716 0 0 1-.547.075h-.073c-.182.037-.365.037-.583.075v-5.706c.182.037.401 0 .619-.037Z"/><path fill="url(#paint33_linear_7740_6932)" d="M267.862 333.776c1.313.783 1.385 2.014.219 2.834 1.823.708 3.828 1.193 5.906 1.454.072-.485.473-.932 1.057-1.268.656-.372 1.567-.633 2.552-.633 1.859 0 3.39.82 3.572 1.901 2.078-.261 4.083-.746 5.906-1.454-1.13-.82-1.057-2.051.255-2.834 1.312-.783 3.39-.82 4.812-.149 1.203-1.081 2.005-2.275 2.479-3.505-1.823-.112-3.208-1.007-3.208-2.126 0-.596.401-1.118 1.057-1.491.583-.336 1.312-.559 2.187-.597-.437-1.23-1.239-2.423-2.442-3.505-1.422.671-3.5.634-4.812-.149-1.313-.783-1.385-2.013-.219-2.871-1.823-.709-3.828-1.193-5.906-1.454-.072.484-.473.932-1.02 1.305-.656.373-1.568.634-2.552.634-1.859 0-3.39-.821-3.573-1.902-2.078.261-4.083.746-5.905 1.454 1.13.821 1.057 2.051-.255 2.871-1.313.783-3.391.821-4.812.15-1.203 1.081-2.042 2.274-2.479 3.505 1.822.111 3.208 1.006 3.208 2.125 0 .597-.401 1.119-1.058 1.492-.583.335-1.312.559-2.187.596.438 1.231 1.24 2.424 2.406 3.505 1.422-.746 3.5-.708 4.812.112Zm15.566-2.312c-3.244 1.902-8.494 1.902-11.702 0-3.208-1.901-3.208-5.034.037-6.935 3.244-1.902 8.494-1.902 11.702 0 3.244 1.901 3.208 4.996-.037 6.935Z"/><mask id="a" width="89" height="191" x="281" y="35" maskUnits="userSpaceOnUse" style="mask-type:luminance"><path fill="#fff" d="M370 35h-89v191h89V35Z"/></mask><g mask="url(#a)"><path fill="#1C8ECD" d="m287.908 118.573 70.925-43.728c4.344-2.504 7.851-8.012 7.851-12.31l1.578-24.755c-3.475-2.218-5.085-4.096-9.419-1.592l-69.992 40.29C284.507 78.984 281 84.49 281 88.789v23.068c0 4.308 1.801 5.868 6.908 6.696v.021Z"/><path fill="#4EB9F4" d="m292.157 117.342 69.981-40.29c4.344-2.504 7.851-8.012 7.851-12.309V41.685c0-4.308-3.507-5.762-7.851-3.279l-69.981 40.29c-4.344 2.505-7.851 8.012-7.851 12.31v23.068c0 4.308 3.507 5.762 7.851 3.279v-.011Z"/><path fill="#0B927A" d="m287.908 172.212 70.925-43.728c4.344-2.504 7.851-8.011 7.851-12.309l1.578-24.756c-3.475-2.217-5.085-4.096-9.419-1.591l-69.992 40.311c-4.344 2.505-7.851 8.012-7.851 12.309v23.069c0 4.308 1.801 5.857 6.908 6.706v-.011Z"/><path fill="#0ED2AF" d="m292.157 171.003 69.981-40.291c4.344-2.504 7.851-8.011 7.851-12.308V95.335c0-4.308-3.507-5.762-7.851-3.279l-69.981 40.291c-4.344 2.504-7.851 8.011-7.851 12.308v23.069c0 4.308 3.507 5.762 7.851 3.279Z"/><path fill="#8622C9" d="m287.908 226 70.925-43.728c4.344-2.505 7.851-8.012 7.851-12.309l1.578-24.756c-3.475-2.218-5.085-4.096-9.419-1.592l-69.992 40.312c-4.344 2.504-7.851 8.011-7.851 12.309v23.068c0 4.308 1.801 5.868 6.908 6.707V226Z"/><path fill="#AA55E2" d="m292.157 224.79 69.981-40.29c4.344-2.504 7.851-8.011 7.851-12.309v-23.068c0-4.309-3.507-5.762-7.851-3.279l-69.981 40.29c-4.344 2.504-7.851 8.012-7.851 12.309v23.069c0 4.308 3.507 5.761 7.851 3.278Z"/></g><path fill="#fff" d="M305.54 145.154v2.483l4.704-2.727v2.08l-6.908 4.011v-11.057l6.834-3.947v2.079l-4.63 2.674v2.356l4.227-2.451v2.048l-4.227 2.451ZM321.994 129.152l2.246-1.295v10.994l-2.161 1.262v-7.13l-3.126 6.918-.254.149-3.126-3.29v7.131l-2.193 1.273v-11.025l2.257-1.305 3.189 3.364 3.168-7.035v-.011ZM337.304 131.253l-2.352 1.369-.657-1.591-4.387 2.546-.656 2.356-2.353 1.369 3.857-13.222 2.691-1.559 3.868 8.722-.011.01Zm-5.202-5.454-1.515 5.359 3.019-1.751-1.515-3.608h.011ZM339.942 129.714v-10.95l2.162-1.252v10.94l-2.162 1.252v.01ZM347.846 114.201v8.86l4.164-2.419v2.059l-6.315 3.671v-10.929l2.151-1.242ZM311.621 87.907V81.54l2.076-1.199-.021 10.431-1.578.913-4.493-3.778v6.367l-2.066 1.199V85.042l1.579-.913 4.503 3.767v.011ZM326.126 83.589l-2.246 1.294-.625-1.517-4.185 2.42-.636 2.238-2.236 1.295 3.698-12.564 2.564-1.486 3.655 8.309.011.01Zm-4.937-5.2-1.452 5.104 2.882-1.666-1.43-3.438ZM336.837 66.982l2.13-1.231-.063 10.462-2.056 1.189.042-6.78-2.977 6.557-.244.138-2.934-3.13-.032 6.76-2.066 1.198.042-10.452 2.13-1.23 2.988 3.204 3.03-6.685h.01ZM344.455 68.701l-.021 2.345 4.418-2.557-.021 1.974-6.484 3.745.074-10.462 6.421-3.714-.022 1.973-4.354 2.515-.021 2.229 3.973-2.292v1.941l-3.995 2.292.032.011ZM300.505 201.594c.763 0 1.145.467 1.155 1.38 0 .753-.254 1.528-.784 2.324-.53.795-1.165 1.4-1.928 1.846l-3.698 2.133v-8.914l3.422-1.984c.731-.424 1.367-.552 1.876-.382.508.17.773.626.773 1.348 0 .721-.275 1.496-.816 2.26v-.011Zm-1.833-1.591-1.716.997v1.952l1.716-.997c.265-.149.488-.371.668-.668.18-.287.265-.573.265-.86 0-.286-.085-.467-.265-.552-.18-.085-.403-.053-.668.106v.022Zm-1.706 6.621 1.982-1.146c.286-.17.53-.403.72-.722.191-.307.286-.615.286-.923 0-.308-.095-.488-.286-.583-.19-.085-.434-.053-.72.116l-1.982 1.146v2.112ZM304.034 204.194l-.043-8.913 1.717-.998.042 8.924-1.727.998.011-.011ZM315.349 197.668l-1.876 1.083-1.801-2.08-1.314.764.022 3.109-1.727.997-.053-8.924 3.496-2.026c.805-.467 1.505-.584 2.077-.34.572.244.869.775.869 1.592 0 .552-.149 1.156-.445 1.804a6.925 6.925 0 0 1-1.219 1.782l1.981 2.25-.01-.011Zm-3.242-5.443-1.78 1.029.021 2.632 1.78-1.03c.328-.191.604-.477.837-.87.233-.392.349-.774.339-1.135-.011-.361-.127-.605-.36-.722-.233-.116-.52-.085-.848.106l.011-.01ZM316.695 187.906l6.484-3.767.022 1.677-2.384 1.379.084 7.248-1.748 1.008-.085-7.248-2.362 1.369-.021-1.677.01.011ZM330.511 183.46l-.063-3.544 1.737-1.008.159 8.934-1.748 1.008-.064-3.714-3.305 1.91.053 3.714-1.749 1.008-.127-8.934 1.749-1.008.052 3.533 3.296-1.91.01.011ZM335.109 177.22l3.539-2.058c1.229-.711 2.257-.881 3.094-.488.847.371 1.282 1.188 1.314 2.451.031 1.263-.361 2.568-1.176 3.905-.806 1.337-1.823 2.366-3.052 3.066l-3.56 2.048-.169-8.934.01.01Zm1.907 6.229 1.791-1.04a5.178 5.178 0 0 0 1.875-1.867c.477-.807.7-1.624.689-2.441-.011-.817-.275-1.347-.773-1.581-.498-.233-1.134-.127-1.908.318l-1.79 1.04.116 5.571ZM353.132 175.852l-1.939 1.125-.583-1.306-3.592 2.08-.498 1.931-1.917 1.104 2.924-10.76 2.193-1.273 3.412 7.109v-.01Zm-4.461-4.457-1.144 4.372 2.469-1.433-1.335-2.939h.01ZM359.002 163.352l2.023-1.167-2.934 7.247.105 3.502-1.78 1.029-.105-3.502-3.243-3.661 2.013-1.167 2.077 2.589 1.854-4.86-.01-.01Z"/><defs><linearGradient id="paint0_linear_7740_6932" x1="805.5" x2="-1" y1="2.5" y2="401.5" gradientUnits="userSpaceOnUse"><stop stop-color="#70C5F4"/><stop offset="1" stop-color="#0A91DD"/></linearGradient><linearGradient id="paint1_linear_7740_6932" x1="237.809" x2="236.473" y1="267.145" y2="267.145" gradientUnits="userSpaceOnUse"><stop stop-color="#E4E7FB"/><stop offset="1" stop-color="#E4E7FB"/></linearGradient><linearGradient id="paint2_linear_7740_6932" x1="267.62" x2="266.262" y1="267.163" y2="267.163" gradientUnits="userSpaceOnUse"><stop stop-color="#E4E7FB"/><stop offset="1" stop-color="#E4E7FB"/></linearGradient><linearGradient id="paint3_linear_7740_6932" x1="229.383" x2="224.095" y1="278.452" y2="278.452" gradientUnits="userSpaceOnUse"><stop stop-color="#E4E7FB"/><stop offset="1" stop-color="#E4E7FB"/></linearGradient><linearGradient id="paint4_linear_7740_6932" x1="265.55" x2="238.356" y1="276.188" y2="276.188" gradientUnits="userSpaceOnUse"><stop stop-color="#B7C0EB"/><stop offset=".532" stop-color="#E4E7FB"/><stop offset="1" stop-color="#E4E7FB"/></linearGradient><linearGradient id="paint5_linear_7740_6932" x1="279.857" x2="274.527" y1="278.457" y2="278.457" gradientUnits="userSpaceOnUse"><stop stop-color="#E4E7FB"/><stop offset="1" stop-color="#E4E7FB"/></linearGradient><linearGradient id="paint6_linear_7740_6932" x1="228.071" x2="224.06" y1="286.531" y2="286.531" gradientUnits="userSpaceOnUse"><stop stop-color="#EFF1FE"/><stop offset="1" stop-color="#E4E7FB"/></linearGradient><linearGradient id="paint7_linear_7740_6932" x1="237.662" x2="228.037" y1="290.363" y2="290.363" gradientUnits="userSpaceOnUse"><stop stop-color="#E4E7FB"/><stop offset="1" stop-color="#E4E7FB"/></linearGradient><linearGradient id="paint8_linear_7740_6932" x1="275.784" x2="266.127" y1="290.379" y2="290.379" gradientUnits="userSpaceOnUse"><stop stop-color="#E4E7FB"/><stop offset="1" stop-color="#E4E7FB"/></linearGradient><linearGradient id="paint9_linear_7740_6932" x1="246.023" x2="236.318" y1="295.509" y2="295.509" gradientUnits="userSpaceOnUse"><stop stop-color="#EFF1FE"/><stop offset="1" stop-color="#E4E7FB"/></linearGradient><linearGradient id="paint10_linear_7740_6932" x1="257.744" x2="245.992" y1="295.13" y2="295.13" gradientUnits="userSpaceOnUse"><stop stop-color="#E4E7FB"/><stop offset="1" stop-color="#E4E7FB"/></linearGradient><linearGradient id="paint11_linear_7740_6932" x1="261.834" x2="241.372" y1="257.982" y2="292.633" gradientUnits="userSpaceOnUse"><stop stop-color="#F1F4FE"/><stop offset=".58" stop-color="#F7F9FE"/><stop offset="1" stop-color="#fff"/></linearGradient><linearGradient id="paint12_linear_7740_6932" x1="306.415" x2="305.891" y1="294.209" y2="294.209" gradientUnits="userSpaceOnUse"><stop stop-color="#E4E7FB"/><stop offset="1" stop-color="#E4E7FB"/></linearGradient><linearGradient id="paint13_linear_7740_6932" x1="318.151" x2="317.615" y1="294.216" y2="294.216" gradientUnits="userSpaceOnUse"><stop stop-color="#E4E7FB"/><stop offset="1" stop-color="#E4E7FB"/></linearGradient><linearGradient id="paint14_linear_7740_6932" x1="303.105" x2="301.022" y1="298.659" y2="298.659" gradientUnits="userSpaceOnUse"><stop stop-color="#E4E7FB"/><stop offset="1" stop-color="#E4E7FB"/></linearGradient><linearGradient id="paint15_linear_7740_6932" x1="317.33" x2="306.629" y1="297.771" y2="297.771" gradientUnits="userSpaceOnUse"><stop stop-color="#B7C0EB"/><stop offset=".532" stop-color="#E4E7FB"/><stop offset="1" stop-color="#E4E7FB"/></linearGradient><linearGradient id="paint16_linear_7740_6932" x1="322.966" x2="320.869" y1="298.661" y2="298.661" gradientUnits="userSpaceOnUse"><stop stop-color="#E4E7FB"/><stop offset="1" stop-color="#E4E7FB"/></linearGradient><linearGradient id="paint17_linear_7740_6932" x1="302.579" x2="301.002" y1="301.84" y2="301.84" gradientUnits="userSpaceOnUse"><stop stop-color="#EFF1FE"/><stop offset="1" stop-color="#E4E7FB"/></linearGradient><linearGradient id="paint18_linear_7740_6932" x1="306.357" x2="302.567" y1="303.344" y2="303.344" gradientUnits="userSpaceOnUse"><stop stop-color="#E4E7FB"/><stop offset="1" stop-color="#E4E7FB"/></linearGradient><linearGradient id="paint19_linear_7740_6932" x1="321.363" x2="317.564" y1="303.353" y2="303.353" gradientUnits="userSpaceOnUse"><stop stop-color="#E4E7FB"/><stop offset="1" stop-color="#E4E7FB"/></linearGradient><linearGradient id="paint20_linear_7740_6932" x1="309.648" x2="305.83" y1="305.371" y2="305.371" gradientUnits="userSpaceOnUse"><stop stop-color="#EFF1FE"/><stop offset="1" stop-color="#E4E7FB"/></linearGradient><linearGradient id="paint21_linear_7740_6932" x1="314.255" x2="309.63" y1="305.222" y2="305.222" gradientUnits="userSpaceOnUse"><stop stop-color="#E4E7FB"/><stop offset="1" stop-color="#E4E7FB"/></linearGradient><linearGradient id="paint22_linear_7740_6932" x1="315.879" x2="307.827" y1="290.603" y2="304.239" gradientUnits="userSpaceOnUse"><stop stop-color="#F1F4FE"/><stop offset=".58" stop-color="#F7F9FE"/><stop offset="1" stop-color="#fff"/></linearGradient><linearGradient id="paint23_linear_7740_6932" x1="268.984" x2="268.173" y1="322.896" y2="322.896" gradientUnits="userSpaceOnUse"><stop stop-color="#E4E7FB"/><stop offset="1" stop-color="#E4E7FB"/></linearGradient><linearGradient id="paint24_linear_7740_6932" x1="287.144" x2="286.315" y1="322.906" y2="322.906" gradientUnits="userSpaceOnUse"><stop stop-color="#E4E7FB"/><stop offset="1" stop-color="#E4E7FB"/></linearGradient><linearGradient id="paint25_linear_7740_6932" x1="263.855" x2="260.631" y1="329.785" y2="329.785" gradientUnits="userSpaceOnUse"><stop stop-color="#E4E7FB"/><stop offset="1" stop-color="#E4E7FB"/></linearGradient><linearGradient id="paint26_linear_7740_6932" x1="285.872" x2="269.308" y1="328.409" y2="328.409" gradientUnits="userSpaceOnUse"><stop stop-color="#B7C0EB"/><stop offset=".532" stop-color="#E4E7FB"/><stop offset="1" stop-color="#E4E7FB"/></linearGradient><linearGradient id="paint27_linear_7740_6932" x1="294.59" x2="291.345" y1="329.787" y2="329.787" gradientUnits="userSpaceOnUse"><stop stop-color="#E4E7FB"/><stop offset="1" stop-color="#E4E7FB"/></linearGradient><linearGradient id="paint28_linear_7740_6932" x1="263.043" x2="260.601" y1="334.709" y2="334.709" gradientUnits="userSpaceOnUse"><stop stop-color="#EFF1FE"/><stop offset="1" stop-color="#E4E7FB"/></linearGradient><linearGradient id="paint29_linear_7740_6932" x1="268.899" x2="263.032" y1="337.036" y2="337.036" gradientUnits="userSpaceOnUse"><stop stop-color="#E4E7FB"/><stop offset="1" stop-color="#E4E7FB"/></linearGradient><linearGradient id="paint30_linear_7740_6932" x1="292.125" x2="286.245" y1="337.051" y2="337.051" gradientUnits="userSpaceOnUse"><stop stop-color="#E4E7FB"/><stop offset="1" stop-color="#E4E7FB"/></linearGradient><linearGradient id="paint31_linear_7740_6932" x1="273.986" x2="268.075" y1="340.173" y2="340.173" gradientUnits="userSpaceOnUse"><stop stop-color="#EFF1FE"/><stop offset="1" stop-color="#E4E7FB"/></linearGradient><linearGradient id="paint32_linear_7740_6932" x1="281.117" x2="273.958" y1="339.944" y2="339.944" gradientUnits="userSpaceOnUse"><stop stop-color="#E4E7FB"/><stop offset="1" stop-color="#E4E7FB"/></linearGradient><linearGradient id="paint33_linear_7740_6932" x1="283.633" x2="271.169" y1="317.315" y2="338.422" gradientUnits="userSpaceOnUse"><stop stop-color="#F1F4FE"/><stop offset=".58" stop-color="#F7F9FE"/><stop offset="1" stop-color="#fff"/></linearGradient><clipPath id="clip0_7740_6932"><path fill="#fff" d="M474.002 109h59v121h-59z"/></clipPath></defs></svg>