<svg xmlns="http://www.w3.org/2000/svg" width="810" height="400" fill="none"><rect width="810" height="400" rx="5" fill="#343D63"/><mask id="a" maskUnits="userSpaceOnUse" x="0" y="0" width="810" height="400"><rect width="810" height="400" rx="5" fill="#4EB9F4"/></mask><g mask="url(#a)"><path d="M825.092-7L-3.02 400.706 819.055 407l6.037-414z" fill="url(#paint0_linear)"/><path d="M818.092-7l-826.1 406.706L812.054 407l6.038-414z" fill="url(#paint1_linear)"/></g><path d="M584.694 111.179L439.347 33.906c-3.33-1.77-7.347.643-7.347 4.415v224.051c0 3.76 2.11 7.203 5.46 8.91l145.27 74.014c3.327 1.695 7.27-.722 7.27-4.455V120.009a10 10 0 00-5.306-8.83z" fill="#fff"/><path d="M499 92c-15.667-8.833-47.6-26.6-50-27v6l50 27.5V92z" fill="#F26B86"/><path d="M573.5 225.5l-124.5-66v6L573.5 232v-6.5zM573.5 245.5l-124.5-66v6L573.5 252v-6.5zM573.5 265.5l-124.5-66v6L573.5 272v-6.5zM573.5 285.5l-124.5-66v6L573.5 292v-6.5zM573.5 305.5l-124.5-66v6L573.5 312v-6.5zM569.259 149.743L453.91 88.347c-1.999-1.064-4.41.385-4.41 2.648v48.649a8 8 0 004.308 7.097l115.308 59.978c1.997 1.039 4.384-.41 4.384-2.661v-47.253a8 8 0 00-4.241-7.062z" fill="#D9DDF5"/><path d="M470.488 128.982L351.495 60.584c-2-1.15-4.495.294-4.495 2.6v40.738a7 7 0 003.548 6.089L469.52 177.46c2 1.134 4.48-.31 4.48-2.609V135.05a6.998 6.998 0 00-3.512-6.068z" fill="#1F61BF"/><path opacity=".9" d="M444 125.791c-14.727-8.438-44.744-25.409-47-25.791v5.731L444 132v-6.209z" fill="#fff"/><path opacity=".55" d="M463 147.857c-14.771-8.348-63.737-36.479-66-36.857v5.67L463 154v-6.143zM463 159.857c-14.771-8.348-63.737-36.479-66-36.857v5.67L463 166v-6.143z" fill="#fff"/><ellipse cx="372.608" cy="97.967" rx="13.942" ry="23.09" transform="rotate(-29.95 372.608 97.967)" fill="#4EB9F4"/><mask id="b" maskUnits="userSpaceOnUse" x="349" y="71" width="48" height="54"><ellipse cx="372.608" cy="97.967" rx="13.942" ry="23.09" transform="rotate(-29.95 372.608 97.967)" fill="#4EB9F4"/></mask><g mask="url(#b)"><ellipse cx="371" cy="112.619" rx="11.632" ry="14.941" transform="rotate(-34.672 371 112.619)" fill="#fff"/></g><ellipse cx="371.955" cy="92.513" rx="6.47" ry="10.714" transform="rotate(-29.95 371.955 92.513)" fill="#fff"/><path d="M469.5 224L285 118v124.5l184.5 108V224z" fill="#FFD15A"/><path d="M290.5 118H285l184.5 106v126h2.5V223L290.5 118z" fill="#F5A226"/><path d="M376 239.5L286 123l89 122 91-17.5-90 12z" fill="#F5A226"/><path d="M393 237.347l72.5 101.5-76-99.5 3.5-2zM365 227.347l-2.5-4-70.5 13 73-9z" fill="#F5A226"/><path d="M408.346 309.148c-25.622-14.848-58.28-34.216-80.202-47.381C318.13 255.753 304 263.653 304 275.335a33.093 33.093 0 0016.32 28.527l83.077 48.848c10 5.879 22.603-1.394 22.603-12.994 0-12.595-6.757-24.252-17.654-30.568z" fill="#08A589"/><path d="M403.346 313.148c-25.622-14.848-58.28-34.216-80.202-47.381C313.13 259.753 299 267.653 299 279.335a33.093 33.093 0 0016.32 28.527l83.077 48.848c10 5.879 22.603-1.394 22.603-12.994 0-12.595-6.757-24.252-17.654-30.568z" fill="#26E8AD"/><path d="M337.171 308.779c-1.495-.877-2.798-2.096-3.871-3.621a15.578 15.578 0 01-2.3-5.144l2.223-.458c.69 2.782 1.993 4.764 3.986 5.907.958.572 1.686.763 2.185.534.498-.229.728-.762.728-1.601 0-.876-.269-1.715-.805-2.477-.537-.762-1.495-1.829-2.836-3.201a38.188 38.188 0 01-1.878-1.982c-.46-.571-.997-1.219-1.533-2.058-.537-.762-.92-1.638-1.227-2.515a11.785 11.785 0 01-.46-2.896c-.038-2.02.46-3.316 1.457-3.926 1.035-.571 2.261-.457 3.717.42 1.303.8 2.492 1.943 3.45 3.429.996 1.487 1.724 3.164 2.261 4.993l-2.261.457c-.69-2.515-1.84-4.23-3.45-5.183-.766-.457-1.418-.571-1.878-.343-.383.229-.613.801-.613 1.639s.268 1.639.728 2.401c.46.762 1.342 1.753 2.568 3.011.613.647 1.073 1.105 1.342 1.41.268.304.69.762 1.188 1.333.498.61.881 1.106 1.15 1.563.268.457.536.953.843 1.562.306.61.498 1.22.613 1.83.115.609.192 1.257.192 1.943 0 1.906-.537 3.125-1.533 3.621-1.035.571-2.338.305-3.986-.648zM348.708 311.906l6.86 4.039-.115 3.163-9.351-5.488.268-21.57 9.735 5.831-.115 3.506-7.014-4.192-.115 5.717 6.362 3.773-.115 3.315-6.285-3.735-.115 5.641zM369.633 305.998l2.606 1.563-1.61 20.503-1.954-1.143-6.363-18.141-.766 13.949-2.491-1.487.996-20.998 2.07 1.219 6.515 18.75.997-14.215zM383.01 313.963c2.146 1.296 3.832 3.354 5.02 6.212 1.15 2.82 1.572 5.602 1.188 8.423-.344 2.743-1.341 4.649-2.912 5.678-1.572 1.029-3.373.953-5.443-.229l-5.902-3.468 1.84-20.312 6.209 3.696zm-1.84 17.074c1.418.838 2.644.876 3.679.152 1.035-.724 1.687-2.058 1.917-4.04.23-1.981 0-3.925-.767-5.792-.766-1.868-1.878-3.24-3.373-4.116l-3.564-2.134-1.342 13.872 3.45 2.058z" fill="#fff"/><defs><linearGradient id="paint0_linear" x1="805.5" y1="3.5" x2="-1" y2="402.5" gradientUnits="userSpaceOnUse"><stop stop-color="#27EBC8"/><stop offset="1" stop-color="#06C09F"/></linearGradient><linearGradient id="paint1_linear" x1="797.464" y1="9" x2="32.234" y2="450.224" gradientUnits="userSpaceOnUse"><stop stop-color="#70C4F3"/><stop offset="1" stop-color="#139AE4"/></linearGradient></defs></svg>